<svg height="73" viewBox="0 0 73 73" width="73" xmlns="http://www.w3.org/2000/svg" xmlns:xlink="http://www.w3.org/1999/xlink">
  <defs>
    <clipPath id="clip-path">
      <rect data-name="Rectangle 3868" fill="#fff" height="73" id="Rectangle_3868" transform="translate(0.161 0.161)" width="73"/>
    </clipPath>
  </defs>
  <g clip-path="url(#clip-path)" data-name="Group 9007" id="Group_9007" transform="translate(-0.161 -0.161)">
    <path d="M40.982,24.8a1.143,1.143,0,0,0,2.182-.523l-.025-.6a2.273,2.273,0,0,1,.528-1.149c.413-.593.94-1.184,1.389-1.763a4.331,4.331,0,0,0,1.183-3.184,5.044,5.044,0,0,1,.268-3.468,3.247,3.247,0,0,1,2.436-1.3,28.244,28.244,0,0,1,4.458-.186,18.889,18.889,0,0,1,5.241.562,3.052,3.052,0,0,1,1.875,1.2,2.717,2.717,0,0,1-.172,2.379,2.035,2.035,0,0,0-.066,1.254,5.446,5.446,0,0,0,.646,1.452c.592.99,1.527,2.169,2.182,3.177a6.7,6.7,0,0,1,.454.787.944.944,0,0,1,.1.239s-.025.592-.025.592a1.143,1.143,0,0,0,2.182.523,30.686,30.686,0,0,0,1.871-9.876c0-1.689.213-3.339.092-4.9A7.539,7.539,0,0,0,65.546,4.97C63.2,2.623,58.929.729,53.42.635,48.973.558,44.575,3.006,42.748,4.266a8.879,8.879,0,0,0-3.665,6.506,26.878,26.878,0,0,0,.027,4.723,27.215,27.215,0,0,0,1.871,9.3Zm23.673-3.929c-.43-.62-.915-1.274-1.336-1.893a12.074,12.074,0,0,1-.8-1.473,4.751,4.751,0,0,0-.009-4.235,5.271,5.271,0,0,0-3.193-2.255,21.227,21.227,0,0,0-5.912-.663,23.19,23.19,0,0,0-5.761.42,4.963,4.963,0,0,0-3.086,2.161,7.157,7.157,0,0,0-.566,5.046,1.023,1.023,0,0,1-.219.642,10.621,10.621,0,0,1-.98,1.325c-.235.289-.473.58-.694.873a25.205,25.205,0,0,1-.7-5.322,24.716,24.716,0,0,1-.045-4.442,6.638,6.638,0,0,1,2.694-4.9c1.6-1.1,5.438-3.295,9.334-3.228C58.159,3,61.894,4.552,63.93,6.586a5.807,5.807,0,0,1,1.6,4.458C65.54,12.3,65.4,13.6,65.4,14.923A30.336,30.336,0,0,1,64.655,20.871Z" data-name="Path 33600" fill="#fff" id="Path_33600" transform="translate(-16.819 -0.634)"/>
    <path d="M85.995,30.944a1.989,1.989,0,0,1,1.261.905,7.29,7.29,0,0,1,1.171,4.23,7.107,7.107,0,0,1-1.269,4.357,1.755,1.755,0,0,1-1.3.788,1.143,1.143,0,0,0,0,2.286,3.983,3.983,0,0,0,3.084-1.639,9.428,9.428,0,0,0,1.775-5.791A9.607,9.607,0,0,0,89.1,30.493a4.228,4.228,0,0,0-2.809-1.816,1.143,1.143,0,0,0-.293,2.267Z" data-name="Path 33601" fill="#fff" id="Path_33601" transform="translate(-36.414 -12.644)"/>
    <path d="M71.931,49.594a1.781,1.781,0,0,1-1.369-.907A1.143,1.143,0,1,0,68.7,50.008a4,4,0,0,0,3.235,1.872,1.143,1.143,0,1,0,0-2.286Zm-9.162,7.763.88,8.362a1.143,1.143,0,0,0,2.274-.239l-.88-8.362a1.143,1.143,0,1,0-2.274.239Zm-8.278,8.362.363-3.449a1.143,1.143,0,1,0-2.274-.239l-.363,3.449a1.143,1.143,0,0,0,2.274.239Z" data-name="Path 33602" fill="#fff" id="Path_33602" transform="translate(-22.49 -21.015)"/>
    <path d="M68.382,71.636A14.861,14.861,0,0,0,54,60.508H26.588A14.861,14.861,0,0,0,12.2,71.636l-3.711,14.3a3.429,3.429,0,0,0,3.319,4.291H68.774a3.429,3.429,0,0,0,3.32-4.291l-3.712-14.3Zm-2.213.574,3.712,14.3a1.143,1.143,0,0,1-1.107,1.43H11.812a1.143,1.143,0,0,1-1.107-1.43l3.712-14.3a12.575,12.575,0,0,1,12.172-9.416H54A12.574,12.574,0,0,1,66.169,72.21ZM50.554,40.135a15.542,15.542,0,0,1-4.33,10.832,8.512,8.512,0,0,1-5.931,2.683,8.514,8.514,0,0,1-5.932-2.683,15.544,15.544,0,0,1-4.33-10.832,1.143,1.143,0,1,0-2.286,0A17.892,17.892,0,0,0,32.757,52.6a10.774,10.774,0,0,0,7.536,3.34,10.773,10.773,0,0,0,7.536-3.34,17.89,17.89,0,0,0,5.012-12.461,1.143,1.143,0,0,0-2.286,0Z" data-name="Path 33603" fill="#fff" id="Path_33603" transform="translate(-3.712 -17.068)"/>
    <path d="M50.736,69.911l-.357,2.322a1.143,1.143,0,1,0,2.259.348L53,70.258a1.143,1.143,0,1,0-2.259-.348Zm8.5,2.322L58.1,64.9a1.143,1.143,0,1,0-2.26.348l1.129,7.338a1.143,1.143,0,0,0,2.26-.348ZM62.6,42.37h3.61a1.143,1.143,0,0,0,0-2.286H62.6a1.143,1.143,0,1,0,0,2.286Zm-9.467,0h2.748a1.143,1.143,0,1,0,0-2.286H53.134a1.143,1.143,0,0,0,0,2.286Zm-9.733,0h3.832a1.143,1.143,0,0,0,0-2.286H43.4a1.143,1.143,0,0,0,0,2.286Z" data-name="Path 33604" fill="#fff" id="Path_33604" transform="translate(-18.226 -17.535)"/>
    <path d="M43.631,34.635a4,4,0,1,0,4,4A4,4,0,0,0,43.631,34.635Zm0,2.286a1.715,1.715,0,1,1-1.715,1.715A1.716,1.716,0,0,1,43.631,36.921Zm9.145-2.286a4,4,0,1,0,4,4A4,4,0,0,0,52.776,34.635Zm0,2.286a1.715,1.715,0,1,1-1.715,1.715A1.716,1.716,0,0,1,52.776,36.921ZM69.53,72.812a3.43,3.43,0,0,0-3.4-3.883H30.276a3.43,3.43,0,0,0-3.4,3.883l1.676,12.575a3.429,3.429,0,0,0,3.4,2.976h32.5a3.43,3.43,0,0,0,3.4-2.976L69.53,72.812Zm-2.266-.3L65.588,85.085a1.143,1.143,0,0,1-1.133.992h-32.5a1.143,1.143,0,0,1-1.133-.992L29.144,72.51a1.143,1.143,0,0,1,1.133-1.295H66.131a1.144,1.144,0,0,1,1.133,1.295Z" data-name="Path 33605" fill="#fff" id="Path_33605" transform="translate(-11.623 -15.201)"/>
    <path d="M54.786,82.44a3.429,3.429,0,1,0,3.429,3.429A3.431,3.431,0,0,0,54.786,82.44Zm0,2.286a1.143,1.143,0,1,1-1.143,1.143A1.144,1.144,0,0,1,54.786,84.726ZM66.5,52.177V52.16A2.862,2.862,0,0,1,63.646,55H57.073a1.143,1.143,0,1,0,0,2.286h6.573a5.144,5.144,0,0,0,5.144-5.144c0-1.077-2.286-.631-2.286,0Zm.665,15.466a1.144,1.144,0,0,0-.951-1.778H43.355a1.143,1.143,0,0,0-.951,1.778l3.161,4.742a3.429,3.429,0,0,0,5.049.732l4.172-3.477,4.172,3.477a3.429,3.429,0,0,0,5.049-.732Zm-10.6.509h7.51l-1.976,2.965a1.143,1.143,0,0,1-1.683.244Zm-3.571,0L49.15,71.36a1.143,1.143,0,0,1-1.683-.244l-1.976-2.965Z" data-name="Path 33606" fill="#fff" id="Path_33606" transform="translate(-18.206 -22.425)"/>
  </g>
</svg>
