<svg fill="none" height="75" viewBox="0 0 75 75" width="75" xmlns="http://www.w3.org/2000/svg">
<rect height="75" width="75" />
<path d="M21.3353 44.5787H12.6341C11.9549 39.6074 8.01638 35.6689 3.04501 34.9902V30.6343C8.01638 29.955 11.9549 26.0165 12.6341 21.0451H32.9813C33.6606 26.0165 37.598 29.955 42.5699 30.6343V31.7161C42.5699 32.5568 43.2523 33.2386 44.0925 33.2386C44.9332 33.2386 45.615 32.5562 45.615 31.7161V21.1588C45.615 19.4169 44.1992 18 42.4577 18H3.15826C1.41639 18 0 19.4169 0 21.1588V44.4658C0 46.2072 1.41694 47.6231 3.15826 47.6231H21.3356C22.1763 47.6231 22.8582 46.9406 22.8582 46.1005C22.8582 45.2598 22.1763 44.5785 21.3356 44.5785L21.3353 44.5787ZM42.5689 21.1589V27.5573C39.2779 26.9344 36.6808 24.3368 36.0579 21.0453H42.4568C42.5189 21.0453 42.5688 21.0963 42.5688 21.1589L42.5689 21.1589ZM3.15799 21.0453H9.5569C8.93395 24.3375 6.33691 26.9344 3.04487 27.5573V21.1589C3.04434 21.0963 3.09532 21.0453 3.15799 21.0453L3.15799 21.0453ZM3.04434 44.4664V38.0675C6.33543 38.6905 8.93341 41.2875 9.55636 44.5796L3.158 44.579C3.0948 44.5785 3.04435 44.5296 3.04435 44.4664L3.04434 44.4664Z" fill="white"/>
<path d="M16.9844 32.0973C16.9844 35.3087 19.5973 37.9216 22.8087 37.9216C26.0202 37.9216 28.6325 35.3087 28.6325 32.0973C28.6325 28.8858 26.0196 26.2734 22.8087 26.2734C19.5973 26.2729 16.9844 28.8858 16.9844 32.0973V32.0973ZM25.5873 32.0973C25.5873 33.6299 24.3408 34.8763 22.8091 34.8763C21.2765 34.8763 20.0301 33.6294 20.0301 32.0973C20.0301 30.5656 21.277 29.3191 22.8091 29.3191C24.3403 29.3186 25.5873 30.5645 25.5873 32.0973V32.0973Z" fill="white"/>
<path d="M9.73742 31.2891C8.89672 31.2891 8.21484 31.9715 8.21484 32.8116C8.21484 33.6523 8.89728 34.3342 9.73742 34.3342H11.7216C12.5623 34.3342 13.2441 33.6518 13.2441 32.8116C13.2441 31.9709 12.5617 31.2891 11.7216 31.2891H9.73742Z" fill="white"/>
<path d="M35.8774 31.2891H33.8917C33.051 31.2891 32.3691 31.9715 32.3691 32.8116C32.3691 33.6523 33.0516 34.3342 33.8917 34.3342H35.8774C36.7181 34.3342 37.3999 33.6518 37.3999 32.8116C37.3999 31.9715 36.7186 31.2891 35.8774 31.2891Z" fill="white"/>
<path d="M32.9799 40.8047H26.0929C25.2522 40.8047 24.5703 41.4871 24.5703 42.3273V55.6143C24.5703 56.455 25.2527 57.1368 26.0929 57.1368H32.9799C33.8206 57.1368 34.5025 56.4544 34.5025 55.6143V42.3273C34.5025 41.4866 33.8205 40.8047 32.9799 40.8047ZM31.4573 54.0917H27.6155V43.8498H31.4573V54.0917Z" fill="white"/>
<path d="M46.4779 36.1836H39.5909C38.7502 36.1836 38.0684 36.866 38.0684 37.7062V55.6143C38.0684 56.455 38.7508 57.1369 39.5909 57.1369H46.4779C47.3186 57.1369 48.0005 56.4544 48.0005 55.6143L48.001 37.7062C48.001 36.8649 47.3186 36.1836 46.4779 36.1836H46.4779ZM44.9554 54.0904H41.1135V39.229H44.9554V54.0904Z" fill="white"/>
<path d="M59.979 26.2695H53.0909C52.2502 26.2695 51.5684 26.952 51.5684 27.7921V55.6142C51.5684 56.4549 52.2508 57.1367 53.0909 57.1367H59.979C60.8197 57.1367 61.5016 56.4543 61.5016 55.6142V27.7921C61.5016 26.9514 60.8202 26.2695 59.979 26.2695ZM58.4559 54.0916H54.6135V29.3149H58.4559V54.0916Z" fill="white"/>
<path d="M73.4779 44H66.5909C65.7502 44 65.0684 44.6824 65.0684 45.5226V55.6104C65.0684 56.4511 65.7508 57.133 66.5909 57.133H73.4779C74.3186 57.133 75.0005 56.4505 75.0005 55.6104V45.5226C75.0005 44.6819 74.3181 44 73.4779 44ZM71.9554 54.0878H68.1135V47.0451H71.9554V54.0878Z" fill="white"/>
</svg>
