<svg height="100" viewBox="0 0 100 100" width="100" xmlns="http://www.w3.org/2000/svg">
  <g data-name="Group 13613" id="Group_13613" transform="translate(-564 -241)">
    <rect data-name="Rectangle 3888" fill="#00c0ef" height="100" id="Rectangle_3888" rx="10" transform="translate(564 241)" width="100"/>
    <path d="M36.542,0A36.542,36.542,0,1,0,73.084,36.542,36.576,36.576,0,0,0,36.542,0Zm0,68.516A31.974,31.974,0,1,1,68.516,36.542,32.013,32.013,0,0,1,36.542,68.516ZM57.5,24.181,33.8,51.872a2.282,2.282,0,0,1-1.584.8H32.06a2.267,2.267,0,0,1-1.513-.571L15.8,39.04a2.285,2.285,0,1,1,3.026-3.426l13,11.519L54.014,21.2A2.293,2.293,0,1,1,57.5,24.181Z" data-name="Path 102521" fill="#fff" id="Path_102521" transform="translate(577 254)"/>
  </g>
</svg>
