<?xml version="1.0" encoding="utf-8"?>
<!-- Generator: Adobe Illustrator 22.0.0, SVG Export Plug-In . SVG Version: 6.00 Build 0)  -->
<svg id="Layer_1" style="enable-background:new 0 0 307.7 318.8;" version="1.1" viewBox="0 0 307.7 318.8" x="0px" xml:space="preserve"
	 xmlns="http://www.w3.org/2000/svg" xmlns:xlink="http://www.w3.org/1999/xlink" y="0px">
<g>
	<g>
		<g>
			<path d="M266,108.8H220l-8.8,26.3h-27.9L230.7,7.6h24.3l47.7,127.5h-27.9L266,108.8z M227.1,87.5h31.9l-16-47.7L227.1,87.5z"/>
		</g>
		<g>
			<path d="M221.9,289.6h64.3v21.1H189v-15.4l63.1-90.8h-63v-21.3h95.6v15.1L221.9,289.6z"/>
		</g>
	</g>
	<g id="Layer_2_3_">
		<path d="M159.9,224.3c-4.2-4.2-11.1-4.2-15.3,0l-50.3,49.5V18.1c0-6-4.9-10.8-10.8-10.8c-6,0-10.8,4.9-10.8,10.8v255.3l-49.1-49.1
			c-4.2-4.3-11.1-4.3-15.3-0.1c0,0,0,0-0.1,0.1c-4.2,4.2-4.2,11.1,0,15.3l69.1,69.1c3.8,3.8,10,3.8,13.8,0l69-69.1
			C163.8,235.4,163.6,228.7,159.9,224.3z"/>
	</g>
</g>
</svg>
