<svg fill="none" height="76" viewBox="0 0 75 76" width="75" xmlns="http://www.w3.org/2000/svg">
<rect height="75" width="75"/>
<path clip-rule="evenodd" d="M19.2739 42.7259C23.2215 42.7259 26.0079 46.441 24.1502 52.7105C24.1502 58.5157 20.6669 63.1597 16.4875 63.1597C12.3079 63.1597 9.05724 58.5157 9.05724 52.7105C6.03845 44.1189 14.6299 37.1533 19.2739 42.7259ZM27.401 55.7295L26.0078 53.175L36.2244 47.3698V36.2238H39.0108V47.3698L49.2274 53.175L47.8342 55.7295L37.6176 49.9243L27.401 55.7295ZM37.1533 0C39.4752 0 42.2616 0.928792 43.6548 3.48328C45.2804 4.18015 44.816 7.89527 43.8872 10.2173C43.8872 16.0225 40.8684 20.6665 37.1532 20.6665C33.4379 20.6665 30.4192 16.0225 30.4192 10.2173C29.2579 5.80533 29.9548 3.25145 32.2767 1.85825C33.9023 0.929455 35.0631 0.000690403 37.1531 0.000690403L37.1533 0ZM23.9178 24.1484L32.9738 19.9688L33.4382 27.399L35.2957 33.6685L36.9213 26.9345L35.5281 25.3089L37.6182 23.4514L39.7083 25.3089L38.3151 26.9345L39.7083 33.6685L41.5658 27.399L42.0302 19.9688L51.0862 24.1484C54.105 25.5416 53.4081 29.9536 53.4081 34.365H21.5964C21.5964 29.953 20.8996 25.5416 23.9183 24.1484H23.9178ZM42.2614 5.34084C42.4939 7.89527 43.1902 8.12724 43.1902 10.2172C43.1902 15.558 40.4038 19.7375 37.1531 19.7375C33.9023 19.7375 31.3479 15.7899 31.3479 10.4496C31.3479 8.35949 32.0447 7.89513 32.0447 4.8769C32.0447 4.64443 38.0819 7.89569 42.2614 5.34129L42.2614 5.34084ZM63.8554 61.0703C62.4622 62.2316 61.069 62.6959 59.4434 62.6959C58.0502 62.6959 56.657 62.2315 55.2638 61.0703L54.7994 62.6959C54.1025 64.0891 52.9418 65.4823 51.7806 66.1792L51.0837 68.9656L53.8701 69.43L52.4769 71.9844L59.4428 75.2352H75C75 70.3588 75 68.0368 72.6781 65.9472L69.8917 64.0897C69.1948 62.9284 68.7304 61.0709 68.7304 58.517V48.7647C68.7304 44.8171 64.5508 40.4057 59.4425 40.6376C54.5662 40.4052 50.3865 44.8172 50.3865 48.7647V58.517C50.3865 61.0715 49.9222 62.929 49.2253 64.0897L46.4389 65.9472C44.117 68.0373 44.117 70.3592 44.117 75.2352H59.4422L66.6406 71.9844L65.2474 69.43L68.0338 68.9656L67.3369 66.1792C66.1757 65.4823 65.015 64.0891 64.3181 62.6959L63.8537 61.0703H63.8554ZM65.7129 50.6212L60.8366 49.4599C59.211 50.6212 56.657 51.55 53.1738 51.7818C53.1738 57.1226 55.9602 61.5341 59.4434 61.5341C63.1585 61.5341 65.9449 57.1221 65.9449 51.7818C65.9449 51.3174 65.9449 51.0849 65.7124 50.6205L65.7129 50.6212ZM0.696366 68.9648C2.55392 66.4103 7.19788 65.0171 10.4486 63.8564L11.6099 62.6952L16.4862 65.4816L21.5946 62.6952L22.5234 63.8564C26.0066 65.0177 30.6505 66.4109 32.508 68.9648L33.2049 75.2343H0L0.696863 68.9648H0.696366ZM13.2355 64.7851L15.093 65.7139H18.1118L19.7374 64.7851V68.2684L18.1118 67.3396H15.093L13.2355 68.2684V64.7851ZM19.737 47.3708C20.8982 50.3896 22.7558 47.6033 22.7558 52.7116C22.7558 57.82 19.9694 61.7676 16.4862 61.7676C13.0029 61.7676 10.2167 57.82 10.2167 52.7116C10.2167 50.6216 10.4491 49.2284 12.0742 48.9965C14.3961 48.5321 18.8083 49.9253 19.737 47.3709V47.3708Z" fill="white" fill-rule="evenodd"/>
</svg>
