<svg height="33" viewBox="0 0 33 33" width="33" xmlns="http://www.w3.org/2000/svg"><defs><style>.a{fill:#6f42c1;}</style></defs><path class="a" d="M29.893,15.355V3.038a.967.967,0,0,0-.967-.967H24.2V.967a.967.967,0,0,0-1.934,0v1.1H15.913V.967a.967.967,0,0,0-1.934,0v1.1H7.629V.967A.967.967,0,1,0,5.7.967v1.1H.967A.967.967,0,0,0,0,3.038V28.927a.967.967,0,0,0,.967.967H15.355A10.281,10.281,0,1,0,29.893,15.355ZM1.934,4H27.96v4.28H1.934Zm0,23.955V10.218H27.96v3.65A10.282,10.282,0,0,0,13.869,27.96H1.934Zm20.78,3.107a8.353,8.353,0,1,1,8.353-8.353A8.363,8.363,0,0,1,22.713,31.066Z"/><g transform="translate(21.746 18.64)"><path class="a" d="M341.473,292.307h-2.14v-2.14a.967.967,0,0,0-1.934,0v3.107a.967.967,0,0,0,.967.967h3.107a.967.967,0,0,0,0-1.934Z" transform="translate(-337.4 -289.2)"/></g></svg>
