<svg data-name="calendar (1)" height="33" id="calendar_1_" viewBox="0 0 33 33" width="33" xmlns="http://www.w3.org/2000/svg">
  <g data-name="Group 580" id="Group_580">
    <g data-name="Group 579" id="Group_579">
      <path d="M29.893,15.355V3.038a.967.967,0,0,0-.967-.967H24.2V.967a.967.967,0,0,0-1.934,0v1.1H15.913V.967a.967.967,0,0,0-1.934,0v1.1H7.629V.967A.967.967,0,1,0,5.7.967v1.1H.967A.967.967,0,0,0,0,3.038V28.927a.967.967,0,0,0,.967.967H15.355A10.281,10.281,0,1,0,29.893,15.355ZM1.934,4H27.96v4.28H1.934Zm0,23.955V10.218H27.96v3.65A10.282,10.282,0,0,0,13.869,27.96H1.934Zm20.78,3.107a8.353,8.353,0,1,1,8.353-8.353A8.363,8.363,0,0,1,22.713,31.066Z" data-name="Path 25098" fill="#e3151f" id="Path_25098"/>
    </g>
  </g>
  <g data-name="Group 582" id="Group_582" transform="translate(21.746 18.64)">
    <g data-name="Group 581" id="Group_581">
      <path d="M341.473,292.307h-2.14v-2.14a.967.967,0,0,0-1.934,0v3.107a.967.967,0,0,0,.967.967h3.107a.967.967,0,0,0,0-1.934Z" data-name="Path 25099" fill="#e3151f" id="Path_25099" transform="translate(-337.4 -289.2)"/>
    </g>
  </g>
</svg>
