<svg fill="none" height="75" viewBox="0 0 78 75" width="78" xmlns="http://www.w3.org/2000/svg">
<rect height="75" width="75"/>
<path clip-rule="evenodd" d="M4.4604 68.9081C3.90029 68.9081 3.44531 68.4537 3.44531 67.893V7.11275C3.44531 6.55203 3.89969 6.09766 4.4604 6.09766C5.02293 6.09766 5.4755 6.55263 5.4755 7.11275V67.893C5.4755 68.4537 5.02233 68.9081 4.4604 68.9081ZM73.3706 68.9081C72.8099 68.9081 72.3567 68.4537 72.3567 67.893V7.11275C72.3567 6.55203 72.8093 6.09766 73.37 6.09766C73.9326 6.09766 74.3851 6.55263 74.3851 7.11275V67.893C74.3851 68.4537 73.9319 68.9081 73.37 68.9081H73.3706Z" fill="white" fill-rule="evenodd"/>
<path clip-rule="evenodd" d="M2.03134 72.971H75.8001V68.9052H2.03134V72.971ZM76.8148 74.9993H1.01509C0.454374 74.9993 0 74.5462 0 73.9861V67.8901C0 67.33 0.454374 66.875 1.01509 66.875H76.8148C77.3749 66.875 77.8299 67.33 77.8299 67.8901V73.9861C77.8299 74.5462 77.3749 74.9993 76.8148 74.9993Z" fill="white" fill-rule="evenodd"/>
<path clip-rule="evenodd" d="M2.03134 6.09596H75.8001V2.03018H2.03134V6.09596ZM76.8148 8.12615H1.01509C0.454374 8.12615 0 7.67177 0 7.11106V1.01509C0 0.454978 0.454374 0 1.01509 0H76.8148C77.3749 0 77.8299 0.454978 77.8299 1.01509V7.11106C77.8299 7.67117 77.3749 8.12615 76.8148 8.12615Z" fill="white" fill-rule="evenodd"/>
<path clip-rule="evenodd" d="M25.4356 60.7621H52.3934V33.8044H25.4356V60.7621ZM53.4081 62.7923H24.4194C23.8593 62.7923 23.4043 62.3379 23.4043 61.7772V32.7885C23.4043 32.2278 23.8587 31.7734 24.4194 31.7734H53.4081C53.9682 31.7734 54.4232 32.2284 54.4232 32.7885V61.7772C54.4232 62.3379 53.9682 62.7923 53.4081 62.7923Z" fill="white" fill-rule="evenodd"/>
<path clip-rule="evenodd" d="M53.4081 56.2763H24.4194C23.8593 56.2763 23.4043 55.8219 23.4043 55.2612C23.4043 54.7005 23.8587 54.2461 24.4194 54.2461H53.4081C53.9682 54.2461 54.4232 54.7011 54.4232 55.2612C54.4232 55.8213 53.9682 56.2763 53.4081 56.2763V56.2763Z" fill="white" fill-rule="evenodd"/>
<path clip-rule="evenodd" d="M42.8815 39.2216H34.9493C34.3886 39.2216 33.9336 38.7672 33.9336 38.2065C33.9342 37.6458 34.388 37.1914 34.9487 37.1914H42.8809C43.441 37.1914 43.896 37.6464 43.896 38.2065C43.896 38.7666 43.4416 39.2216 42.8809 39.2216H42.8815Z" fill="white" fill-rule="evenodd"/>
<path clip-rule="evenodd" d="M42.8815 43.1552H34.9493C34.3886 43.1552 33.9336 42.7002 33.9336 42.1401C33.9342 41.5794 34.388 41.125 34.9487 41.125H42.8809C43.441 41.125 43.896 41.58 43.896 42.1401C43.896 42.7002 43.4416 43.1552 42.8809 43.1552H42.8815Z" fill="white" fill-rule="evenodd"/>
<path clip-rule="evenodd" d="M17.5026 14.2372C14.3443 14.2372 11.7763 16.8069 11.7763 19.9646C11.7769 23.121 14.3437 25.6902 17.5019 25.6902C20.6583 25.6902 23.2276 23.1205 23.2276 19.9646C23.2282 16.8063 20.6579 14.2372 17.5019 14.2372H17.5026ZM17.5026 27.7204C13.2253 27.7204 9.74609 24.2401 9.74609 19.9646C9.7467 15.6873 13.2246 12.207 17.5019 12.207C21.7793 12.207 25.2578 15.6873 25.2578 19.9646C25.2584 24.2401 21.7787 27.7204 17.5019 27.7204H17.5026Z" fill="white" fill-rule="evenodd"/>
<path clip-rule="evenodd" d="M16.0385 23.026C15.9938 23.026 15.9503 23.0223 15.9062 23.0175C15.5944 22.9752 15.3176 22.7921 15.1605 22.519L13.9938 20.499C13.7134 20.0126 13.879 19.3921 14.3654 19.1123C14.8524 18.832 15.4723 18.9975 15.7521 19.4839L16.2566 20.3582L19.4107 17.2035C19.807 16.8072 20.4487 16.8072 20.8451 17.2035C21.2421 17.5999 21.2415 18.2434 20.8451 18.6398L16.7569 22.7286C16.5647 22.9207 16.3055 23.0265 16.0379 23.0265L16.0385 23.026Z" fill="white" fill-rule="evenodd"/>
<path clip-rule="evenodd" d="M38.9157 14.2372C35.7575 14.2372 33.1884 16.8069 33.1884 19.9646C33.189 23.121 35.7575 25.6902 38.9157 25.6902C42.0722 25.6902 44.6414 23.1205 44.6414 19.9646C44.6414 16.8063 42.0717 14.2372 38.9157 14.2372ZM38.9157 27.7204C34.6385 27.7204 31.1582 24.2401 31.1582 19.9646C31.1588 15.6873 34.6385 12.207 38.9157 12.207C43.1913 12.207 46.6716 15.6873 46.6716 19.9646C46.6716 24.2401 43.1913 27.7204 38.9157 27.7204Z" fill="white" fill-rule="evenodd"/>
<path clip-rule="evenodd" d="M37.4523 23.026C37.4081 23.026 37.364 23.0223 37.3199 23.0175C37.0063 22.9752 36.7314 22.7921 36.5725 22.519L35.4076 20.499C35.1278 20.0126 35.2928 19.3921 35.7792 19.1123C36.2644 18.832 36.8843 18.9975 37.164 19.4839L37.6698 20.3582L40.8226 17.2035C41.219 16.8072 41.8625 16.8072 42.2589 17.2035C42.6558 17.5999 42.6552 18.2434 42.2589 18.6398L38.169 22.7286C37.9786 22.9207 37.7194 23.0265 37.4518 23.0265L37.4523 23.026Z" fill="white" fill-rule="evenodd"/>
<path clip-rule="evenodd" d="M60.3268 14.2372C57.1704 14.2372 54.6005 16.8069 54.6005 19.9646C54.6005 23.121 57.1702 25.6902 60.3262 25.6902C63.4844 25.6902 66.0518 23.1205 66.0518 19.9646C66.0518 16.8063 63.4838 14.2372 60.3262 14.2372H60.3268ZM60.3268 27.7204C56.0495 27.7204 52.5703 24.2401 52.5703 19.9646C52.5703 15.6873 56.0488 12.207 60.3262 12.207C64.6034 12.207 68.082 15.6873 68.082 19.9646C68.082 24.2401 64.6035 27.7204 60.3262 27.7204H60.3268Z" fill="white" fill-rule="evenodd"/>
<path clip-rule="evenodd" d="M58.8678 23.026C58.823 23.026 58.7795 23.0223 58.7354 23.0175C58.4218 22.9752 58.1451 22.7921 57.988 22.519L56.8213 20.499C56.5415 20.0126 56.7083 19.3921 57.1928 19.1123C57.6792 18.832 58.2998 18.9975 58.5795 19.4839L59.0834 20.3582L62.2382 17.2035C62.6345 16.8072 63.2756 16.8072 63.6726 17.2035C64.0695 17.5999 64.0689 18.2434 63.6726 18.6398L59.5837 22.7286C59.3916 22.9207 59.1324 23.0265 58.8665 23.0265L58.8678 23.026Z" fill="white" fill-rule="evenodd"/>
</svg>
