<svg height="24.601" viewBox="0 0 24.601 24.601" width="24.601" xmlns="http://www.w3.org/2000/svg">
  <g id="date" transform="translate(0.25 0.25)">
    <g data-name="Group 13511" id="Group_13511">
      <g data-name="Group 13510" id="Group_13510">
        <path d="M21.518,2.582H18.936V.861a.861.861,0,1,0-1.722,0V2.582H6.886V.861a.861.861,0,1,0-1.721,0V2.582H2.582A2.582,2.582,0,0,0,0,5.164V21.518A2.582,2.582,0,0,0,2.582,24.1H21.518A2.582,2.582,0,0,0,24.1,21.518V5.164A2.582,2.582,0,0,0,21.518,2.582Zm.861,18.936a.861.861,0,0,1-.861.861H2.582a.861.861,0,0,1-.861-.861V10.329H22.379Zm0-12.911H1.721V5.164A.861.861,0,0,1,2.582,4.3H5.164V6.025a.861.861,0,0,0,1.722,0V4.3H17.215V6.025a.861.861,0,0,0,1.722,0V4.3h2.582a.861.861,0,0,1,.861.861V8.607Z" data-name="Path 102519" fill="#5b5b5b" id="Path_102519" stroke="#5b5b5b" stroke-width="0.5"/>
      </g>
    </g>
    <g data-name="Group 13513" id="Group_13513" transform="translate(6.036 12.061)">
      <g data-name="Group 13512" id="Group_13512">
        <path d="M131.442,239.385a.861.861,0,0,0-1.2,0l-6.277,6.277-2.834-2.834a.861.861,0,0,0-1.217,1.217l3.443,3.443a.861.861,0,0,0,1.217,0l6.886-6.886A.861.861,0,0,0,131.442,239.385Z" data-name="Path 102520" fill="#5b5b5b" id="Path_102520" stroke="#5b5b5b" stroke-width="0.5" transform="translate(-119.676 -239.143)"/>
      </g>
    </g>
  </g>
</svg>
