<svg height="31.653" viewBox="0 0 30.663 31.653" width="30.663" xmlns="http://www.w3.org/2000/svg">
  <g id="development" transform="translate(0.3 0.3)">
    <g data-name="Group 75" id="Group_75" transform="translate(13.93 7.46)">
      <g data-name="Group 74" id="Group_74" transform="translate(0 0)">
        <path d="M228.889,112.427H227.3c-.032-.08-.065-.16-.1-.24l1.123-1.122a.576.576,0,0,0,0-.815l-2.445-2.445a.576.576,0,0,0-.815,0l-1.122,1.123c-.08-.035-.16-.069-.24-.1v-1.586a.576.576,0,0,0-.576-.576h-3.457a.576.576,0,0,0-.576.576v1.586c-.08.032-.16.066-.24.1l-1.122-1.123a.576.576,0,0,0-.815,0l-2.445,2.445a.576.576,0,0,0,0,.815l1.123,1.122c-.036.08-.069.16-.1.24h-1.587a.576.576,0,0,0-.576.576v3.457a.576.576,0,0,0,.576.576H215.5c.032.08.065.16.1.24l-1.123,1.122a.576.576,0,0,0,0,.815l2.445,2.445a.576.576,0,0,0,.815,0l1.122-1.123c.08.035.16.069.24.1v1.586a.576.576,0,0,0,.576.576h3.457a.576.576,0,0,0,.576-.576v-1.586c.08-.032.16-.066.24-.1l1.122,1.123a.576.576,0,0,0,.815,0l2.445-2.445a.576.576,0,0,0,0-.815l-1.123-1.122c.036-.08.069-.16.1-.24h1.587a.576.576,0,0,0,.576-.576V113A.576.576,0,0,0,228.889,112.427Zm-.576,3.457H226.9a.576.576,0,0,0-.55.4,5.234,5.234,0,0,1-.351.84.576.576,0,0,0,.1.674l1,1-1.63,1.63-1-1a.576.576,0,0,0-.674-.1,5.154,5.154,0,0,1-.841.352.576.576,0,0,0-.4.55v1.417h-2.3v-1.416a.576.576,0,0,0-.4-.55,5.167,5.167,0,0,1-.841-.351.576.576,0,0,0-.674.1l-1,1-1.63-1.63,1-1a.576.576,0,0,0,.1-.674,5.228,5.228,0,0,1-.351-.84.576.576,0,0,0-.55-.4h-1.417v-2.3H215.9a.576.576,0,0,0,.55-.4,5.235,5.235,0,0,1,.351-.84.576.576,0,0,0-.1-.674l-1-1,1.63-1.63,1,1a.576.576,0,0,0,.674.1,5.154,5.154,0,0,1,.841-.351.576.576,0,0,0,.4-.55v-1.417h2.3v1.416a.576.576,0,0,0,.4.55,5.161,5.161,0,0,1,.841.351.576.576,0,0,0,.674-.1l1-1,1.63,1.63-1,1a.576.576,0,0,0-.1.674,5.24,5.24,0,0,1,.352.84.576.576,0,0,0,.55.4h1.417v2.3Z" data-name="Path 47" fill="#007bff" id="Path_47" stroke="#007bff" stroke-width="0.6" transform="translate(-213.333 -106.665)"/>
      </g>
    </g>
    <g data-name="Group 77" id="Group_77" transform="translate(19.115 12.646)">
      <g data-name="Group 76" id="Group_76" transform="translate(0 0)">
        <path d="M312.215,202.667a2.881,2.881,0,1,0,2.881,2.881A2.881,2.881,0,0,0,312.215,202.667Zm0,4.609a1.728,1.728,0,1,1,1.728-1.729A1.729,1.729,0,0,1,312.215,207.276Z" data-name="Path 48" fill="#007bff" id="Path_48" stroke="#007bff" stroke-width="0.6" transform="translate(-309.334 -202.667)"/>
      </g>
    </g>
    <g data-name="Group 79" id="Group_79" transform="translate(0)">
      <g data-name="Group 78" id="Group_78">
        <path d="M23.29,5.176V3.235A3.239,3.239,0,0,0,20.055,0H5.822a.647.647,0,0,0-.457.19L.19,5.365A.647.647,0,0,0,0,5.822v22a3.239,3.239,0,0,0,3.235,3.235H20.055a3.239,3.239,0,0,0,3.235-3.235V25.878H22v1.941a1.941,1.941,0,0,1-1.941,1.941H3.235a1.941,1.941,0,0,1-1.941-1.941V6.09l4.8-4.8H20.055A1.941,1.941,0,0,1,22,3.235V5.176Z" data-name="Path 49" fill="#007bff" id="Path_49" stroke="#007bff" stroke-width="0.6" transform="translate(0)"/>
      </g>
    </g>
    <g data-name="Group 81" id="Group_81" transform="translate(3.235 0.647)">
      <g data-name="Group 80" id="Group_80">
        <path d="M55.274,10.667v3.882a.647.647,0,0,1-.647.647H53.333v1.294h1.294a1.941,1.941,0,0,0,1.941-1.941V10.667Z" data-name="Path 50" fill="#007bff" id="Path_50" stroke="#007bff" stroke-width="0.6" transform="translate(-53.333 -10.667)"/>
      </g>
    </g>
    <g data-name="Group 83" id="Group_83" transform="translate(5.822 14.88)">
      <g data-name="Group 82" id="Group_82">
        <rect data-name="Rectangle 103" fill="#007bff" height="1.294" id="Rectangle_103" stroke="#007bff" stroke-width="0.6" width="5.822"/>
      </g>
    </g>
    <g data-name="Group 85" id="Group_85" transform="translate(3.235 14.88)">
      <g data-name="Group 84" id="Group_84">
        <rect data-name="Rectangle 104" fill="#007bff" height="1.294" id="Rectangle_104" stroke="#007bff" stroke-width="0.6" width="1.294"/>
      </g>
    </g>
    <g data-name="Group 87" id="Group_87" transform="translate(7.116 19.408)">
      <g data-name="Group 86" id="Group_86">
        <rect data-name="Rectangle 105" fill="#007bff" height="1.294" id="Rectangle_105" stroke="#007bff" stroke-width="0.6" width="5.176"/>
      </g>
    </g>
    <g data-name="Group 89" id="Group_89" transform="translate(4.529 19.408)">
      <g data-name="Group 88" id="Group_88">
        <rect data-name="Rectangle 106" fill="#007bff" height="1.294" id="Rectangle_106" stroke="#007bff" stroke-width="0.6" width="1.294"/>
      </g>
    </g>
    <g data-name="Group 91" id="Group_91" transform="translate(7.116 10.351)">
      <g data-name="Group 90" id="Group_90">
        <rect data-name="Rectangle 107" fill="#007bff" height="1.294" id="Rectangle_107" stroke="#007bff" stroke-width="0.6" width="5.176"/>
      </g>
    </g>
    <g data-name="Group 93" id="Group_93" transform="translate(4.529 10.351)">
      <g data-name="Group 92" id="Group_92">
        <rect data-name="Rectangle 108" fill="#007bff" height="1.294" id="Rectangle_108" stroke="#007bff" stroke-width="0.6" width="1.294"/>
      </g>
    </g>
    <g data-name="Group 95" id="Group_95" transform="translate(2.588 25.231)">
      <g data-name="Group 94" id="Group_94">
        <path d="M44.608,417.941a.647.647,0,0,1-.647-.647V416H42.667v1.294a1.941,1.941,0,0,0,1.941,1.941H45.9v-1.294Z" data-name="Path 51" fill="#007bff" id="Path_51" stroke="#007bff" stroke-width="0.6" transform="translate(-42.667 -416)"/>
      </g>
    </g>
    <g data-name="Group 97" id="Group_97" transform="translate(7.116 27.172)">
      <g data-name="Group 96" id="Group_96">
        <rect data-name="Rectangle 109" fill="#007bff" height="1.294" id="Rectangle_109" stroke="#007bff" stroke-width="0.6" width="1.294"/>
      </g>
    </g>
  </g>
</svg>
