<svg fill="none" height="38" viewBox="0 0 38 38" width="38" xmlns="http://www.w3.org/2000/svg">
<path d="M26.318 12.0212C26.0641 12.0212 25.8093 12.0191 25.5547 12.0139L25.5329 12.0135C24.7553 11.9975 23.8739 11.9795 23.0341 11.7149C21.8857 11.3533 20.8669 10.6646 20.0879 9.72339C19.2674 8.73229 18.7489 7.53995 18.6279 6.36595C18.511 5.23299 18.5246 4.10716 18.5378 3.01838C18.542 2.67831 18.5462 2.32667 18.5462 1.98438H20.699C20.699 2.33966 20.6946 2.69798 20.6904 3.04443C20.6774 4.11963 20.6651 5.13522 20.7693 6.1451C20.846 6.88952 21.2021 7.69339 21.7463 8.35066C22.2528 8.96264 22.9399 9.42823 23.6809 9.66155C24.2266 9.83348 24.9132 9.84758 25.5772 9.86117L25.5991 9.86161C26.2984 9.87609 27.0188 9.8648 27.7152 9.85396C28.1822 9.84669 28.6651 9.83919 29.1442 9.83919V11.992C28.6818 11.992 28.2075 11.9994 27.7486 12.0064C27.2797 12.0138 26.8004 12.0212 26.318 12.0212V12.0212Z" fill="#CE2029"/>
<path d="M19.9183 34.6462C19.5898 34.6462 19.2693 34.517 19.0324 34.2827C18.7467 34.0002 18.6121 33.5943 18.6724 33.1968L19.4698 27.9484C19.5102 27.6823 19.6317 27.4408 19.821 27.2499L31.4812 15.4971C31.7194 15.2571 32.0364 15.125 32.3742 15.125C32.712 15.125 33.029 15.2571 33.2671 15.497L37.6359 19.9007C38.1217 20.39 38.1219 21.1867 37.636 21.6766L25.9744 33.4311C25.7862 33.6203 25.5477 33.7429 25.2848 33.7858L20.1195 34.6298C20.0526 34.6408 19.9853 34.6462 19.9183 34.6462V34.6462ZM21.5546 28.5594L20.9851 32.3071L24.6514 31.708L35.4845 20.7886L32.3743 17.6535L21.5546 28.5594Z" fill="#CE2029"/>
<path d="M29.2793 19.25L30.8078 17.7344L35.4324 22.3984L33.9039 23.914L29.2793 19.25Z" fill="#CE2029"/>
<path d="M19.7725 28.8203L21.3009 27.3048L25.9255 31.9688L24.397 33.4843L19.7725 28.8203Z" fill="#CE2029"/>
<path d="M25.5281 37.9947H5.40748C2.42581 37.9947 0 35.5137 0 32.4642V5.53694C0 4.03186 0.580656 2.62468 1.635 1.57457C2.65601 0.557644 4.00268 -0.00163314 5.42864 0.00653257L19.9831 0L20.0195 0.00244971C20.7106 0.0489942 21.3815 0.217059 22.0136 0.501894C22.6523 0.789772 23.2288 1.18677 23.7272 1.68184L23.7403 1.69513L29.3622 7.47674C30.3767 8.5201 30.9353 9.90508 30.9353 11.3766V13.8218C30.9353 14.4163 30.4534 14.8982 29.8589 14.8982C29.2645 14.8982 28.7826 14.4163 28.7826 13.8218V11.3766C28.7826 10.4819 28.4313 9.6074 27.8188 8.97753L22.2038 3.20304C21.8906 2.89333 21.529 2.64495 21.129 2.46463C20.7418 2.29011 20.3314 2.18529 19.9088 2.15293L5.42485 2.15931C5.42062 2.15931 5.41617 2.15931 5.41193 2.15931C4.56307 2.15931 3.7635 2.49299 3.15426 3.09985C2.50851 3.74309 2.15285 4.60858 2.15285 5.53702V32.4642C2.15285 34.3266 3.61288 35.8419 5.40755 35.8419H25.5281C27.3227 35.8419 28.7827 34.3266 28.7827 32.4642C28.7827 31.8697 29.2646 31.3878 29.8591 31.3878C30.4536 31.3878 30.9355 31.8697 30.9355 32.4642C30.9354 35.5138 28.5098 37.9947 25.5281 37.9947V37.9947Z" fill="#CE2029"/>
<path d="M17.2638 13.0981H7.54319C6.94872 13.0981 6.4668 12.6162 6.4668 12.0217C6.4668 11.4272 6.94872 10.9453 7.54319 10.9453H17.2639C17.8583 10.9453 18.3403 11.4272 18.3403 12.0217C18.3403 12.6162 17.8583 13.0981 17.2638 13.0981Z" fill="#CE2029"/>
<path d="M17.2638 27.5122H7.54319C6.94872 27.5122 6.4668 27.0302 6.4668 26.4358C6.4668 25.8413 6.94872 25.3594 7.54319 25.3594H17.2639C17.8583 25.3594 18.3403 25.8413 18.3403 26.4358C18.3403 27.0302 17.8583 27.5122 17.2638 27.5122Z" fill="#CE2029"/>
<path d="M22.2125 20.3012H7.67014C7.07568 20.3012 6.59375 19.8193 6.59375 19.2248C6.59375 18.6304 7.07568 18.1484 7.67014 18.1484H22.2124C22.8069 18.1484 23.2888 18.6304 23.2888 19.2248C23.2889 19.8192 22.8069 20.3012 22.2125 20.3012V20.3012Z" fill="#CE2029"/>
</svg>
