<svg height="33" viewBox="0 0 33.113 33" width="33.113" xmlns="http://www.w3.org/2000/svg"><defs><style>.a{fill:#fd7e14;}</style></defs><g transform="translate(0 -0.875)"><path class="a" d="M98.781,10.955a.968.968,0,0,0,.718-.317l4-4.4,5.573,4.118a.97.97,0,0,0,1.267-.1l5.967-6.05V8.117a.97.97,0,1,0,1.94,0V1.845a.97.97,0,0,0-.97-.97H111.4a.97.97,0,0,0,0,1.94h3.559L109.55,8.3l-5.6-4.138a.97.97,0,0,0-1.294.127L98.064,9.332a.97.97,0,0,0,.717,1.623Z" transform="translate(-91.485)"/><path class="a" d="M28.167,220.2a5.3,5.3,0,0,0-6.25-8.388,6.105,6.105,0,0,0-10.855-.066A5.3,5.3,0,0,0,4.947,220.2,7.007,7.007,0,0,0,0,226.891v.184a.97.97,0,0,0,.97.97H32.143a.97.97,0,0,0,.97-.97v-.184A7.007,7.007,0,0,0,28.167,220.2Zm-3.823-7.037a3.365,3.365,0,1,1,0,6.729H23.6a6.949,6.949,0,0,0-2.751-1.065,6.1,6.1,0,0,0,1.666-5.126,3.322,3.322,0,0,1,1.827-.539Zm-7.872-2.754a4.167,4.167,0,1,1-4.167,4.167,4.172,4.172,0,0,1,4.167-4.167Zm-7.7,2.754a3.325,3.325,0,0,1,1.672.444,6.1,6.1,0,0,0,1.672,5.243A6.95,6.95,0,0,0,9.487,219.9H8.77a3.365,3.365,0,0,1,0-6.729Zm-1.775,8.671h.53a6.953,6.953,0,0,0-1.193,3.9v.365H2A5.062,5.062,0,0,1,6.994,221.836Zm1.277,3.9a5.046,5.046,0,0,1,1.986-4.011.973.973,0,0,0,.239-.174,5.024,5.024,0,0,1,2.827-.867h2.251V226.1h-7.3v-.365Zm16.546.365h-7.3v-5.417h2.251a5.058,5.058,0,0,1,5.052,5.052Zm1.94,0v-.365a6.952,6.952,0,0,0-1.193-3.9h.555a5.062,5.062,0,0,1,4.993,4.268Z" transform="translate(0 -194.17)"/></g></svg>
