<svg height="25.043" viewBox="0 0 42.365 25.043" width="42.365" xmlns="http://www.w3.org/2000/svg">
  <g id="employees" transform="translate(14.148 -3.466)">
    <path d="M36.036,223.48a6.783,6.783,0,0,0-8-10.732,7.811,7.811,0,0,0-13.888-.085A6.782,6.782,0,0,0,6.329,223.48,8.965,8.965,0,0,0,0,232.037v.236a1.241,1.241,0,0,0,1.241,1.241H41.123a1.241,1.241,0,0,0,1.241-1.241v-.236A8.965,8.965,0,0,0,36.036,223.48Zm-4.891-9a4.3,4.3,0,1,1,0,8.609l-.033,0H30.2a8.891,8.891,0,0,0-3.52-1.363,7.8,7.8,0,0,0,2.131-6.559,4.25,4.25,0,0,1,2.338-.69Zm-10.071-3.524a5.331,5.331,0,1,1-5.331,5.331,5.337,5.337,0,0,1,5.331-5.331Zm-9.854,3.524a4.254,4.254,0,0,1,2.139.568,7.8,7.8,0,0,0,2.139,6.708,8.891,8.891,0,0,0-3.36,1.336h-.885l-.033,0a4.3,4.3,0,0,1,0-8.61ZM8.949,225.571h.678A8.9,8.9,0,0,0,8.1,230.564v.467H2.56A6.476,6.476,0,0,1,8.949,225.571Zm1.633,4.994a6.456,6.456,0,0,1,2.541-5.132,1.244,1.244,0,0,0,.306-.222,6.427,6.427,0,0,1,3.617-1.109h2.879v6.931H10.582v-.467Zm21.169.467H22.408V224.1h2.879a6.471,6.471,0,0,1,6.464,6.464Zm2.482,0v-.467a8.9,8.9,0,0,0-1.527-4.994h.709a6.476,6.476,0,0,1,6.388,5.461Z" data-name="Path 25097" fill="#fd7e14" id="Path_25097" transform="translate(-14.148 -205.005)"/>
  </g>
</svg>
