<svg height="73.035" viewBox="0 0 73.137 73.035" width="73.137" xmlns="http://www.w3.org/2000/svg">
  <g data-name="Group 9075" id="Group_9075" transform="translate(1612.745 -346.373)">
    <path d="M-1544.041,409.765a10.287,10.287,0,0,1,4.351,9.643h-72.993a9.4,9.4,0,0,1,1.421-6.368,5.472,5.472,0,0,0,.908-3.352c-.047-4.569-.015-9.138-.02-13.707a11.522,11.522,0,0,1,4.2-9.112,1.392,1.392,0,0,0,.535-1.186q-.025-12.123-.011-24.246v-.951h18.852v-9.419h4.7v-2.324h2.369V351h2.346v-4.629h2.37v4.615h2.372V348.72h2.344v2.295h4.7v9.445h18.906v.94q0,12.16-.009,24.32a1.316,1.316,0,0,0,.5,1.127,11.531,11.531,0,0,1,4.226,9.171c-.007,2.727-.062,5.455.018,8.18A6.56,6.56,0,0,1-1544.041,409.765Zm-20.548-18.642a11.866,11.866,0,0,1,6.522-6.251,11.755,11.755,0,0,1,8.989.132V362.875h-21.2v3.272q0,8.919,0,17.838c0,.33-.071.643.375.84A9.234,9.234,0,0,1-1564.589,391.123Zm-38.676-28.261v22.052c6.837-2.154,11.991-.088,15.532,6.034.228-.58.479-1.165.686-1.765a3.573,3.573,0,0,0,.253-1.118q.021-12.231.01-24.461c0-.238-.021-.476-.033-.742Zm18.862,23.083a9.067,9.067,0,0,1,5.126-1.866c1.915-.042,3.83-.012,5.746-.013h.926V360.44h4.651v-2.281H-1584.4Zm-4.739,23.434c0-4.18.006-8.453-.006-12.725a19.3,19.3,0,0,0-.133-2.2,9.474,9.474,0,0,0-9.964-8.007,9.482,9.482,0,0,0-8.772,9.7q-.009,6.335,0,12.671v.558c1.511-.48,2.96-.982,4.435-1.388a.774.774,0,0,0,.633-.842.979.979,0,0,0-.348-.669,5.851,5.851,0,0,1-2.356-4.767c0-2.308,0-4.617,0-6.925a3.909,3.909,0,0,1,.08-.948,3.339,3.339,0,0,1,2.689-2.621,3.31,3.31,0,0,1,3.553,1.4,4.764,4.764,0,0,0,4.229,2.077c1.006-.02,2.013-.006,3.02,0,.185,0,.37.036.573.057,0,2.269-.028,4.479.008,6.688a5.968,5.968,0,0,1-2.439,5.1.76.76,0,0,0-.262.63c.078.287.272.679.51.763C-1592.2,408.443-1590.687,408.893-1589.142,409.379Zm42.454-14.633v.648c0,2.136.007,4.273,0,6.409a5.832,5.832,0,0,1-2.255,4.6,1.283,1.283,0,0,0-.436.772c-.046.509.265.77.8.845s1.037.3,1.567.38a1.546,1.546,0,0,0,.946-.114,3.472,3.472,0,0,0,1.745-3.195q.014-4.641-.006-9.283a9.237,9.237,0,0,0-.181-1.754,9.487,9.487,0,0,0-9.8-7.613,9.434,9.434,0,0,0-8.857,9.081c-.092,3.239-.033,6.483-.016,9.724a3.5,3.5,0,0,0,1.371,2.812,1.383,1.383,0,0,0,1.545.315,5.589,5.589,0,0,1,1.487-.391c.529-.069.651-.426.65-.82a.97.97,0,0,0-.329-.675,5.827,5.827,0,0,1-2.3-3.808,15.593,15.593,0,0,1-.065-2.278c-.007-1.883,0-3.767,0-5.719.437,0,.8.012,1.162,0a5.374,5.374,0,0,0,4.356-2.225,2.1,2.1,0,0,0,.363-1.064c.052-.847.017-1.7.017-2.548h2.354c0,.914-.019,1.772.011,2.629a1.579,1.579,0,0,0,.238.813,5.114,5.114,0,0,0,3.546,2.274C-1548.119,394.653-1547.436,394.681-1546.688,394.746Zm-29.484,20.788c-1.033-1.379-2-2.671-2.97-3.964-1.05-1.4-1.052-1.416-2.755-.966a7.746,7.746,0,0,0-5.712,5.4,10.29,10.29,0,0,0-.224,1.054h23.5a26.466,26.466,0,0,0-1.285-2.96c-1.4-2.392-3.71-3.389-6.317-3.83-.158-.027-.414.189-.541.355C-1573.692,412.221-1574.894,413.832-1576.172,415.534Zm9.358-21.761a3.015,3.015,0,0,0,.071-.5,6.632,6.632,0,0,0-5.513-6.668,39.91,39.91,0,0,0-7.2-.1,6.369,6.369,0,0,0-5.765,4.559,4.992,4.992,0,0,0-.318,2.755c1.16-.114,2.194-.295,3.23-.3a7.346,7.346,0,0,0,5.6-2.339c.163-.174.349-.327.664-.619a10.873,10.873,0,0,0,.761.942,6.936,6.936,0,0,0,4.622,1.993C-1569.414,393.574-1568.162,393.675-1566.814,393.773Zm-27.272,16.555a4.651,4.651,0,0,1-4.454,3.209,4.683,4.683,0,0,1-4.544-3.2c-4.12.824-6.98,3.518-7.121,6.72h19.782l1.424-4.174A8.356,8.356,0,0,0-1594.086,410.327Zm13.2-14.248c0,1.843-.052,3.855.016,5.864a3.347,3.347,0,0,0,2.885,3.245,17.114,17.114,0,0,0,2.934.1,3.424,3.424,0,0,0,3.539-3.166c.135-2.072.031-4.16.031-6.045l-4.681-1.913Zm-12.99.956c-.354,0-.621-.013-.887,0a6.967,6.967,0,0,1-6.485-3.014,1.037,1.037,0,0,0-1.286-.437,1.156,1.156,0,0,0-.768,1.212c0,2.332-.028,4.663.01,6.995a3.348,3.348,0,0,0,2.9,3.384,13.735,13.735,0,0,0,3.656-.008,3.288,3.288,0,0,0,2.847-3.19C-1593.812,400.366-1593.873,398.747-1593.873,397.035Zm35.405-.074c0,1.733-.069,3.4.019,5.064a3.31,3.31,0,0,0,2.887,3.162,14.831,14.831,0,0,0,3.3.067,3.217,3.217,0,0,0,3.091-2.861c.171-1.79.039-3.609.039-5.443a7.987,7.987,0,0,1-4.633-2.586A8,8,0,0,1-1558.468,396.96Zm7.211,20.128c3.053,0,5.948,0,8.843,0a1.557,1.557,0,0,0,.276-.049c-.163-3.181-3.782-6.62-6.913-6.549A13.815,13.815,0,0,1-1551.257,417.089Zm-16.69-63.642h-16.424v2.275h16.424Zm-1.245,49.507a6.282,6.282,0,0,1-2.21,3.484,1.109,1.109,0,0,0-.4.718.752.752,0,0,0,.712.841,11.464,11.464,0,0,1,6.044,2.959c.026.025.091.009.139.011l1.391-1.177c-.279-.311-.56-.587-.8-.9a5.984,5.984,0,0,1-1.251-3.978c.037-1.133.007-2.269.007-3.555A5.051,5.051,0,0,1-1569.192,402.954Zm-13.963-.006a5.02,5.02,0,0,1-3.594-1.53v8.846c1.079-.557,2.13-1.172,3.242-1.647.757-.324,1.613-.409,2.392-.691.244-.088.438-.447.549-.724a.648.648,0,0,0-.142-.6A6.193,6.193,0,0,1-1583.154,402.947Zm26.9,14.142a13.806,13.806,0,0,1-2.23-6.693,7.815,7.815,0,0,0-4.856,2.48l1.423,4.189a2.4,2.4,0,0,0,.275.023C-1559.907,417.09-1558.169,417.09-1556.257,417.09Zm-44.328-9.43c-.45,1.673-.23,2.53.777,3.155a2.238,2.238,0,0,0,2.78-.25,2.137,2.137,0,0,0,.369-2.9Zm49.259,2.313-.372-2.3h-4.147l-.337,2.3Zm-26.9-2.317c-.035.365-.214.791-.073,1.005.648.983,1.387,1.907,2.127,2.9.641-.852,1.17-1.617,1.766-2.327a1.182,1.182,0,0,0,.179-1.577Zm22.486,4.737a10.017,10.017,0,0,0,1.994,4.06,9.778,9.778,0,0,0,1.94-4.06Zm-27.537-16.508a2.373,2.373,0,0,0-2.325,2.35,2.353,2.353,0,0,0,2.325,2.3Zm14.226.009v4.647a2.367,2.367,0,0,0,2.316-2.324A2.367,2.367,0,0,0-1569.054,395.893Z" data-name="Path 33662" fill="#fff" id="Path_33662" transform="translate(0)"/>
    <path d="M-1384.946,444.427v-2.253h2.288v2.253Z" data-name="Path 33663" fill="#fff" id="Path_33663" transform="translate(-182.939 -76.936)"/>
    <path d="M-1358.586,442.2v2.267h-2.262V442.2Z" data-name="Path 33664" fill="#fff" id="Path_33664" transform="translate(-202.291 -76.958)"/>
    <path d="M-1334.629,442.2v2.267h-2.262V442.2Z" data-name="Path 33665" fill="#fff" id="Path_33665" transform="translate(-221.53 -76.958)"/>
    <path d="M-1310.673,444.5h-2.249v-2.288h2.249Z" data-name="Path 33666" fill="#fff" id="Path_33666" transform="translate(-240.779 -76.969)"/>
    <path d="M-1360.819,489.946h2.236v2.288h-2.236Z" data-name="Path 33667" fill="#fff" id="Path_33667" transform="translate(-202.314 -115.299)"/>
    <path d="M-1337,492.317V490.05h2.262v2.267Z" data-name="Path 33668" fill="#fff" id="Path_33668" transform="translate(-221.446 -115.383)"/>
    <path d="M-1312.921,490h2.249v2.288h-2.249Z" data-name="Path 33669" fill="#fff" id="Path_33669" transform="translate(-240.78 -115.342)"/>
    <path d="M-1384.91,513.966h2.27v2.283h-2.27Z" data-name="Path 33670" fill="#fff" id="Path_33670" transform="translate(-182.968 -134.589)"/>
    <path d="M-1334.668,514.022v2.261h-2.274v-2.261Z" data-name="Path 33671" fill="#fff" id="Path_33671" transform="translate(-221.489 -134.634)"/>
    <path d="M-1313.054,516.347v-2.263h2.276v2.263Z" data-name="Path 33672" fill="#fff" id="Path_33672" transform="translate(-240.673 -134.684)"/>
    <path d="M-1313.058,468.373v-2.26h2.262v2.26Z" data-name="Path 33673" fill="#fff" id="Path_33673" transform="translate(-240.67 -96.16)"/>
    <path d="M-1334.681,466.086v2.27h-2.283v-2.27Z" data-name="Path 33674" fill="#fff" id="Path_33674" transform="translate(-221.472 -96.138)"/>
    <path d="M-1360.9,465.977h2.249v2.288h-2.249Z" data-name="Path 33675" fill="#fff" id="Path_33675" transform="translate(-202.249 -96.05)"/>
    <path d="M-1382.594,466.086v2.27h-2.283v-2.27Z" data-name="Path 33676" fill="#fff" id="Path_33676" transform="translate(-182.994 -96.138)"/>
    <path d="M-1385.007,492.385v-2.236h2.288v2.236Z" data-name="Path 33677" fill="#fff" id="Path_33677" transform="translate(-182.89 -115.462)"/>
    <path d="M-1358.606,516.327h-2.262v-2.276h2.262Z" data-name="Path 33678" fill="#fff" id="Path_33678" transform="translate(-202.274 -134.657)"/>
    <path d="M-1502.312,442.193v2.245h-2.284v-2.245Z" data-name="Path 33679" fill="#fff" id="Path_33679" transform="translate(-86.851 -76.95)"/>
    <path d="M-1550.257,468.415h-2.262v-2.276h2.262Z" data-name="Path 33680" fill="#fff" id="Path_33680" transform="translate(-48.366 -96.18)"/>
    <path d="M-1552.523,513.992h2.264v2.262h-2.264Z" data-name="Path 33681" fill="#fff" id="Path_33681" transform="translate(-48.363 -134.61)"/>
    <path d="M-1526.312,516.315h-2.27v-2.283h2.27Z" data-name="Path 33682" fill="#fff" id="Path_33682" transform="translate(-67.589 -134.642)"/>
    <path d="M-1502.406,516.386h-2.26v-2.262h2.26Z" data-name="Path 33683" fill="#fff" id="Path_33683" transform="translate(-86.795 -134.716)"/>
    <path d="M-1504.789,492.385v-2.236h2.288v2.236Z" data-name="Path 33684" fill="#fff" id="Path_33684" transform="translate(-86.697 -115.462)"/>
    <path d="M-1528.745,492.385v-2.236h2.288v2.236Z" data-name="Path 33685" fill="#fff" id="Path_33685" transform="translate(-67.458 -115.462)"/>
    <path d="M-1550.249,492.378h-2.257v-2.27h2.257Z" data-name="Path 33686" fill="#fff" id="Path_33686" transform="translate(-48.376 -115.429)"/>
    <path d="M-1550.324,444.507h-2.264v-2.262h2.264Z" data-name="Path 33687" fill="#fff" id="Path_33687" transform="translate(-48.31 -76.992)"/>
    <path d="M-1502.318,466.14v2.249h-2.288V466.14Z" data-name="Path 33688" fill="#fff" id="Path_33688" transform="translate(-86.843 -96.181)"/>
    <path d="M-1528.67,468.429v-2.266h2.279v2.266Z" data-name="Path 33689" fill="#fff" id="Path_33689" transform="translate(-67.518 -96.2)"/>
    <path d="M-1526.368,444.507h-2.264v-2.262h2.264Z" data-name="Path 33690" fill="#fff" id="Path_33690" transform="translate(-67.549 -76.992)"/>
    <path d="M-1430.5,442.15v2.263h-2.276V442.15Z" data-name="Path 33691" fill="#fff" id="Path_33691" transform="translate(-144.532 -76.916)"/>
    <path d="M-1456.747,514h2.258v2.27h-2.258Z" data-name="Path 33692" fill="#fff" id="Path_33692" transform="translate(-125.278 -134.615)"/>
    <path d="M-1432.821,516.274v-2.267h2.262v2.267Z" data-name="Path 33693" fill="#fff" id="Path_33693" transform="translate(-144.492 -134.622)"/>
    <path d="M-1454.443,444.446h-2.27v-2.283h2.27Z" data-name="Path 33694" fill="#fff" id="Path_33694" transform="translate(-125.305 -76.926)"/>
    <path d="M-1432.823,490.01h2.27v2.283h-2.27Z" data-name="Path 33695" fill="#fff" id="Path_33695" transform="translate(-144.49 -115.351)"/>
    <path d="M-1456.77,492.4v-2.254h2.267V492.4Z" data-name="Path 33696" fill="#fff" id="Path_33696" transform="translate(-125.259 -115.464)"/>
    <path d="M-1456.747,418.174h2.258v2.27h-2.258Z" data-name="Path 33697" fill="#fff" id="Path_33697" transform="translate(-125.278 -57.661)"/>
    <path d="M-1432.8,418.164h2.261v2.274h-2.261Z" data-name="Path 33698" fill="#fff" id="Path_33698" transform="translate(-144.509 -57.653)"/>
    <path d="M-1432.8,466.076h2.261v2.274h-2.261Z" data-name="Path 33699" fill="#fff" id="Path_33699" transform="translate(-144.509 -96.13)"/>
    <path d="M-1456.779,468.442v-2.257h2.27v2.257Z" data-name="Path 33700" fill="#fff" id="Path_33700" transform="translate(-125.252 -96.217)"/>
  </g>
</svg>
