<svg height="23.016" viewBox="0 0 23.015 23.016" width="23.015" xmlns="http://www.w3.org/2000/svg">
  <g data-name="Group 62" id="Group_62" transform="translate(5.75 0.25)">
    <g id="dashboard" transform="translate(-5.5 0)">
      <path d="M8.677,7.505H1.642A1.643,1.643,0,0,1,0,5.864V1.642A1.643,1.643,0,0,1,1.642,0H8.677a1.643,1.643,0,0,1,1.642,1.642V5.864A1.643,1.643,0,0,1,8.677,7.505ZM1.642,1.4a.235.235,0,0,0-.235.235V5.864a.235.235,0,0,0,.235.235H8.677a.235.235,0,0,0,.235-.235V1.642A.235.235,0,0,0,8.677,1.4Zm0,0" data-name="Path 43" fill="#fff" id="Path_43" stroke="#fff" stroke-width="0.5" transform="translate(0 0)"/>
      <path d="M8.677,226.466H1.642A1.643,1.643,0,0,1,0,224.825v-9.851a1.643,1.643,0,0,1,1.642-1.642H8.677a1.643,1.643,0,0,1,1.642,1.642v9.85a1.643,1.643,0,0,1-1.642,1.642ZM1.642,214.74a.235.235,0,0,0-.235.235v9.85a.235.235,0,0,0,.235.235H8.677a.235.235,0,0,0,.235-.235v-9.851a.235.235,0,0,0-.235-.235Zm0,0" data-name="Path 44" fill="#fff" id="Path_44" stroke="#fff" stroke-width="0.5" transform="translate(0 -203.95)"/>
      <path d="M286.01,348.837h-7.036a1.643,1.643,0,0,1-1.642-1.642v-4.221a1.643,1.643,0,0,1,1.642-1.642h7.036a1.643,1.643,0,0,1,1.642,1.642v4.22a1.643,1.643,0,0,1-1.642,1.642Zm-7.036-6.1a.235.235,0,0,0-.235.235v4.22a.235.235,0,0,0,.235.235h7.036a.235.235,0,0,0,.235-.235v-4.221a.235.235,0,0,0-.235-.235Zm0,0" data-name="Path 45" fill="#fff" id="Path_45" stroke="#fff" stroke-width="0.5" transform="translate(-265.137 -326.322)"/>
      <path d="M286.01,13.134h-7.036a1.643,1.643,0,0,1-1.642-1.642V1.642A1.643,1.643,0,0,1,278.974,0h7.036a1.643,1.643,0,0,1,1.642,1.642v9.85a1.643,1.643,0,0,1-1.641,1.642ZM278.974,1.4a.235.235,0,0,0-.235.235v9.854a.235.235,0,0,0,.235.235h7.036a.235.235,0,0,0,.235-.235V1.642a.235.235,0,0,0-.235-.235Zm0,0" data-name="Path 46" fill="#fff" id="Path_46" stroke="#fff" stroke-width="0.5" transform="translate(-265.137 0)"/>
    </g>
  </g>
</svg>
