<svg height="24.963" viewBox="0 0 23.205 24.963" width="23.205" xmlns="http://www.w3.org/2000/svg">
  <g data-name="Group 8455" id="Group_8455" transform="translate(-38.55 -273.05)">
    <path d="M12.928,4.309a6.866,6.866,0,0,0-.8.047,6.615,6.615,0,0,0-2.509,12.3v.893a2.206,2.206,0,0,0,2.206,2.206h2.206a2.206,2.206,0,0,0,2.206-2.206v-.893A6.615,6.615,0,0,0,12.928,4.309ZM15.685,15.7l-.55.319v1.529a1.1,1.1,0,0,1-1.1,1.1H11.825a1.1,1.1,0,0,1-1.1-1.1V16.018l-.55-.319A5.512,5.512,0,0,1,12.256,5.452a5.791,5.791,0,0,1,.672-.04A5.512,5.512,0,0,1,15.685,15.7Zm0,6.708a.551.551,0,0,1-.552.552h-1.1a1.1,1.1,0,1,1-2.206,0h-1.1a.552.552,0,0,1,0-1.1h4.412a.551.551,0,0,1,.552.552ZM4.206,10.928a.551.551,0,0,1-.552.552h-1.1a.552.552,0,1,1,0-1.1h1.1a.551.551,0,0,1,.552.552Zm19.65,0a.551.551,0,0,1-.552.552H22.2a.552.552,0,0,1,0-1.1h1.1a.551.551,0,0,1,.552.552ZM12.377,1.655V.552a.552.552,0,0,1,1.1,0v1.1a.552.552,0,0,1-1.1,0ZM4.688,4.467l-.78-.78a.551.551,0,1,1,.78-.78l.78.78a.551.551,0,1,1-.78.78Z" data-name="Path 33524" fill="#5b5b5b" id="Path_33524" stroke="#5b5b5b" stroke-width="0.9" transform="translate(37 273.5)"/>
    <path d="M12.928,4.309a6.865,6.865,0,0,1,.8.047,6.615,6.615,0,0,1,2.508,12.3v.893a2.206,2.206,0,0,1-2.206,2.206H11.825a2.206,2.206,0,0,1-2.206-2.206v-.893A6.615,6.615,0,0,1,12.928,4.309ZM10.171,15.7l.55.319v1.529a1.1,1.1,0,0,0,1.1,1.1h2.206a1.1,1.1,0,0,0,1.1-1.1V16.018l.55-.319A5.512,5.512,0,0,0,13.6,5.452a5.79,5.79,0,0,0-.672-.04A5.512,5.512,0,0,0,10.171,15.7Zm0,6.708a.551.551,0,0,0,.552.552h1.1a1.1,1.1,0,1,0,2.206,0h1.1a.552.552,0,0,0,0-1.1H10.722a.551.551,0,0,0-.552.552Zm11.479-11.48a.551.551,0,0,0,.552.552h1.1a.552.552,0,0,0,0-1.1H22.2a.551.551,0,0,0-.552.552ZM2,10.928a.551.551,0,0,0,.552.552h1.1a.552.552,0,0,0,0-1.1h-1.1A.551.551,0,0,0,2,10.928ZM13.479,1.655V.552a.552.552,0,1,0-1.1,0v1.1a.552.552,0,1,0,1.1,0Zm7.688,2.813.78-.78a.551.551,0,1,0-.78-.78l-.377.377-.4.4a.551.551,0,1,0,.78.78Z" data-name="Path 33525" fill="#5b5b5b" id="Path_33525" stroke="#5b5b5b" stroke-width="0.8" transform="translate(37.5 273.5)"/>
  </g>
</svg>
