<svg height="69.204" viewBox="0 0 74.532 69.204" width="74.532" xmlns="http://www.w3.org/2000/svg">
  <g data-name="Group 13515" id="Group_13515" transform="translate(-680.685 -118.361)">
    <path d="M681.435,174.158V123.528a1.171,1.171,0,0,0,.133-.241,5.352,5.352,0,0,1,5.4-4.176q24.2,0,48.4.009a6.78,6.78,0,0,1,1.752.231,5.445,5.445,0,0,1,3.821,5.471c-.053,7.413-.012,14.827-.027,22.241a.818.818,0,0,0,.616.92A20.081,20.081,0,0,1,735.2,186.8a19.688,19.688,0,0,1-16.556-7.635,1.356,1.356,0,0,0-1.184-.576q-11.762.027-23.524.012c-2.447,0-4.9.031-7.342-.027a5.311,5.311,0,0,1-4.992-3.965C681.558,174.458,681.491,174.309,681.435,174.158ZM701.5,123.514H687.312c-1.2,0-1.469.262-1.469,1.447q0,23.884,0,47.769c0,1.214.239,1.454,1.451,1.454h28.378c-2.461-7.075-1.755-13.668,2.75-19.575s10.65-8.375,18.059-7.9c.011-.215.032-.424.033-.632q0-10.623,0-21.246c0-1.023-.294-1.317-1.305-1.318q-6.809,0-13.618,0c-.208,0-.416.022-.7.038v.872q0,6.987,0,13.974c0,2.174-1.451,3.136-3.465,2.324-1.912-.771-3.822-1.549-5.749-2.284a1.512,1.512,0,0,0-.989.015c-1.993.758-3.963,1.58-5.96,2.327a2.992,2.992,0,0,1-1.51.182c-1.144-.21-1.714-1.077-1.716-2.431q-.008-7.058,0-14.117Zm17.2,43.213a15.674,15.674,0,1,0,15.693-15.676A15.749,15.749,0,0,0,718.7,166.727Zm-12.732-31.166c1.318-.522,2.588-.971,3.808-1.528a3.191,3.191,0,0,1,2.8-.016c1.244.55,2.528,1.011,3.833,1.526v-11.98H705.965Z" data-name="Path 102522" fill="#fff" id="Path_102522" stroke="#73c8ff" stroke-width="1.5" transform="translate(0 0)"/>
    <path d="M1039.907,389.216c1.777,0,3.459,0,5.142,0a7.565,7.565,0,0,1,1.135.064,2.179,2.179,0,0,1-.023,4.311,4.453,4.453,0,0,1-.709.058c-2.471,0-4.943.011-7.413,0a2.248,2.248,0,0,1-2.545-2.54c-.005-2.519.041-5.038-.017-7.556a2.225,2.225,0,1,1,4.428-.013C1039.915,385.394,1039.907,387.244,1039.907,389.216Z" data-name="Path 102523" fill="#fff" id="Path_102523" stroke="#73c8ff" stroke-width="1.5" transform="translate(-303.45 -224.551)"/>
  </g>
</svg>
