<svg height="73.735" viewBox="0 0 73.685 73.735" width="73.685" xmlns="http://www.w3.org/2000/svg">
  <g data-name="Group 13517" id="Group_13517" transform="translate(-155.723 -879.55)">
    <path d="M229.158,994.464c-.977,0-2.092-.3-2.892.076s-1.264,1.411-1.861,2.171a21.437,21.437,0,0,1-1.483,1.92,4.224,4.224,0,0,1-1.334.677,1.145,1.145,0,0,1-.426.008q-28.61,0-57.22.016a2.3,2.3,0,0,1-2.108-1.044c-.8-1.154-1.69-2.246-2.51-3.388a.986.986,0,0,0-.947-.464c-.783.033-1.568.009-2.406.009v-2.452h7.2c.018-.293.042-.5.042-.708,0-3.361,0-6.722.009-10.083a.93.93,0,0,0-.475-.924,4.106,4.106,0,0,1-1.961-3.6c-.019-1.716-.009-3.432,0-5.149a2.518,2.518,0,0,1,2.737-2.771c1.645-.018,3.29,0,4.935,0h.889v-.733c0-2.932-.009-5.864.01-8.8a.927.927,0,0,0-.491-.909,3.951,3.951,0,0,1-1.938-3.385c-.031-1.906-.039-3.814,0-5.72a2.323,2.323,0,0,1,2.416-2.379c2.145-.027,4.291-.01,6.437-.012h.885v-6.069h2.424v6.018h9.758v-.8q0-3.576,0-7.151c0-1.364.419-1.778,1.8-1.783,1.287,0,2.575-.007,3.862,0s1.719.444,1.721,1.716q.007,3.611,0,7.223v.805h9.71v-6.033h2.46v6.073h1.9c1.74,0,3.481-.01,5.221,0a2.4,2.4,0,0,1,2.638,2.606c.02,1.787.012,3.576,0,5.363a4.223,4.223,0,0,1-2,3.589.961.961,0,0,0-.416.632c-.025,3.146-.016,6.293-.012,9.44a1.808,1.808,0,0,0,.069.3h2.249c1.168,0,2.337-.013,3.5,0a2.522,2.522,0,0,1,2.732,2.777q.006,2.5,0,5.006a4.339,4.339,0,0,1-2.015,3.8.956.956,0,0,0-.4.649c-.024,3.552-.016,7.1-.013,10.655a1.6,1.6,0,0,0,.051.257c.2.018.4.052.609.051q3.32-.028,6.641-.066ZM221.8,971.3H163.236c0,1.207,0,2.369,0,3.532a19.814,19.814,0,0,0,.048,2.07,1.783,1.783,0,0,0,1.645,1.611,1.821,1.821,0,0,0,1.879-1.333c.049-.151.108-.3.159-.437h2.315c.373,1.194.986,1.774,1.87,1.785s1.486-.54,1.936-1.808h2.31c.313,1.189.9,1.79,1.8,1.787a1.567,1.567,0,0,0,.994-.289,11.768,11.768,0,0,0,1.161-1.476h2.166c.2,1.021.74,1.75,1.833,1.768,1.138.019,1.66-.764,1.9-1.772h2.312c.44,1.25,1.045,1.8,1.939,1.787s1.5-.585,1.856-1.76h2.386c.232,1.1.834,1.7,1.736,1.754.922.057,1.562-.506,2-1.759h2.316c.4,1.206.959,1.738,1.834,1.765s1.461-.489,1.952-1.779h2.329c.326,1.166.91,1.765,1.8,1.768a1.906,1.906,0,0,0,1.938-1.758h2.385c.265,1.136.885,1.735,1.8,1.766s1.561-.559,1.939-1.773h2.346c.044.136.082.247.116.359a1.828,1.828,0,0,0,1.823,1.414,1.737,1.737,0,0,0,1.707-1.62C221.85,975.058,221.8,973.2,221.8,971.3Zm-32.949,23.168H162.076c.487.65.918,1.159,1.273,1.716a1.4,1.4,0,0,0,1.354.683q22.459-.029,44.917-.015c3.648,0,7.3,0,10.943-.009a1.136,1.136,0,0,0,.772-.21c.568-.657,1.067-1.374,1.7-2.208h-26.8v-2.477h23.149c0-.8.017-1.536-.016-2.267-.006-.129-.206-.281-.35-.367-.853-.505-1.695-1.037-2.583-1.474a6.986,6.986,0,0,0-1.979-.682c-1.194-.182-2.045.595-2.928,1.253a5.574,5.574,0,0,1-3.962,1.08,6.493,6.493,0,0,1-3.52-1.582,3.321,3.321,0,0,0-4.333,0,8.345,8.345,0,0,1-1.349.93,5.832,5.832,0,0,1-6.708-.86,3.3,3.3,0,0,0-4.494,0c-2.712,2.089-5.236,2.1-7.943.023a3.4,3.4,0,0,0-4.565-.021,8.391,8.391,0,0,1-2.283,1.275,5.659,5.659,0,0,1-5.539-1.181c-.313-.255-.673-.452-1.1-.731v4.611h23.12ZM181.5,954.74c.226,1.024.739,1.785,1.835,1.811,1.172.027,1.684-.8,1.936-1.8h2.318c.371,1.232,1.01,1.83,1.919,1.816.886-.014,1.5-.6,1.856-1.79h2.364c.268,1.115.874,1.725,1.734,1.787.911.066,1.546-.493,2.054-1.814h2.294c.222,1,.73,1.773,1.826,1.8,1.171.03,1.694-.785,1.944-1.8H205.9c.382,1.211.977,1.821,1.847,1.81,1.168-.014,1.7-.779,1.942-1.836h2.347c.046.165.067.232.084.3a1.87,1.87,0,0,0,1.938,1.538,1.9,1.9,0,0,0,1.662-1.914c.009-.429,0-.858,0-1.287,0-1.349,0-2.7,0-4.055H169.363c0,1.9-.023,3.751.011,5.6a1.87,1.87,0,0,0,1.411,1.616,1.763,1.763,0,0,0,1.9-.83,7.5,7.5,0,0,0,.412-.973h2.274c.406,1.255,1,1.85,1.869,1.836,1.169-.019,1.683-.8,1.94-1.819Zm-13.259,25.112c-.79.359-1.525.675-2.239,1.032a.639.639,0,0,0-.3.459c-.028,1-.031,2,0,3a.766.766,0,0,0,.345.518c.827.5,1.725.9,2.506,1.46a3.444,3.444,0,0,0,4.233.014,9.5,9.5,0,0,1,1.4-.98,5.471,5.471,0,0,1,6.289.557,3.782,3.782,0,0,0,5.393-.011,5.324,5.324,0,0,1,1.877-.982,5.672,5.672,0,0,1,5.586,1.252,3.1,3.1,0,0,0,2.837.821,7.265,7.265,0,0,0,2.171-1.144,6,6,0,0,1,4.23-1.141,6.7,6.7,0,0,1,3.439,1.6,3.31,3.31,0,0,0,4.214.018,9.379,9.379,0,0,1,1.406-.973,5.685,5.685,0,0,1,6.308.536c.426.311.871.6,1.444.987,0-1.742,0-3.284,0-4.827a4.024,4.024,0,0,0-.017-.784.632.632,0,0,0-.3-.388c-.718-.351-1.45-.671-2.237-1.029-2.128,1.575-3.417,1.579-5.982-.058-2.521,1.64-3.811,1.636-6.118-.042a4.493,4.493,0,0,1-3.02,1.25,4.576,4.576,0,0,1-3.061-1.249,4.367,4.367,0,0,1-6.131-.006A4.388,4.388,0,0,1,189.446,981a4.474,4.474,0,0,1-2.993-1.244c-2.415,1.68-3.579,1.678-6.14.015-2.24,1.654-3.53,1.659-6.089.022C171.7,981.433,170.388,981.428,168.246,979.851Zm3.569-11.148h41.417v-3.422a28.109,28.109,0,0,1-2.775-1.569c-1.831-1.329-3.088-1.369-4.907,0a5.785,5.785,0,0,1-7.657-.039,3.37,3.37,0,0,0-4.722-.032,5.81,5.81,0,0,1-7.825-.03,3.362,3.362,0,0,0-4.615,0c-2.629,2.023-5.1,2.045-7.767.079-.347-.255-.721-.474-1.148-.752Zm-.011-8.555c.975.583,1.873,1.023,2.661,1.611a3.435,3.435,0,0,0,4.628.01c2.638-2.05,5.187-2.065,7.825-.048a3.377,3.377,0,0,0,4.725-.021,5.932,5.932,0,0,1,7.842.067,4.384,4.384,0,0,0,1.564.792,3.1,3.1,0,0,0,2.867-.7,6.23,6.23,0,0,1,3.445-1.577,5.878,5.878,0,0,1,4.33,1.289c.452.356.967.631,1.591,1.031,0-1.252.009-2.294-.012-3.336a.5.5,0,0,0-.262-.346c-.739-.354-1.49-.681-2.269-1.032a4.407,4.407,0,0,1-6-.087,4.391,4.391,0,0,1-6.1-.005,4.4,4.4,0,0,1-6.1,0,4.4,4.4,0,0,1-6.108-.01,4.387,4.387,0,0,1-6.105.005,4.373,4.373,0,0,1-6.041.056,8.215,8.215,0,0,1-1.758.906c-.684.164-.826.5-.739,1.09A1.931,1.931,0,0,1,171.8,960.148Zm21.874-13.35v-7.221h-2.265V946.8Z" data-name="Path 102527" fill="#fff" id="Path_102527" stroke="#7a92a3" stroke-width="0.5" transform="translate(0 -46.297)"/>
    <path d="M334.089,879.8a12.149,12.149,0,0,1,1.065,1.445,28.793,28.793,0,0,1,1.512,3.143,3.164,3.164,0,0,1-1.9,4.124,3.225,3.225,0,0,1-4.132-1.927,3.068,3.068,0,0,1,.119-2.49c.565-1.177,1.133-2.355,1.761-3.5.177-.324.565-.532.856-.794Zm-.43,3.978a6.768,6.768,0,0,0-.653,1.341,1.142,1.142,0,0,0,.229.929.858.858,0,0,0,.857,0,1.149,1.149,0,0,0,.218-.932A6.8,6.8,0,0,0,333.659,883.778Z" data-name="Path 102528" fill="#fff" id="Path_102528" stroke="#7a92a3" stroke-width="0.5" transform="translate(-141.122 0)"/>
    <path d="M253.018,924.508l1.8-1.512-1.814-1.455,1.894-1.84,1.407,1.745,1.486-1.783,1.823,1.906-1.717,1.4,1.832,1.528-1.821,1.775-1.454-1.666-1.521,1.722Z" data-name="Path 102529" fill="#fff" id="Path_102529" stroke="#7a92a3" stroke-width="0.5" transform="translate(-78.494 -32.246)"/>
    <path d="M408.292,922.879l-1.7-1.493,1.8-1.749,1.4,1.632,1.589-1.739,1.751,1.917-1.684,1.3,1.827,1.493-1.963,1.855-1.358-1.591-1.461,1.73-1.854-1.9Z" data-name="Path 102530" fill="#fff" id="Path_102530" stroke="#7a92a3" stroke-width="0.5" transform="translate(-202.729 -32.139)"/>
    <path d="M341.021,1224.755h2.4v2.376h-2.4Z" data-name="Path 102531" fill="#fff" id="Path_102531" stroke="#7a92a3" stroke-width="0.5" transform="translate(-149.691 -279.044)"/>
  </g>
</svg>
