<svg height="73.822" viewBox="0 0 73.84 73.822" width="73.84" xmlns="http://www.w3.org/2000/svg">
  <g data-name="Group 13594" id="Group_13594" transform="translate(6464.2 -1170.553)">
    <path d="M-6464.2,1239.76v-58.829a1.243,1.243,0,0,0,.129-.249,5.53,5.53,0,0,1,5.6-4.362q3.352-.006,6.7,0h2.569c0-1-.007-1.934,0-2.865a2.845,2.845,0,0,1,2.849-2.9,2.847,2.847,0,0,1,2.912,2.912c.008.93,0,1.86,0,2.812h31.157c0-.926,0-1.81,0-2.694a2.855,2.855,0,0,1,2.865-3.03,2.849,2.849,0,0,1,2.9,3c0,.9,0,1.808,0,2.767h.865c3.244,0,6.488-.009,9.732,0a5.518,5.518,0,0,1,5.552,5.528q.01,28.506-.006,57.011a5.3,5.3,0,0,1-3.076,4.919,13.629,13.629,0,0,1-1.526.593h-64.611a19.16,19.16,0,0,1-2.2-1A5.893,5.893,0,0,1-6464.2,1239.76Zm71.536-48.4H-6461.9v.835q0,23.027,0,46.055c0,2.531,1.282,3.82,3.8,3.82h61.636c2.483,0,3.792-1.3,3.792-3.759q0-23.063,0-46.127Zm-13.851-12.739c0,1.791.007,3.471,0,5.151a2.845,2.845,0,0,1-2.9,2.923,2.845,2.845,0,0,1-2.857-2.894c-.011-1.489,0-2.979,0-4.469v-.676h-31.157c0,1.709.018,3.385-.012,5.059a3.543,3.543,0,0,1-.271,1.318,2.841,2.841,0,0,1-3.209,1.617,2.876,2.876,0,0,1-2.268-2.793c-.012-1.723,0-3.446,0-5.211-3.31,0-6.549-.076-9.782.032a3.024,3.024,0,0,0-2.883,2.993c-.075,2.4-.014,4.8-.006,7.205,0,.035.06.07.061.072h69.118c.012-.13.024-.2.024-.273,0-2.162.007-4.324,0-6.486a3.32,3.32,0,0,0-3.547-3.567c-2.763-.007-5.526,0-8.29,0Zm-39.223,0c0-1.655.025-3.311-.025-4.964-.008-.268-.351-.525-.539-.788-.2.252-.4.5-.589.759-.034.047-.006.14-.006.212q0,4.785,0,9.57c0,.455.018.964.6.945s.563-.539.563-.985C-6445.74,1181.787-6445.737,1180.2-6445.738,1178.621Zm35.762-.055c0,1.631,0,3.262,0,4.893,0,.438.047.9.578.9s.586-.452.586-.892q-.007-4.821,0-9.642c0-.458-.029-.954-.613-.934-.527.019-.552.494-.55.926C-6409.972,1175.4-6409.976,1176.983-6409.976,1178.566Z" data-name="Path 102577" fill="#fff" id="Path_102577"/>
    <path d="M-6352.979,1313.84c2.556.572,4.987,1.1,7.408,1.67a6.479,6.479,0,0,1,1.384.591,2.686,2.686,0,0,1,1.619,2.694c-.065,5.381-.049,10.764-.008,16.146a2.368,2.368,0,0,1-1.277,2.231,14.877,14.877,0,0,1-5.169,1.677,95.943,95.943,0,0,1-18.162,1.178,69.181,69.181,0,0,1-13.25-1.193,26.237,26.237,0,0,1-4.362-1.395,2.6,2.6,0,0,1-1.666-2.73c.066-5.381.051-10.764.007-16.146a2.429,2.429,0,0,1,1.314-2.29,14.661,14.661,0,0,1,4.964-1.62c1.342-.247,2.7-.426,4.087-.642.012-.169.037-.356.037-.543,0-2.619-.007-5.238.011-7.857a.894.894,0,0,0-.467-.859,3.62,3.62,0,0,1-1.505-4.814,18.117,18.117,0,0,1,2.278-3.375c.478-.613,1.223-.5,1.818.116a10.206,10.206,0,0,1,2.461,4.051c.089-.2.158-.332.2-.468a9.869,9.869,0,0,1,2.424-3.7,1.172,1.172,0,0,1,1.831.119,10.084,10.084,0,0,1,2.451,4.036,2.53,2.53,0,0,0,.193-.368,9.741,9.741,0,0,1,2.439-3.777,1.16,1.16,0,0,1,1.828.1,10.366,10.366,0,0,1,2.493,4,10.305,10.305,0,0,1,2.4-3.889c.739-.806,1.452-.854,2.11.007a16.491,16.491,0,0,1,2.076,3.168,3.687,3.687,0,0,1-1.513,4.83c-.19.131-.436.368-.437.557C-6352.987,1308.219-6352.979,1311.1-6352.979,1313.84Zm-31.153,6.7v12.626c0,2.364-.006,2.387,2.312,2.977a62.565,62.565,0,0,0,14.063,1.562,93.815,93.815,0,0,0,16.525-.874c1.91-.294,3.782-.836,5.665-1.29a.815.815,0,0,0,.686-.921c-.03-4.516-.017-9.031-.019-13.547,0-.164-.02-.329-.032-.519-6.4,1.955-12.966,2.139-19.541,2.142C-6371.071,1322.694-6377.666,1322.509-6384.131,1320.537Zm.487-2.539-.027.268c1.077.284,2.143.619,3.231.842a72.1,72.1,0,0,0,12.375,1.228,92.791,92.791,0,0,0,18.73-1.085c1.347-.235,2.666-.635,4-.958-.01-.094-.02-.188-.03-.282a30.628,30.628,0,0,0-7.613-1.6c0,.6.013,1.126,0,1.651a1.121,1.121,0,0,1-1.161,1.189,1.125,1.125,0,0,1-1.134-1.216c-.014-.6,0-1.2,0-1.877l-4.621-.271c0,.746.005,1.389,0,2.031-.009.849-.442,1.34-1.164,1.333s-1.13-.5-1.136-1.359c-.005-.684,0-1.368,0-2.044h-4.621c0,.746.008,1.438,0,2.13a1.137,1.137,0,0,1-1.149,1.274,1.137,1.137,0,0,1-1.149-1.274c-.009-.665,0-1.331,0-2.092l-4.538.269a1.352,1.352,0,0,0-.072.237c-.006.528,0,1.057-.012,1.585a1.14,1.14,0,0,1-1.149,1.275,1.138,1.138,0,0,1-1.149-1.273c-.009-.514,0-1.027,0-1.572A31.73,31.73,0,0,0-6383.645,1318Zm14.516-4.444c0-2.8,0-5.537-.008-8.271a.468.468,0,0,0-.191-.338,4.559,4.559,0,0,1-2.11-2.726,4.624,4.624,0,0,1-2.067,2.713.812.812,0,0,0-.231.6c-.019,1.537-.01,3.074-.01,4.611v3.662Zm13.847.25c0-2.88,0-5.64-.006-8.4a.578.578,0,0,0-.154-.43,4.545,4.545,0,0,1-2.149-2.786,4.584,4.584,0,0,1-2.026,2.716.876.876,0,0,0-.271.648c-.019,2.5-.013,5-.01,7.493,0,.158.031.316.052.514Zm-9.234-11.4a4.858,4.858,0,0,1-1.871,2.4,1.139,1.139,0,0,0-.418.779c-.041,1.416-.019,2.833-.019,4.25v3.612h4.62c0-2.726.006-5.41-.014-8.094a.706.706,0,0,0-.306-.489A4.715,4.715,0,0,1-6364.517,1302.406Zm-10.233-3.229h-.3a19.479,19.479,0,0,0-.885,1.847,1.294,1.294,0,0,0,.628,1.714.958.958,0,0,0,.811,0,1.3,1.3,0,0,0,.627-1.716A19.368,19.368,0,0,0-6374.75,1299.177Zm6.821-.189c-.357.569-.586.9-.782,1.258a3.725,3.725,0,0,0-.3.727,1.428,1.428,0,0,0,.574,1.76.648.648,0,0,0,.9.019,1.382,1.382,0,0,0,.588-1.749C-6367.182,1300.369-6367.538,1299.78-6367.929,1298.988Zm7.021.188-.3,0a19.71,19.71,0,0,0-.884,1.851,1.3,1.3,0,0,0,.636,1.712.958.958,0,0,0,.811,0,1.3,1.3,0,0,0,.62-1.719A19.4,19.4,0,0,0-6360.908,1299.176Zm6.917,0-.292.013c-.294.594-.618,1.176-.875,1.786a1.389,1.389,0,0,0,.565,1.759.646.646,0,0,0,.9.026,1.384,1.384,0,0,0,.593-1.747A19.042,19.042,0,0,0-6353.991,1299.172Z" data-name="Path 102578" fill="#fff" id="Path_102578" transform="translate(-62.765 -101.409)"/>
    <path d="M-6161.208,1297.237a3.433,3.433,0,0,1-3.485-3.449,3.43,3.43,0,0,1,3.467-3.466,3.434,3.434,0,0,1,3.45,3.411A3.435,3.435,0,0,1-6161.208,1297.237Zm0-2.311a1.2,1.2,0,0,0,1.118-1.176,1.2,1.2,0,0,0-1.176-1.118,1.2,1.2,0,0,0-1.118,1.176A1.2,1.2,0,0,0-6161.207,1294.926Z" data-name="Path 102579" fill="#fff" id="Path_102579" transform="translate(-241.816 -96.699)"/>
    <path d="M-6422.483,1407.014a2.853,2.853,0,0,1-2.894,2.851,2.853,2.853,0,0,1-2.868-2.948,2.853,2.853,0,0,1,2.929-2.814A2.851,2.851,0,0,1-6422.483,1407.014Zm-2.095-.006c-.342-.268-.576-.583-.744-.551-.229.044-.408.351-.608.546.188.182.364.489.569.511S-6424.938,1407.256-6424.578,1407.008Z" data-name="Path 102580" fill="#fff" id="Path_102580" transform="translate(-29.028 -188.564)"/>
    <path d="M-6401.986,1298.036c0,1.226-.358,1.75-1.184,1.73-.794-.019-1.118-.519-1.118-1.723,0-1.228.356-1.749,1.183-1.729C-6402.311,1296.334-6401.986,1296.834-6401.986,1298.036Z" data-name="Path 102581" fill="#fff" id="Path_102581" transform="translate(-48.372 -101.537)"/>
    <path d="M-6420.532,1316.576c-1.2,0-1.7-.328-1.716-1.125-.017-.829.5-1.177,1.734-1.177,1.2,0,1.7.327,1.718,1.124C-6418.78,1316.226-6419.3,1316.576-6420.532,1316.576Z" data-name="Path 102582" fill="#fff" id="Path_102582" transform="translate(-33.87 -116.038)"/>
    <path d="M-6390.6,1316.5a3.654,3.654,0,0,1-.714-.008,1.072,1.072,0,0,1-.954-1.15,1.051,1.051,0,0,1,.987-1.116,7.761,7.761,0,0,1,1.287-.014,1.119,1.119,0,0,1,1.173,1.163,1.132,1.132,0,0,1-1.206,1.133c-.19.007-.382,0-.573,0Z" data-name="Path 102583" fill="#fff" id="Path_102583" transform="translate(-58.073 -115.969)"/>
    <path d="M-6402.065,1328.038a3.661,3.661,0,0,1-.007.714,1.073,1.073,0,0,1-1.15.954,1.052,1.052,0,0,1-1.116-.988,7.85,7.85,0,0,1-.014-1.286,1.118,1.118,0,0,1,1.164-1.172,1.132,1.132,0,0,1,1.133,1.206c.007.191,0,.382,0,.573Z" data-name="Path 102584" fill="#fff" id="Path_102584" transform="translate(-48.304 -125.714)"/>
    <path d="M-6144.424,1357.921c0,1.227-.358,1.75-1.184,1.73-.794-.019-1.118-.519-1.118-1.723,0-1.228.356-1.749,1.182-1.729C-6144.749,1356.219-6144.424,1356.719-6144.424,1357.921Z" data-name="Path 102585" fill="#fff" id="Path_102585" transform="translate(-256.322 -149.887)"/>
    <path d="M-6162.917,1376.382a4.2,4.2,0,0,1-.786-.008,1.069,1.069,0,0,1-.958-1.146,1.051,1.051,0,0,1,.984-1.119,7.655,7.655,0,0,1,1.287-.014,1.119,1.119,0,0,1,1.176,1.16,1.132,1.132,0,0,1-1.2,1.136c-.167.007-.333,0-.5,0Z" data-name="Path 102586" fill="#fff" id="Path_102586" transform="translate(-241.843 -164.319)"/>
    <path d="M-6132.949,1374.151a6.017,6.017,0,0,1,.644,0,1.11,1.11,0,0,1,1.017,1.169,1.065,1.065,0,0,1-1,1.108,7.815,7.815,0,0,1-1.287.012,1.119,1.119,0,0,1-1.162-1.174,1.121,1.121,0,0,1,1.144-1.121c.214-.012.429,0,.644,0Z" data-name="Path 102587" fill="#fff" id="Path_102587" transform="translate(-266.001 -164.375)"/>
    <path d="M-6146.732,1387.852c0-.167-.005-.334,0-.5a1.13,1.13,0,0,1,1.131-1.206,1.122,1.122,0,0,1,1.166,1.171c.015.357.012.716,0,1.073a1.129,1.129,0,0,1-1.131,1.207,1.131,1.131,0,0,1-1.167-1.244C-6146.737,1388.186-6146.732,1388.019-6146.732,1387.852Z" data-name="Path 102588" fill="#fff" id="Path_102588" transform="translate(-256.315 -174.064)"/>
  </g>
</svg>
