<svg height="22.561" viewBox="0 0 24.595 22.561" width="24.595" xmlns="http://www.w3.org/2000/svg">
  <g data-name="Group 13560" id="Group_13560" transform="translate(5374.86 513.497)">
    <path d="M-5374.61-505.048a4.563,4.563,0,0,1,.165-.487,2.017,2.017,0,0,1,1.866-1.244c.524-.021,1.051-.009,1.576,0a.335.335,0,0,0,.323-.166,2.719,2.719,0,0,1,2.364-1.254c1.153,0,2.306.005,3.459,0a.892.892,0,0,0,.435-.123q3.9-2.378,7.8-4.769a.715.715,0,0,1,1.137.363.947.947,0,0,1,.027.255q0,9.353,0,18.706a.71.71,0,0,1-1.138.641q-3.668-2.175-7.333-4.356l-.228-.134c-.049.079-.1.154-.144.232-1.1,1.906-2.2,3.814-3.306,5.715a1.211,1.211,0,0,1-.42.418.656.656,0,0,1-.67-.058q-1.484-.836-2.97-1.669a.72.72,0,0,1-.3-1.106q1.137-1.975,2.279-3.947c.039-.068.076-.136.123-.22a3.392,3.392,0,0,1-1.183-1.121c-.033-.053-.146-.075-.223-.076-.6-.014-1.209.015-1.81-.037a1.988,1.988,0,0,1-1.783-1.591.678.678,0,0,0-.045-.105Zm17.734-6.215c-.084.044-.14.069-.191.1q-3.245,1.987-6.491,3.972a.3.3,0,0,0-.147.308q0,3.834,0,7.667a.315.315,0,0,0,.175.316q3.234,1.912,6.462,3.834c.056.033.118.059.193.1Zm-8.281,11.944v-7.469c-1.017,0-2.013.028-3.007-.008a1.493,1.493,0,0,0-1.6,1.594c.014,1.388,0,2.777,0,4.165a1.657,1.657,0,0,0,1.734,1.728q1.318,0,2.635,0C-5365.312-499.308-5365.235-499.315-5365.156-499.318Zm-.492,1.423c-.82,0-1.6,0-2.37.008-.073,0-.167.094-.211.169q-1.053,1.805-2.094,3.618c-.034.059-.062.121-.1.19l1.866,1.047Zm-5.542-3.009v-4.444c-.487,0-.957-.014-1.424,0a.581.581,0,0,0-.578.6c-.012,1.081-.01,2.162,0,3.243a.573.573,0,0,0,.5.594C-5372.194-500.887-5371.694-500.9-5371.19-500.9Z" data-name="Path 102567" fill="#5b5b5b" id="Path_102567" stroke="#5b5b5b" stroke-width="0.5"/>
    <path d="M-5055.472-308.2a2.207,2.207,0,0,1,.5.271c.478.451.939.92,1.4,1.391a.7.7,0,0,1,0,1.027.709.709,0,0,1-1.011-.034q-.7-.692-1.4-1.4a.682.682,0,0,1-.16-.777A.823.823,0,0,1-5055.472-308.2Z" data-name="Path 102568" fill="#5b5b5b" id="Path_102568" stroke="#5b5b5b" stroke-width="0.5" transform="translate(-298.392 -192.15)"/>
    <path d="M-5044.217-363.468c.337,0,.673,0,1.01,0a.691.691,0,0,1,.707.691.7.7,0,0,1-.708.717q-1,.01-2,0a.712.712,0,0,1-.725-.708.705.705,0,0,1,.726-.7C-5044.875-363.471-5044.546-363.468-5044.217-363.468Z" data-name="Path 102569" fill="#5b5b5b" id="Path_102569" stroke="#5b5b5b" stroke-width="0.5" transform="translate(-308.015 -140.358)"/>
    <path d="M-5055.461-439.389a.737.737,0,0,1-.734-.4.64.64,0,0,1,.1-.764q.73-.763,1.494-1.5a.7.7,0,0,1,.959.02.686.686,0,0,1,.031.974q-.722.755-1.48,1.476A1.239,1.239,0,0,1-5055.461-439.389Z" data-name="Path 102570" fill="#5b5b5b" id="Path_102570" stroke="#5b5b5b" stroke-width="0.5" transform="translate(-298.318 -66.547)"/>
  </g>
</svg>
