<svg height="25.265" viewBox="0 0 25.256 25.265" width="25.256" xmlns="http://www.w3.org/2000/svg">
  <g data-name="Group 13531" id="Group_13531" transform="translate(2910.6 -728.2)">
    <path d="M-2897.528,728.2c.194.06.393.106.58.182a2.847,2.847,0,0,1,1.932,2.634,18.133,18.133,0,0,1-.057,2.262,4.143,4.143,0,0,1-.283.9l.191.043a2.72,2.72,0,0,1,2.125,2.5c.032.73.027,1.463.013,2.194a1.094,1.094,0,0,1-1.157,1.114c-.921,0-1.841,0-2.762,0h-.288v.266c0,1.323,0,2.647.006,3.97a.573.573,0,0,0,.141.362c1.024,1.057,2.059,2.1,3.086,3.155a.253.253,0,0,0,.352.072,6.466,6.466,0,0,1,.749-.265c0,.007.009-.013,0-.024a3.527,3.527,0,0,1-.378-1.883,11.884,11.884,0,0,1,.1-1.765,2.935,2.935,0,0,1,2.985-2.295,2.919,2.919,0,0,1,2.813,2.474,8.3,8.3,0,0,1-.047,2.769,5.381,5.381,0,0,1-.269.747,2.754,2.754,0,0,1,1.9,1.223,2.618,2.618,0,0,1,.447,1.462c0,.682,0,1.364,0,2.047a1.083,1.083,0,0,1-1.107,1.107q-3.834,0-7.668,0a1.066,1.066,0,0,1-1.116-1.022c-.026-.82-.009-1.643.034-2.462a4.453,4.453,0,0,1,.238-.845.279.279,0,0,0-.03-.227q-1.52-1.461-3.052-2.908l.081-.108c-.048.041-.1.078-.143.122q-1.4,1.423-2.8,2.845a.229.229,0,0,0-.058.316,2.649,2.649,0,0,1,.277,1.237q0,.925,0,1.849a1.116,1.116,0,0,1-1.219,1.2c-2.425,0-4.849-.015-7.274.01a1.305,1.305,0,0,1-1.414-.847v-2.664c.058-.2.1-.4.177-.584a2.748,2.748,0,0,1,2.152-1.753,4.871,4.871,0,0,1-.294-.982c-.059-.677-.057-1.361-.058-2.042a2.944,2.944,0,0,1,2.714-2.952,2.87,2.87,0,0,1,3.128,2.277,11.381,11.381,0,0,1,.076,2.452,6.122,6.122,0,0,1-.3,1.238,5.8,5.8,0,0,1,.7.246.252.252,0,0,0,.352-.065c1.027-1.054,2.062-2.1,3.087-3.155a.542.542,0,0,0,.142-.337c.01-1.348.006-2.7.006-4.044,0-.07-.009-.141-.015-.219-1.027,0-2.029,0-3.032,0a1.1,1.1,0,0,1-1.16-1.112c-.014-.731-.019-1.464.012-2.194a2.7,2.7,0,0,1,1.983-2.458c.116-.032.232-.061.333-.088a4.111,4.111,0,0,1-.282-.9,21.606,21.606,0,0,1-.057-2.287,2.736,2.736,0,0,1,1.387-2.332,7.307,7.307,0,0,1,1.126-.459Zm3.014,10.322c0-.557.006-1.1,0-1.639a1.237,1.237,0,0,0-1.22-1.233q-2.231-.014-4.462,0a1.2,1.2,0,0,0-1.207,1.028c-.057.607-.013,1.224-.013,1.846Zm-7.677,13.445c0-.556.011-1.089,0-1.622a1.229,1.229,0,0,0-1.264-1.265q-2.193-.025-4.385,0a1.184,1.184,0,0,0-1.243,1.067,18.065,18.065,0,0,0-.013,1.82Zm15.368,0c0-.533.005-1.056,0-1.579a1.248,1.248,0,0,0-1.26-1.3c-1.469-.02-2.939-.016-4.409,0a1.186,1.186,0,0,0-1.224,1c-.051.618-.011,1.243-.011,1.879Zm-9.643-20.024h-.022c0-.263,0-.526,0-.788a1.484,1.484,0,0,0-1.48-1.469,1.482,1.482,0,0,0-1.487,1.462q-.009.776,0,1.552a1.474,1.474,0,0,0,1.356,1.462,1.449,1.449,0,0,0,1.556-1.117A7.716,7.716,0,0,0-2896.466,731.939Zm-7.7,13.423h-.006c0-.287.012-.575,0-.862a1.451,1.451,0,0,0-1.406-1.379,1.412,1.412,0,0,0-1.511,1.2,9.83,9.83,0,0,0-.017,1.987,1.43,1.43,0,0,0,1.586,1.283,1.478,1.478,0,0,0,1.354-1.486C-2904.164,745.854-2904.169,745.608-2904.169,745.362Zm12.394-.008h0c0,.279-.011.559,0,.837a1.469,1.469,0,0,0,1.341,1.4,1.424,1.424,0,0,0,1.577-1.2,9.734,9.734,0,0,0,.02-1.963,1.427,1.427,0,0,0-1.549-1.3,1.461,1.461,0,0,0-1.4,1.492C-2891.781,744.861-2891.776,745.108-2891.776,745.354Z" data-name="Path 102557" fill="#5b5b5b" id="Path_102557"/>
  </g>
</svg>
