<svg height="75.676" viewBox="0 0 75.665 75.676" width="75.665" xmlns="http://www.w3.org/2000/svg">
  <g data-name="Group 13684" id="Group_13684" transform="translate(1161.18 438.72)">
    <path d="M-1104.054-437.47a3.065,3.065,0,0,1,2.138,2.8c.011.714,0,1.429,0,2.143v.771c1.224,0,2.383,0,3.542,0a11.414,11.414,0,0,1,11.379,9.137,8.7,8.7,0,0,1,.212,1.837q.026,8.358.011,16.716a2.833,2.833,0,0,1-2.461,2.871,2.849,2.849,0,0,1-3.167-2.169,4.192,4.192,0,0,1-.077-.991q-.007-7.751,0-15.5a6.168,6.168,0,0,0-1.175-3.882,5.541,5.541,0,0,0-4.266-2.262c-1.3-.071-2.608-.014-4-.014,0,.921.005,1.818,0,2.714a2.829,2.829,0,0,1-2.877,2.97,2.827,2.827,0,0,1-2.831-2.945c-.008-.9,0-1.8,0-2.732h-13.011c0,.953.014,1.918,0,2.883a2.851,2.851,0,0,1-2.336,2.767,2.808,2.808,0,0,1-3.127-1.705,5.651,5.651,0,0,1-.234-1.674c-.037-.734-.009-1.471-.009-2.257h-12.867v1.259c0,3.122-.842,4.413-2.873,4.4-2.013-.008-2.838-1.3-2.838-4.439v-1.364a33.6,33.6,0,0,0-4.94.331c-2.739.581-4.346,2.888-4.352,5.844q-.014,7.394,0,14.787,0,14.5,0,29a5.571,5.571,0,0,0,3.235,5.5,7.331,7.331,0,0,0,2.958.621c7.1.051,14.192.029,21.288.026a2.765,2.765,0,0,1,2.591,1.466,2.71,2.71,0,0,1-.075,2.911,2.62,2.62,0,0,1-2.308,1.327c-7.572.009-15.145.059-22.716-.024-5.053-.055-9.816-4.458-10.539-9.516a2.662,2.662,0,0,0-.149-.452V-421.75a.869.869,0,0,0,.129-.239,11.389,11.389,0,0,1,11.554-9.762c1.088,0,2.175,0,3.325,0,0-.309,0-.541,0-.773,0-.714-.009-1.428,0-2.142a3.064,3.064,0,0,1,2.138-2.8h1.429a3.3,3.3,0,0,1,2.15,3.734c-.059.65-.01,1.309-.01,1.947h12.867v-.734c0-.714-.008-1.429,0-2.143a3.064,3.064,0,0,1,2.138-2.8h1.429a3.3,3.3,0,0,1,2.151,3.734c-.059.65-.01,1.309-.01,1.947h13.01c0-.27,0-.5,0-.734,0-.714-.008-1.429,0-2.143a3.064,3.064,0,0,1,2.138-2.8Z" data-name="Path 102592" fill="#fff" id="Path_102592" stroke="#232323" stroke-width="2.5"/>
    <path d="M-909.757-204.6a17.305,17.305,0,0,1-17.274,17.3,17.305,17.305,0,0,1-17.3-17.274,17.305,17.305,0,0,1,17.274-17.3A17.305,17.305,0,0,1-909.757-204.6Zm-17.3-11.559a11.649,11.649,0,0,0-11.567,11.546,11.653,11.653,0,0,0,11.581,11.6,11.649,11.649,0,0,0,11.567-11.546A11.653,11.653,0,0,0-927.053-216.159Z" data-name="Path 102593" fill="#fff" id="Path_102593" stroke="#232323" stroke-width="2.5" transform="translate(-177.008 -177.009)"/>
    <path d="M-1070.364-282.878a2.832,2.832,0,0,1-2.848,2.842,2.833,2.833,0,0,1-2.86-2.9,2.832,2.832,0,0,1,2.883-2.807A2.832,2.832,0,0,1-1070.364-282.878Z" data-name="Path 102594" fill="#fff" id="Path_102594" stroke="#232323" stroke-width="2.5" transform="translate(-68.849 -124.57)"/>
    <path d="M-1000.9-282.92a2.833,2.833,0,0,1-2.805,2.885,2.833,2.833,0,0,1-2.9-2.859,2.832,2.832,0,0,1,2.841-2.849A2.832,2.832,0,0,1-1000.9-282.92Z" data-name="Path 102595" fill="#fff" id="Path_102595" stroke="#232323" stroke-width="2.5" transform="translate(-125.881 -124.571)"/>
    <path d="M-934.331-280.035a2.832,2.832,0,0,1-2.812-2.878,2.833,2.833,0,0,1,2.931-2.83,2.832,2.832,0,0,1,2.777,2.913A2.834,2.834,0,0,1-934.331-280.035Z" data-name="Path 102596" fill="#fff" id="Path_102596" stroke="#232323" stroke-width="2.5" transform="translate(-182.912 -124.57)"/>
    <path d="M-861.97-282.92a2.832,2.832,0,0,1-2.8,2.885,2.833,2.833,0,0,1-2.9-2.859,2.832,2.832,0,0,1,2.841-2.85A2.831,2.831,0,0,1-861.97-282.92Z" data-name="Path 102597" fill="#fff" id="Path_102597" stroke="#232323" stroke-width="2.5" transform="translate(-239.944 -124.571)"/>
    <path d="M-1070.363-213.445a2.831,2.831,0,0,1-2.816,2.874,2.832,2.832,0,0,1-2.891-2.87,2.832,2.832,0,0,1,2.852-2.838A2.832,2.832,0,0,1-1070.363-213.445Z" data-name="Path 102598" fill="#fff" id="Path_102598" stroke="#232323" stroke-width="2.5" transform="translate(-68.85 -181.602)"/>
    <path d="M-1003.785-216.279a2.833,2.833,0,0,1,2.886,2.8,2.832,2.832,0,0,1-2.857,2.9,2.832,2.832,0,0,1-2.851-2.84A2.832,2.832,0,0,1-1003.785-216.279Z" data-name="Path 102599" fill="#fff" id="Path_102599" stroke="#232323" stroke-width="2.5" transform="translate(-125.881 -181.602)"/>
    <path d="M-1070.363-143.977a2.831,2.831,0,0,1-2.819,2.871,2.832,2.832,0,0,1-2.889-2.872,2.832,2.832,0,0,1,2.855-2.836A2.832,2.832,0,0,1-1070.363-143.977Z" data-name="Path 102600" fill="#fff" id="Path_102600" stroke="#232323" stroke-width="2.5" transform="translate(-68.85 -238.634)"/>
    <path d="M-1000.9-143.975a2.831,2.831,0,0,1-2.821,2.869,2.832,2.832,0,0,1-2.887-2.875,2.832,2.832,0,0,1,2.857-2.833A2.832,2.832,0,0,1-1000.9-143.975Z" data-name="Path 102601" fill="#fff" id="Path_102601" stroke="#232323" stroke-width="2.5" transform="translate(-125.881 -238.634)"/>
    <path d="M-858.026-168.1c.522,0,.927-.008,1.331,0a2.829,2.829,0,0,1,2.813,2.891A2.817,2.817,0,0,1-856.7-162.4q-2.107.028-4.214,0a2.8,2.8,0,0,1-2.817-2.808q-.03-2.964,0-5.929a2.813,2.813,0,0,1,2.874-2.827,2.821,2.821,0,0,1,2.827,2.8C-858.011-170.165-858.026-169.17-858.026-168.1Z" data-name="Path 102602" fill="#fff" id="Path_102602" stroke="#232323" stroke-width="2.5" transform="translate(-243.174 -216.346)"/>
  </g>
</svg>
