<svg fill="none" height="75" viewBox="0 0 75 75" width="75" xmlns="http://www.w3.org/2000/svg">
<rect height="75" width="75"/>
<path d="M40.4297 72.0703C40.4297 73.6884 39.1181 75 37.5 75C35.8819 75 34.5703 73.6884 34.5703 72.0703C34.5703 70.4522 35.8819 69.1406 37.5 69.1406C39.1181 69.1406 40.4297 70.4522 40.4297 72.0703Z" fill="white"/>
<path d="M75 37.5C75 39.1181 73.6884 40.4297 72.0703 40.4297C70.4522 40.4297 69.1406 39.1181 69.1406 37.5C69.1406 35.8819 70.4522 34.5703 72.0703 34.5703C73.6884 34.5703 75 35.8819 75 37.5Z" fill="white"/>
<path d="M5.85937 37.5C5.85937 39.1181 4.54781 40.4297 2.92969 40.4297C1.31156 40.4297 0 39.1181 0 37.5C0 35.8819 1.31156 34.5703 2.92969 34.5703C4.54781 34.5703 5.85937 35.8819 5.85937 37.5Z" fill="white"/>
<path d="M63.5948 59.4516C64.739 60.5958 64.739 62.4504 63.5948 63.5945C62.4512 64.7387 60.596 64.7392 59.4519 63.5951C58.3077 62.4509 58.3077 60.5963 59.4519 59.4521C60.5955 58.308 62.4507 58.3075 63.5948 59.4516Z" fill="white"/>
<path d="M14.9625 10.8191C16.1067 11.9632 16.1067 13.8184 14.9625 14.9625C13.8184 16.1067 11.9632 16.1067 10.8191 14.9625C9.6749 13.8184 9.6749 11.9632 10.8191 10.8191C11.9632 9.6749 13.8184 9.6749 14.9625 10.8191Z" fill="white"/>
<path d="M14.962 59.4519C16.1062 60.596 16.1062 62.4512 14.962 63.5948C13.8178 64.739 11.9627 64.739 10.8191 63.5948C9.6749 62.4507 9.6749 60.5955 10.8191 59.4519C11.9632 58.3077 13.8184 58.3077 14.962 59.4519Z" fill="white"/>
<path d="M64.0502 32.2253C65.2812 32.2253 66.4192 32.9614 67.149 34.0558C67.6083 33.4008 68.1953 32.8442 68.8738 32.4162C67.9625 31.2025 66.6791 30.3283 65.2196 30.0154C64.507 27.3714 63.4283 24.8786 62.0377 22.595C62.6252 21.442 62.8151 20.109 62.6142 18.7969C61.8216 18.9418 61.0076 18.9246 60.2197 18.7514C60.2882 19.0308 60.3311 19.3154 60.3463 19.6015C60.4018 20.6866 60.0575 21.6596 59.3759 22.3408L58.046 23.6701L50.7433 16.3669L52.0721 15.038C52.702 14.4082 53.5955 14.0613 54.5885 14.0613C54.9505 14.0613 55.3104 14.111 55.6625 14.1973C55.4883 13.41 55.4705 12.5965 55.6149 11.8044C55.2733 11.7521 54.9301 11.7176 54.5885 11.7176C53.5333 11.7176 52.5005 11.976 51.5918 12.4929C49.5332 11.3299 47.3182 10.4118 44.9838 9.78192C44.6715 8.32129 43.7973 7.03746 42.5819 6.125C42.154 6.80301 41.5973 7.39 40.9418 7.84933C42.0363 8.57913 42.7729 9.71696 42.7729 10.9475L42.7734 12.8895H32.2265V10.948C32.2265 9.71757 32.9626 8.57911 34.0571 7.84987C33.4021 7.39001 32.8454 6.80303 32.4175 6.12554C31.2038 7.03688 30.3301 8.31969 30.0167 9.77817C27.5698 10.4389 25.2523 11.4157 23.1095 12.6603C22.1364 12.0262 20.9927 11.7171 19.8251 11.7171C19.4835 11.7171 19.1403 11.7516 18.7987 11.8039C18.9431 12.596 18.9253 13.41 18.7511 14.1968C19.1032 14.111 19.4636 14.0608 19.8257 14.0608C20.8186 14.0608 21.7122 14.4076 22.3415 15.0375L23.6709 16.3669L16.3681 23.6696L15.0388 22.3402C14.1468 21.4483 13.8831 20.0665 14.2033 18.7488C13.4133 18.9246 12.5956 18.9424 11.8 18.7969C11.5687 20.3053 11.8512 21.8417 12.6674 23.0989C11.4201 25.2444 10.4413 27.5651 9.77959 30.016C8.32097 30.3294 7.0382 31.2031 6.12695 32.4168C6.80497 32.8448 7.39195 33.4014 7.85128 34.0564C8.58109 32.9614 9.71892 32.2253 10.9495 32.2253H12.8909V42.7722H10.9495C9.71898 42.7722 8.58106 42.0356 7.85128 40.9411C7.39143 41.5961 6.80444 42.1533 6.12695 42.5812C7.0383 43.7949 8.32164 44.6686 9.78066 44.982C10.3948 47.2599 11.2805 49.4257 12.4038 51.4419C11.427 52.6567 11.0289 54.2105 11.166 55.7642C11.923 55.5382 12.7161 55.4655 13.4971 55.5439C13.493 55.4948 13.4846 55.4456 13.4825 55.3959C13.4265 54.3108 13.7713 53.3383 14.454 52.6561L15.7828 51.3268L23.0856 58.63L21.7567 59.9588C21.1258 60.5887 20.2322 60.9361 19.2393 60.9361C19.1153 60.9361 18.9918 60.9277 18.8684 60.9173C18.9463 61.6983 18.8731 62.4925 18.6471 63.25C18.8443 63.2678 19.042 63.2799 19.2393 63.2799C20.5158 63.2799 21.7598 62.9053 22.7879 62.1451C25.0196 63.4802 27.446 64.524 30.0164 65.2166C30.3292 66.6762 31.2034 67.9606 32.4177 68.872C32.8457 68.1939 33.4023 67.607 34.0573 67.1476C32.9628 66.4178 32.2267 65.28 32.2267 64.0495V62.108H42.7736V64.0495C42.7736 65.2799 42.037 66.4178 40.9425 67.1476C41.5975 67.607 42.1547 68.1939 42.5826 68.872C43.7958 67.9611 44.67 66.6783 44.9829 65.2197C47.4312 64.5595 49.7489 63.5827 51.8917 62.3376C52.8648 62.9706 54.0079 63.2798 55.1746 63.2798C55.3713 63.2798 55.5696 63.2678 55.7673 63.25C55.5408 62.4924 55.4676 61.6983 55.5461 60.9172C55.4221 60.9277 55.2986 60.936 55.1746 60.936C54.1817 60.936 53.2881 60.5892 52.6582 59.9588L51.3289 58.6299L58.6321 51.3278L59.961 52.6571C60.6432 53.3388 60.9879 54.3118 60.9325 55.3969C60.9304 55.4461 60.9215 55.4952 60.9178 55.5449C61.6984 55.4659 62.4915 55.5392 63.249 55.7647C63.3698 54.3971 63.0716 53.0306 62.3329 51.8933C63.5786 49.7499 64.5579 47.4319 65.2182 44.9829C66.6782 44.67 67.9626 43.7953 68.8745 42.581C68.1965 42.1531 67.6096 41.5964 67.1497 40.9409C66.4199 42.0354 65.282 42.772 64.051 42.772H62.1095V32.2251L64.0502 32.2253ZM61.2723 45.1159H62.7387C62.2155 46.8433 61.5197 48.4954 60.6711 50.0534C60.3682 49.75 60.0234 49.4058 59.6813 49.0631C59.3936 48.7754 59.0158 48.6315 58.6365 48.6315C58.2515 48.6315 57.8649 48.7795 57.5693 49.0751L49.0753 57.5691C48.4888 58.1561 48.4841 59.101 49.0638 59.6812L50.0562 60.6726C48.4977 61.5175 46.8441 62.2054 45.117 62.7254V61.2711C45.117 60.4393 44.4354 59.7644 43.5936 59.7644H31.4066C30.5649 59.7644 29.8827 60.4393 29.8827 61.2711V62.738C28.0156 62.172 26.2367 61.4035 24.5689 60.4602C24.8174 60.2117 25.0832 59.9459 25.3489 59.6801C25.9286 59.1005 25.9234 58.1546 25.3369 57.5681L16.8434 49.0746C16.5478 48.779 16.1618 48.6315 15.7772 48.6315C15.3974 48.6315 15.0197 48.7754 14.7314 49.0631L14.1329 49.6616C13.3812 48.2188 12.7623 46.6984 12.2846 45.1159H13.7274C14.5592 45.1159 15.2341 44.4343 15.2341 43.5925V31.4055C15.2341 30.5638 14.5592 29.8816 13.7274 29.8816H12.2731C12.7931 28.1545 13.481 26.5004 14.3259 24.9419L15.3184 25.9343C15.6061 26.222 15.9838 26.3659 16.3631 26.3659C16.7476 26.3659 17.1337 26.2179 17.4293 25.9228L25.9233 17.4288C26.5103 16.8423 26.515 15.8969 25.9354 15.3173L24.9429 14.3248C26.502 13.4799 28.1556 12.792 29.8826 12.272V13.7263C29.8826 14.5581 30.5648 15.233 31.4066 15.233H43.5941C44.4353 15.233 45.117 14.5581 45.117 13.7263V12.272C46.7006 12.7522 48.2198 13.3764 49.6632 14.1313L48.4782 15.3168C47.8986 15.8964 47.9033 16.8418 48.4897 17.4283L56.9838 25.9223C57.2793 26.2179 57.6654 26.366 58.0505 26.366C58.4298 26.366 58.8075 26.2221 59.0952 25.9343C59.5912 25.4379 60.0924 24.9367 60.4628 24.5668C61.406 26.2346 62.173 28.0144 62.7385 29.8811H61.2721C60.4403 29.8816 59.7654 30.5638 59.7654 31.4056V43.5931C59.7654 44.4343 60.4403 45.116 61.2721 45.116L61.2723 45.1159Z" fill="white"/>
<path d="M63.5948 10.8191C64.739 11.9632 64.739 13.8184 63.5948 14.9625C62.4507 16.1067 60.596 16.1067 59.4519 14.9625C58.3077 13.8184 58.3077 11.9632 59.4519 10.8191C60.596 9.6749 62.4507 9.6749 63.5948 10.8191Z" fill="white"/>
<path d="M45.1172 22.2656H29.8828C27.3047 22.2656 25.1953 24.375 25.1953 26.9531V48.0469C25.1953 50.625 27.3047 52.7344 29.8828 52.7344H45.1172C47.6953 52.7344 49.8047 50.625 49.8047 48.0469V26.9531C49.8047 24.375 47.6953 22.2656 45.1172 22.2656ZM47.4609 48.0469C47.4609 49.3396 46.4099 50.3906 45.1172 50.3906H29.8828C28.5906 50.3906 27.5391 49.3396 27.5391 48.0469V26.9531C27.5391 25.6609 28.5906 24.6094 29.8828 24.6094H45.1172C46.4099 24.6094 47.4609 25.6609 47.4609 26.9531V48.0469Z" fill="white"/>
<path d="M43.9453 29.2969H31.0547C30.4075 29.2969 29.8828 29.8216 29.8828 30.4687C29.8828 31.1159 30.4075 31.6406 31.0547 31.6406H43.9453C44.5925 31.6406 45.1172 31.1159 45.1172 30.4687C45.1172 29.8216 44.5925 29.2969 43.9453 29.2969Z" fill="white"/>
<path d="M43.9453 33.9844H31.0547C30.4075 33.9844 29.8828 34.5091 29.8828 35.1562C29.8828 35.8034 30.4075 36.3281 31.0547 36.3281H43.9453C44.5925 36.3281 45.1172 35.8034 45.1172 35.1562C45.1172 34.5091 44.5925 33.9844 43.9453 33.9844Z" fill="white"/>
<path d="M43.9453 38.6719H31.0547C30.4075 38.6719 29.8828 39.1966 29.8828 39.8437C29.8828 40.4909 30.4075 41.0156 31.0547 41.0156H43.9453C44.5925 41.0156 45.1172 40.4909 45.1172 39.8437C45.1172 39.1966 44.5925 38.6719 43.9453 38.6719Z" fill="white"/>
<path d="M43.9453 43.3594H31.0547C30.4075 43.3594 29.8828 43.8841 29.8828 44.5312C29.8828 45.1784 30.4075 45.7031 31.0547 45.7031H43.9453C44.5925 45.7031 45.1172 45.1784 45.1172 44.5312C45.1172 43.8841 44.5925 43.3594 43.9453 43.3594Z" fill="white"/>
<path d="M40.4297 2.92969C40.4297 4.54781 39.1181 5.85937 37.5 5.85937C35.8819 5.85937 34.5703 4.54781 34.5703 2.92969C34.5703 1.31156 35.8819 0 37.5 0C39.1181 0 40.4297 1.31156 40.4297 2.92969Z" fill="white"/>
</svg>
