<svg height="74.535" viewBox="0 0 56.276 74.535" width="56.276" xmlns="http://www.w3.org/2000/svg">
  <path d="M29.388,0A13.624,13.624,0,0,0,20.8,24.259,29.325,29.325,0,0,0,7.091,33.593l-.526.633v6.856h4.565v-5.01a24.561,24.561,0,0,1,15.976-8.523V41.082h4.565V27.522a24.033,24.033,0,0,1,14.452,6.749c.536.515,1.03,1.078,1.525,1.64v5.171h4.565V34.191l-.526-.633a30.871,30.871,0,0,0-2.4-2.585A28.935,28.935,0,0,0,38,24.241,13.627,13.627,0,0,0,29.388,0Zm0,4.565a9.129,9.129,0,1,1-9.129,9.129A9.095,9.095,0,0,1,29.388,4.565ZM6.565,45.647v4.4q0,.08,0,.161v9.129a2.283,2.283,0,0,0,.027.41,6.852,6.852,0,1,0,4.5,0,2.283,2.283,0,0,0,.036-.41V50.212H27.106v9.129a2.282,2.282,0,0,0,.027.41,6.852,6.852,0,1,0,4.5,0,2.283,2.283,0,0,0,.036-.41V50.212H47.647v9.129a2.283,2.283,0,0,0,.027.41,6.851,6.851,0,1,0,4.5,0,2.282,2.282,0,0,0,.036-.41V45.647ZM8.847,63.906a2.282,2.282,0,1,1-2.282,2.282A2.249,2.249,0,0,1,8.847,63.906Zm20.541,0a2.282,2.282,0,1,1-2.282,2.282A2.249,2.249,0,0,1,29.388,63.906Zm20.541,0a2.282,2.282,0,1,1-2.282,2.282A2.249,2.249,0,0,1,49.929,63.906Z" fill="#fff" id="path4852" stroke="#00c0ef" stroke-width="1.5" transform="translate(-1.25 0.75)"/>
</svg>
