<svg fill="none" height="75" viewBox="0 0 77 75" width="77" xmlns="http://www.w3.org/2000/svg">
<rect height="75" width="75"/>
<path d="M57.4094 75H6.4377C5.77699 75 5.24219 74.4646 5.24219 73.8045C5.24219 73.1443 5.77699 72.609 6.4377 72.609C6.61294 72.609 6.78705 72.5948 6.97477 72.5681C8.74139 72.3237 10.1507 70.9331 10.4077 69.1863C10.4553 68.9391 10.4661 68.7536 10.4661 68.5806V9.68035C10.4661 7.88078 11.2743 6.20839 12.6847 5.09119L17.515 1.26526C18.5449 0.449726 19.8362 0 21.1497 0H62.0281C64.3784 0 66.2912 1.91238 66.2912 4.26366V34.7947C66.2912 35.4548 65.7564 35.9902 65.0957 35.9902C64.435 35.9902 63.9002 35.4548 63.9002 34.7947V4.26366C63.9002 3.23148 63.0608 2.39149 62.0286 2.39149H21.1502C20.3738 2.39149 19.6099 2.65691 19.0007 3.1401L14.1704 6.96603C13.3367 7.62617 12.858 8.61635 12.858 9.68085V68.5797C12.858 68.9477 12.8263 69.2801 12.7633 69.596C12.5989 70.7155 12.1236 71.7505 11.4266 72.608L57.4097 72.6074C60.9883 72.6074 63.9005 69.6957 63.9005 66.1172V64.9614C63.9005 64.3012 64.4353 63.7659 65.0961 63.7659C65.7568 63.7659 66.2916 64.3012 66.2916 64.9614V66.1172C66.2916 71.0143 62.3075 74.9991 57.4097 74.9991L57.4094 75Z" fill="white"/>
<path d="M6.43852 74.9996C5.97631 74.9996 5.49652 74.9412 5.01049 74.826C3.85241 74.5782 2.76404 73.9816 1.89191 73.1082C0.671453 71.8889 0 70.2804 0 68.5797V60.5549C0 59.8947 0.534805 59.3594 1.19551 59.3594H11.6619C12.3226 59.3594 12.8574 59.8947 12.8574 60.5549V68.5797C12.8574 68.9478 12.8257 69.2801 12.7627 69.596C12.3623 72.3251 10.116 74.546 7.3087 74.9349C7.00982 74.9786 6.72343 74.9996 6.43872 74.9996L6.43852 74.9996ZM2.39148 61.7502V68.5796C2.39148 69.6419 2.814 70.6491 3.58245 71.4176C4.12916 71.9648 4.80519 72.3363 5.53679 72.4928C6.07613 72.6199 6.4907 72.6363 6.97503 72.5671C8.74164 72.3227 10.151 70.932 10.4079 69.1853C10.4556 68.9381 10.4664 68.7526 10.4664 68.5796V61.7502H2.39148Z" fill="white"/>
<path d="M59.1842 67.2747C49.6247 67.2747 41.8477 59.4972 41.8477 49.9382C41.8477 40.3791 49.6252 32.6016 59.1842 32.6016C68.7438 32.6016 76.5208 40.3791 76.5208 49.9382C76.5214 59.4983 68.7438 67.2747 59.1842 67.2747V67.2747ZM59.1842 34.9913C50.9432 34.9913 44.2389 41.696 44.2389 49.9367C44.2389 58.1777 50.9435 64.8835 59.1842 64.8835C67.4253 64.8835 74.1296 58.1783 74.1296 49.9367C74.1296 41.6957 67.425 34.9913 59.1842 34.9913V34.9913Z" fill="white"/>
<path d="M59.1838 38.6948C58.5231 38.6948 57.9883 38.1595 57.9883 37.4993V33.7932C57.9883 33.133 58.5231 32.5977 59.1838 32.5977C59.8445 32.5977 60.3793 33.133 60.3793 33.7932V37.4993C60.3793 38.1595 59.8445 38.6948 59.1838 38.6948Z" fill="white"/>
<path d="M59.1838 67.273C58.5231 67.273 57.9883 66.7376 57.9883 66.0774V62.3713C57.9883 61.7112 58.5231 61.1758 59.1838 61.1758C59.8445 61.1758 60.3793 61.7112 60.3793 62.3713V66.0774C60.3793 66.7376 59.8445 67.273 59.1838 67.273Z" fill="white"/>
<path d="M67.9773 42.3366C67.6716 42.3366 67.3654 42.2198 67.1317 41.9861C66.6644 41.52 66.6644 40.7623 67.1317 40.2955L69.7519 37.6747C70.2192 37.2074 70.9758 37.2074 71.4426 37.6747C71.9099 38.1409 71.9099 38.8986 71.4426 39.3654L68.8224 41.9861C68.5893 42.2198 68.2837 42.3366 67.9774 42.3366H67.9773Z" fill="white"/>
<path d="M47.7703 62.5437C47.4646 62.5437 47.1584 62.4268 46.9247 62.1932C46.4574 61.727 46.4574 60.9693 46.9247 60.5025L49.5449 57.8817C50.0122 57.4144 50.7687 57.4144 51.2356 57.8817C51.7029 58.3479 51.7029 59.1056 51.2356 59.5724L48.6154 62.1932C48.3823 62.4268 48.0766 62.5437 47.7704 62.5437H47.7703Z" fill="white"/>
<path d="M75.3255 51.1332H71.6193C70.9586 51.1332 70.4238 50.5978 70.4238 49.9377C70.4238 49.2776 70.9586 48.7422 71.6193 48.7422H75.3255C75.9862 48.7422 76.521 49.2776 76.521 49.9377C76.5216 50.5978 75.9868 51.1332 75.3255 51.1332Z" fill="white"/>
<path d="M46.7493 51.1332H43.0432C42.3825 51.1332 41.8477 50.5978 41.8477 49.9377C41.8477 49.2776 42.3825 48.7422 43.0432 48.7422H46.7493C47.41 48.7422 47.9448 49.2776 47.9448 49.9377C47.9448 50.5978 47.41 51.1332 46.7493 51.1332Z" fill="white"/>
<path d="M70.5975 62.5437C70.2918 62.5437 69.9856 62.4268 69.7519 62.1932L67.1317 59.5724C66.6644 59.1051 66.6644 58.348 67.1317 57.8817C67.5991 57.4144 68.3556 57.4144 68.8224 57.8817L71.4426 60.5025C71.9099 60.9698 71.9099 61.7269 71.4426 62.1932C71.2095 62.4268 70.9038 62.5437 70.5976 62.5437H70.5975Z" fill="white"/>
<path d="M50.3905 42.3366C50.0848 42.3366 49.7785 42.2198 49.5449 41.9861L46.9247 39.3654C46.4574 38.8981 46.4574 38.141 46.9247 37.6747C47.392 37.2074 48.1486 37.2074 48.6154 37.6747L51.2356 40.2955C51.7029 40.7628 51.7029 41.5199 51.2356 41.9861C51.0025 42.2198 50.6968 42.3366 50.3905 42.3366H50.3905Z" fill="white"/>
<path d="M59.5061 57.4977C58.8454 57.4977 58.3105 56.9623 58.3105 56.3021V52.715C58.3105 52.0549 58.8454 51.5195 59.5061 51.5195C60.1668 51.5195 60.7016 52.0549 60.7016 52.715V56.3021C60.7021 56.9623 60.1673 57.4977 59.5061 57.4977Z" fill="white"/>
<path d="M61.0121 48.9277C60.7052 48.9277 60.3978 48.8103 60.1642 48.5755C59.6986 48.1071 59.7009 47.3505 60.1687 46.8848L62.7633 44.3021C63.229 43.8348 63.9884 43.8377 64.454 44.3055C64.9196 44.774 64.9174 45.5305 64.4495 45.9962L61.8549 48.5789C61.6229 48.8114 61.3173 48.9277 61.0121 48.9277L61.0121 48.9277Z" fill="white"/>
<path d="M37.356 56.0277H17.8518C17.1911 56.0277 16.6562 55.4924 16.6562 54.8322C16.6562 54.1721 17.1911 53.6367 17.8518 53.6367H37.3574C38.0181 53.6367 38.5529 54.1721 38.5529 54.8322C38.5529 55.4924 38.0181 56.0277 37.3569 56.0277H37.356Z" fill="white"/>
<path d="M37.356 49.852H17.8518C17.1911 49.852 16.6562 49.3166 16.6562 48.6565C16.6562 47.9963 17.1911 47.4609 17.8518 47.4609H37.3574C38.0181 47.4609 38.5529 47.9963 38.5529 48.6565C38.5529 49.3166 38.0181 49.852 37.3569 49.852H37.356Z" fill="white"/>
<path d="M37.356 43.6762H17.8518C17.1911 43.6762 16.6562 43.1408 16.6562 42.4807C16.6562 41.8205 17.1911 41.2852 17.8518 41.2852H37.3574C38.0181 41.2852 38.5529 41.8205 38.5529 42.4807C38.5529 43.1408 38.0181 43.6762 37.3569 43.6762H37.356Z" fill="white"/>
<path d="M37.356 37.5043H17.8518C17.1911 37.5043 16.6562 36.9689 16.6562 36.3088C16.6562 35.6487 17.1911 35.1133 17.8518 35.1133H37.3574C38.0181 35.1133 38.5529 35.6487 38.5529 36.3088C38.5529 36.9689 38.0181 37.5043 37.3569 37.5043H37.356Z" fill="white"/>
<path d="M37.356 62.1996H17.8518C17.1911 62.1996 16.6562 61.6643 16.6562 61.0041C16.6562 60.344 17.1911 59.8086 17.8518 59.8086H37.3574C38.0181 59.8086 38.5529 60.344 38.5529 61.0041C38.5529 61.6643 38.0181 62.1996 37.3569 62.1996H37.356Z" fill="white"/>
<path d="M37.356 68.3754H17.8518C17.1911 68.3754 16.6562 67.84 16.6562 67.1799C16.6562 66.5197 17.1911 65.9844 17.8518 65.9844H37.3574C38.0181 65.9844 38.5529 66.5197 38.5529 67.1799C38.5529 67.84 38.0181 68.3754 37.3569 68.3754H37.356Z" fill="white"/>
<path d="M22.5926 30.6757C21.9319 30.6757 21.3971 30.1404 21.3971 29.4802L21.3965 27.6291C21.3965 26.969 21.9313 26.4336 22.592 26.4336C23.2527 26.4336 23.7875 26.969 23.7875 27.6291V29.4796C23.7881 30.1404 23.2533 30.6757 22.5926 30.6757L22.5926 30.6757Z" fill="white"/>
<path d="M28.1779 30.7532C27.5172 30.7532 26.9824 30.2178 26.9824 29.5577V24.3049C26.9824 23.6447 27.5172 23.1094 28.1779 23.1094C28.8386 23.1094 29.3734 23.6447 29.3734 24.3049V29.5577C29.3734 30.2178 28.8386 30.7532 28.1779 30.7532Z" fill="white"/>
<path d="M33.7619 30.8307C33.1012 30.8307 32.5664 30.2954 32.5664 29.6352V21.6682C32.5664 21.008 33.1012 20.4727 33.7619 20.4727C34.4226 20.4727 34.9574 21.008 34.9574 21.6682V29.6352C34.958 30.2954 34.4232 30.8307 33.7619 30.8307Z" fill="white"/>
<path d="M39.3459 30.9089C38.6852 30.9089 38.1504 30.3736 38.1504 29.7134V24.9416C38.1504 24.2815 38.6852 23.7461 39.3459 23.7461C40.0066 23.7461 40.5414 24.2815 40.5414 24.9416V29.7134C40.5414 30.3736 40.0066 30.9089 39.3459 30.9089Z" fill="white"/>
<path d="M44.9318 30.5211C44.2711 30.5211 43.7363 29.9857 43.7363 29.3255V21.6682C43.7363 21.008 44.2711 20.4727 44.9318 20.4727C45.5926 20.4727 46.1274 21.008 46.1274 21.6682V29.3255C46.1274 29.9857 45.5926 30.5211 44.9318 30.5211Z" fill="white"/>
<path d="M50.5158 30.5964C49.8551 30.5964 49.3203 30.061 49.3203 29.4009V17.9182C49.3203 17.258 49.8551 16.7227 50.5158 16.7227C51.1765 16.7227 51.7113 17.258 51.7113 17.9182V29.4009C51.7119 30.061 51.1771 30.5964 50.5158 30.5964Z" fill="white"/>
<path d="M19.2967 25.1419C18.9348 25.1419 18.5775 24.9785 18.3416 24.6672C17.9435 24.1403 18.0473 23.3911 18.5742 22.9925L29.8221 14.4872C31.0409 13.5673 32.7122 13.5186 33.9849 14.3727L39.0136 17.75C39.4458 18.0403 40.0294 18.0137 40.4309 17.6887L54.1294 6.40911C54.641 5.98944 55.3941 6.06317 55.8121 6.57188C56.2324 7.08173 56.1603 7.83544 55.6499 8.25516L41.9457 19.5404C40.7281 20.5278 38.9763 20.6044 37.6803 19.7361L32.6515 16.3582C32.2347 16.0792 31.6647 16.0922 31.2655 16.3951L20.0175 24.9015C19.8009 25.0631 19.5474 25.1419 19.2967 25.1419L19.2967 25.1419Z" fill="white"/>
<path d="M53.7769 15.1077C53.7106 15.1077 53.6437 15.1026 53.5762 15.0906C52.9246 14.9801 52.4867 14.363 52.5967 13.7125L53.482 8.4915L48.1884 8.34462C47.5277 8.32647 47.0082 7.77635 47.0258 7.11622C47.0445 6.45608 47.6468 5.92638 48.2542 5.95417L54.9226 6.13905C55.2691 6.14812 55.5941 6.30806 55.8136 6.57517C56.033 6.84228 56.1266 7.19221 56.0693 7.53363L54.9555 14.1113C54.8557 14.6954 54.3503 15.1077 53.777 15.1077L53.7769 15.1077Z" fill="white"/>
<path d="M59.1967 53.9929C59.0435 53.9929 58.891 53.9884 58.7566 53.9702C56.7097 53.7695 55.1309 52.0341 55.1309 49.9402C55.1309 47.6988 56.9547 45.875 59.1966 45.875C60.1341 45.875 61.0506 46.2062 61.776 46.8074C62.7123 47.5843 63.2493 48.726 63.2493 49.9402C63.2493 52.1753 61.4312 53.9929 59.1966 53.9929L59.1967 53.9929ZM59.1967 48.2667C58.2728 48.2667 57.5225 49.0176 57.5225 49.9402C57.5225 50.7989 58.1742 51.5106 59.038 51.5956L59.1968 51.6013C60.1133 51.6013 60.8584 50.8555 60.8584 49.9397C60.8584 49.4395 60.6367 48.9682 60.2499 48.6477C60.0395 48.4742 59.6856 48.2666 59.1967 48.2666L59.1967 48.2667Z" fill="white"/>
</svg>
