<svg height="100" viewBox="0 0 100 100" width="100" xmlns="http://www.w3.org/2000/svg">
  <g data-name="Group 13613" id="Group_13613" transform="translate(-564 -241)">
    <rect data-name="Rectangle 3888" fill="#00a65a" height="100" id="Rectangle_3888" rx="10" transform="translate(564 241)" width="100"/>
    <g id="date" transform="translate(577 254)">
      <g data-name="Group 13511" id="Group_13511">
        <g data-name="Group 13510" id="Group_13510">
          <path d="M65.2,7.824H57.374V2.608a2.608,2.608,0,1,0-5.216,0V7.824H20.863V2.608a2.608,2.608,0,1,0-5.216,0V7.824H7.824A7.824,7.824,0,0,0,0,15.647V65.2a7.824,7.824,0,0,0,7.824,7.824H65.2A7.824,7.824,0,0,0,73.021,65.2V15.647A7.824,7.824,0,0,0,65.2,7.824ZM67.806,65.2A2.608,2.608,0,0,1,65.2,67.806H7.824A2.608,2.608,0,0,1,5.216,65.2v-33.9h62.59Zm0-39.119H5.216V15.647a2.608,2.608,0,0,1,2.608-2.608h7.824v5.216a2.608,2.608,0,0,0,5.216,0V13.039H52.158v5.216a2.608,2.608,0,1,0,5.216,0V13.039H65.2a2.608,2.608,0,0,1,2.608,2.608V26.079Z" data-name="Path 102519" fill="#fff" id="Path_102519" stroke="#00a65a" stroke-width="2"/>
        </g>
      </g>
      <g data-name="Group 13513" id="Group_13513" transform="translate(18.287 36.543)">
        <g data-name="Group 13512" id="Group_13512">
          <path d="M155.326,239.875a2.608,2.608,0,0,0-3.623,0l-19.02,19.019-8.588-8.588a2.608,2.608,0,0,0-3.688,3.688l10.432,10.432a2.608,2.608,0,0,0,3.688,0l20.863-20.863A2.608,2.608,0,0,0,155.326,239.875Z" data-name="Path 102520" fill="#fff" id="Path_102520" stroke="#00a65a" stroke-width="2" transform="translate(-119.676 -239.143)"/>
        </g>
      </g>
    </g>
  </g>
</svg>
