<svg height="100" viewBox="0 0 100 100" width="100" xmlns="http://www.w3.org/2000/svg">
  <g data-name="Group 13613" id="Group_13613" transform="translate(-564 -241)">
    <rect data-name="Rectangle 3888" fill="#0b62a4" height="100" id="Rectangle_3888" rx="10" transform="translate(564 241)" width="100"/>
    <g data-name="Group 13516" id="Group_13516" transform="translate(-102.188 -343)">
      <path d="M743.259,667.377h-54.9a3.676,3.676,0,0,0-.42-.14,7.225,7.225,0,0,1-5.746-6.987q-.014-22.626,0-45.253a7.243,7.243,0,0,1,4.517-6.588,11.278,11.278,0,0,1,4.393-.51c1,0,2,0,3.038,0,0-.738-.017-1.393,0-2.047a5.739,5.739,0,0,1,3.278-5.22A13.651,13.651,0,0,1,699.13,600h1.839a1.168,1.168,0,0,0,.231.111,5.88,5.88,0,0,1,4.757,6c0,.583,0,1.166,0,1.746h19.706c0-.7-.017-1.353,0-2.007a5.733,5.733,0,0,1,3.221-5.185,13.691,13.691,0,0,1,1.764-.662h1.839a1.169,1.169,0,0,0,.231.111,5.882,5.882,0,0,1,4.757,5.992c0,.583,0,1.167,0,1.8,1.651,0,3.221-.032,4.79.007a7.014,7.014,0,0,1,6.469,4.152,15.285,15.285,0,0,1,.7,2.023v47.111c-.047.139-.106.275-.14.417a7.227,7.227,0,0,1-4.925,5.445C744,667.18,743.629,667.27,743.259,667.377Zm-57.116-39.45c-.008.186-.017.3-.017.4q0,15.819,0,31.638a3.329,3.329,0,0,0,3.615,3.461q26.062,0,52.124,0a3.349,3.349,0,0,0,3.627-3.649q0-15.589,0-31.177v-.677Zm19.813-16.058c0,.691,0,1.324,0,1.957a5.907,5.907,0,0,1-11.814.013c0-.65,0-1.3,0-2-1.52,0-2.961,0-4.4,0a3.34,3.34,0,0,0-3.615,3.6q-.007,3.947,0,7.895c0,.19.02.38.032.578h59.326c0-3.021.046-6-.019-8.977a2.964,2.964,0,0,0-2.657-2.972c-1.747-.161-3.52-.037-5.33-.037,0,.585,0,1.174,0,1.762a5.909,5.909,0,1,1-11.815.029c0-.607,0-1.214,0-1.846Zm-7.88-2c0,1.248-.007,2.5,0,3.744a1.98,1.98,0,1,0,3.94,0q.013-3.744,0-7.488a1.98,1.98,0,1,0-3.94,0C698.07,607.375,698.077,608.623,698.077,609.871Zm35.466.058c0-1.27.008-2.54,0-3.81a1.98,1.98,0,1,0-3.94.012q-.011,3.744,0,7.488a1.98,1.98,0,1,0,3.94-.012C733.55,612.381,733.543,611.155,733.543,609.929Z" data-name="Path 102524" fill="#fff" id="Path_102524" stroke="#0b62a4" stroke-width="1.5"/>
      <path d="M808.971,795.286a7.9,7.9,0,1,1-12.958,7.5,9.174,9.174,0,0,1-.153-1.433,1.944,1.944,0,0,1,1.849-2.124,1.994,1.994,0,0,1,2.1,2.038,3.889,3.889,0,0,0,3.267,3.8,3.924,3.924,0,0,0,1.563-7.687,6.709,6.709,0,0,0-.973-.128,1.974,1.974,0,0,1,.022-3.946,3.948,3.948,0,1,0-.115-7.893,3.906,3.906,0,0,0-3.625,2.923,2.133,2.133,0,0,1-1.534,1.784,1.962,1.962,0,0,1-2.421-2.26,7.883,7.883,0,0,1,15.621,1.822,7.7,7.7,0,0,1-2.152,5.09C809.313,794.929,809.162,795.084,808.971,795.286Z" data-name="Path 102525" fill="#fff" id="Path_102525" stroke="#0b62a4" stroke-width="1.5" transform="translate(-93.726 -149.613)"/>
      <path d="M905.644,785.346c-1.071,0-2.032.007-2.994,0a1.971,1.971,0,1,1,.02-3.939c1.51-.007,3.023.063,4.528-.02a2.18,2.18,0,0,1,2.426,2.457c-.047,7.169-.02,14.338-.02,21.507,0,.5.006,1.009,0,1.513a1.975,1.975,0,0,1-2.015,2.171,2.005,2.005,0,0,1-1.943-2.192q0-10.26,0-20.521Z" data-name="Path 102526" fill="#fff" id="Path_102526" stroke="#0b62a4" stroke-width="1.5" transform="translate(-180.103 -149.555)"/>
    </g>
  </g>
</svg>
