<svg height="107.147" viewBox="0 0 348.505 107.147" width="348.505" xmlns="http://www.w3.org/2000/svg"><defs><style>.a{fill:#5b5b5b;}.a,.c{fill-rule:evenodd;}.b,.c{fill:#fe5c58;}</style></defs><g transform="translate(-89.133 -335.941)"><g transform="translate(205.429 372.749)"><path class="a" d="M268.108,450.326h1.8l11.935,22.652,11.934-22.652h1.8l4.729,31.524h-5.313L292.2,463.837l-9.457,18.014h-1.8l-9.5-18.014L268.7,481.85h-5.314Z" transform="translate(-263.381 -449.019)"/><path class="a" d="M336.711,450.326V469.87a7.34,7.34,0,1,0,14.681,0V450.326h5.4V469.87c0,8.692-6.349,13.061-12.746,13.061-6.35,0-12.744-4.369-12.744-13.061V459.74l5.4-4.37h-5.4v-5.044Z" transform="translate(-288.432 -449.019)"/><path class="a" d="M381.823,476.806h20.4v5.044h-20.4V450.326h5.4v21.662Z" transform="translate(-307.063 -449.019)"/><path class="a" d="M410.365,455.369v-5.044h25.942v5.044H425.991V481.85h-5.4V459.739l5.4-4.369Z" transform="translate(-317.589 -449.019)"/><path class="a" d="M464.858,450.326V481.85h-5.4V459.74l5.4-4.369h-5.4v-5.044Z" transform="translate(-335.694 -449.019)"/><path class="a" d="M493.569,473.548l3.965-3.109,9.279,13.1-3.963,3.109-9.279-13.1Zm16.62-7.88c0-10.988-8.106-16.483-16.213-16.483a16.259,16.259,0,0,0-12.522,5.539l3.739,3.963a11.08,11.08,0,0,1,8.783-4.052c5.449,0,10.943,3.647,10.943,11.033S499.428,476.7,493.977,476.7c-5.5,0-10.945-3.647-10.945-11.033a11.117,11.117,0,0,1,1.757-6.349H478.8a17.358,17.358,0,0,0-1.08,6.349c0,10.988,8.105,16.482,16.258,16.482C502.084,482.148,510.189,476.655,510.189,465.667Z" transform="translate(-342.428 -448.597)"/><path class="a" d="M568.627,465.666c0,10.988-8.106,16.482-16.213,16.482-8.151,0-16.257-5.491-16.257-16.482a18.346,18.346,0,0,1,1.036-6.35h6.032a11.13,11.13,0,0,0-1.8,6.35c0,7.385,5.5,11.033,10.989,11.033,5.45,0,10.945-3.647,10.945-11.033s-5.5-11.033-10.945-11.033a11.076,11.076,0,0,0-8.78,4.05l-3.738-3.963a16.251,16.251,0,0,1,12.519-5.539C560.521,449.182,568.627,454.677,568.627,465.666Z" transform="translate(-363.981 -448.596)"/><path class="a" d="M595.018,454.516c1.4-4.187,5.721-6.26,10.359-6.26a15.955,15.955,0,0,1,11.077,4.639l-3.558,3.964a10.842,10.842,0,0,0-7.7-3.287c-2.7,0-5.313.947-5.313,4.1a1.809,1.809,0,0,0,.18.855l-5.043-4.008ZM617.4,473.389c0,6.123-6.033,9.007-11.437,9.007-4.64,0-9.415-1.667-12.3-5.5l4.191-3.287c1.982,2.658,5.176,3.467,8.286,3.467,2.386,0,5.944-.9,5.944-3.872,0-5.764-15.808-5.45-17.386-14.23h5.586c2.522,4.048,17.114,4.319,17.114,14.408Z" transform="translate(-385.191 -448.256)"/></g><g transform="translate(89.133 335.941)"><rect class="b" height="15.009" transform="translate(0 0)" width="15.166"/><rect class="b" height="15.009" transform="translate(15.011 14.851)" width="15.005"/><rect class="b" height="15.007" transform="translate(0 29.705)" width="15.166"/><rect class="b" height="15.009" transform="translate(29.861 0)" width="15.005"/><path class="c" d="M79.391,443.627v-.122a51.852,51.852,0,0,1,.46-6.943H96.114V421.7h14.855V406.835h14.855v-16.27a52.792,52.792,0,0,1,6.953-.459h.123a53.522,53.522,0,1,1-53.508,53.517Zm31.271,7.432h0v-14.5H96.175v14.5h-9v8.991h9V451.06Zm36.509,26.363h0a33.8,33.8,0,1,0-33.816-33.8,33.8,33.8,0,0,0,33.816,33.8Z" transform="translate(-79.228 -390.002)"/><path class="c" d="M162.01,480.7v-25.69a10.562,10.562,0,0,1,.834-4.12,10.869,10.869,0,0,1,2.3-3.437,11.161,11.161,0,0,1,3.431-2.3,10.637,10.637,0,0,1,4.127-.831h.126a10.609,10.609,0,0,1,7.114,2.777,10.408,10.408,0,0,1,3.325-2.06,10.2,10.2,0,0,1,3.768-.715h.138a10.622,10.622,0,0,1,4.114.83,11.022,11.022,0,0,1,3.433,2.3,10.7,10.7,0,0,1,2.3,3.437,10.57,10.57,0,0,1,.844,4.12v25.69h-7.156V455.08a3.451,3.451,0,0,0-.285-1.4,3.888,3.888,0,0,0-.781-1.136,3.593,3.593,0,0,0-5.077,0,3.618,3.618,0,0,0-1.045,2.533v25.626h-7.177V455.079a3.633,3.633,0,0,0-.275-1.4,3.459,3.459,0,0,0-.757-1.136,3.672,3.672,0,0,0-1.14-.767,3.622,3.622,0,0,0-1.4-.273,3.7,3.7,0,0,0-1.4.273,3.59,3.59,0,0,0-2.174,3.3V480.7Z" transform="translate(-109.698 -409.998)"/></g></g></svg>
