<svg fill="none" height="75" viewBox="0 0 84 75" width="84" xmlns="http://www.w3.org/2000/svg">
<rect height="75" width="75" x="4"/>
<path d="M64.6501 32.6212V21.2428C64.6501 17.2323 61.3876 13.9698 57.3771 13.9698H49.78L49.7807 7.27305C49.7807 3.26248 46.5182 0 42.5077 0H22.1431C18.1326 0 14.8701 3.26248 14.8701 7.27305V13.9698H7.27305C3.26248 13.9698 0 17.2323 0 21.2428V57.3362C0 61.3468 3.26248 64.6092 7.27305 64.6092H43.9638C47.6781 70.8263 54.473 75 62.2261 75C73.9494 75 83.4859 65.463 83.4859 53.7402C83.4859 42.8374 75.2341 33.8294 64.6487 32.6224L64.6501 32.6212ZM19.7183 7.27287C19.7183 5.93623 20.8053 4.84852 22.1426 4.84852H42.5072C43.8445 4.84852 44.9315 5.93623 44.9315 7.27287V13.9696H19.7183V7.27287ZM41.8405 59.76H7.27272C5.93539 59.76 4.84837 58.6723 4.84837 57.3357V21.2423C4.84837 19.9057 5.93539 18.818 7.27272 18.818H57.3771C58.7144 18.818 59.8014 19.9057 59.8014 21.2423V32.6193C49.2165 33.8274 40.966 42.8348 40.966 53.7371C40.966 55.8286 41.2758 57.8484 41.8406 59.7586L41.8405 59.76ZM62.2258 70.1508C53.1764 70.1508 45.8141 62.7884 45.8141 53.7392C45.8141 44.6898 53.1765 37.3275 62.2258 37.3275C71.275 37.3275 78.6374 44.6899 78.6374 53.7392C78.6381 62.7886 71.2757 70.1508 62.2258 70.1508ZM61.6237 42.321C60.2844 42.321 59.1994 43.406 59.1994 44.7453V54.7653C59.1994 56.1047 60.2844 57.1897 61.6237 57.1897C62.9631 57.1897 64.0481 56.1047 64.0481 54.7653V44.7453C64.0481 43.406 62.9631 42.321 61.6237 42.321ZM61.6237 59.6154C60.2844 59.6154 59.1994 60.7004 59.1994 62.0398V62.2014C59.1994 63.5408 60.2844 64.6258 61.6237 64.6258C62.9631 64.6258 64.0481 63.5408 64.0481 62.2014V62.0398C64.0481 60.7004 62.9631 59.6154 61.6237 59.6154Z" fill="white"/>
</svg>
