<svg height="14.429" id="menu" viewBox="0 0 19.979 14.429" width="19.979" xmlns="http://www.w3.org/2000/svg">
  <path d="M19.146,124.389H.832a.861.861,0,0,1,0-1.721H19.146a.861.861,0,0,1,0,1.721Zm0,0" data-name="Path 24" fill="#fe5c58" id="Path_24" transform="translate(0 -116.314)"/>
  <path d="M19.146,1.721H.832A.847.847,0,0,1,0,.861.847.847,0,0,1,.832,0H19.146a.847.847,0,0,1,.832.861A.847.847,0,0,1,19.146,1.721Zm0,0" data-name="Path 25" fill="#fe5c58" id="Path_25"/>
  <path d="M19.146,247.053H.832a.861.861,0,0,1,0-1.721H19.146a.861.861,0,0,1,0,1.721Zm0,0" data-name="Path 26" fill="#fe5c58" id="Path_26" transform="translate(0 -232.625)"/>
</svg>
