<svg data-name="Component 25 – 48" height="45" id="Component_25_48" viewBox="0 0 45 45" width="45" xmlns="http://www.w3.org/2000/svg">
  <g data-name="Path 33596" fill="none" id="Path_33596">
    <path d="M22.5,0A22.5,22.5,0,1,1,0,22.5,22.5,22.5,0,0,1,22.5,0Z" stroke="none"/>
    <path d="M 22.5 1 C 19.59708023071289 1 16.78152084350586 1.568321228027344 14.13154029846191 2.689170837402344 C 11.57144927978516 3.771991729736328 9.272048950195312 5.322360992431641 7.297199249267578 7.297199249267578 C 5.322360992431641 9.272048950195312 3.771991729736328 11.57144927978516 2.689170837402344 14.13154029846191 C 1.568321228027344 16.78152084350586 1 19.59708023071289 1 22.5 C 1 25.40291976928711 1.568321228027344 28.21847915649414 2.689170837402344 30.86845970153809 C 3.771991729736328 33.42855072021484 5.322360992431641 35.72795104980469 7.297199249267578 37.70280075073242 C 9.272048950195312 39.67763900756836 11.57144927978516 41.22800827026367 14.13154029846191 42.31082916259766 C 16.78152084350586 43.43167877197266 19.59708023071289 44 22.5 44 C 25.40291976928711 44 28.21847915649414 43.43167877197266 30.86845970153809 42.31082916259766 C 33.42855072021484 41.22800827026367 35.72795104980469 39.67763900756836 37.70280075073242 37.70280075073242 C 39.67763900756836 35.72795104980469 41.22800827026367 33.42855072021484 42.31082916259766 30.86845970153809 C 43.43167877197266 28.21847915649414 44 25.40291976928711 44 22.5 C 44 19.59708023071289 43.43167877197266 16.78152084350586 42.31082916259766 14.13154029846191 C 41.22800827026367 11.57144927978516 39.67763900756836 9.272048950195312 37.70280075073242 7.297199249267578 C 35.72795104980469 5.322360992431641 33.42855072021484 3.771991729736328 30.86845970153809 2.689170837402344 C 28.21847915649414 1.568321228027344 25.40291976928711 1 22.5 1 M 22.5 0 C 34.92641067504883 0 45 10.07358932495117 45 22.5 C 45 34.92641067504883 34.92641067504883 45 22.5 45 C 10.07358932495117 45 0 34.92641067504883 0 22.5 C 0 10.07358932495117 10.07358932495117 0 22.5 0 Z" fill="#5b5b5b" stroke="none"/>
  </g>
  <g data-name="Group 8928" id="Group_8928" transform="translate(-1645.877 -24.595)">
    <path d="M22.137,18.766l-1.711-3.308a3.037,3.037,0,0,1-.342-1.369V10.212c0-2.851-2.623-5.246-5.931-5.475h0V3.026a1.026,1.026,0,0,0-2.053,0v1.6h0c-3.308.228-5.931,2.623-5.931,5.589V14.2a3.037,3.037,0,0,1-.342,1.369L4.116,18.652a1.091,1.091,0,0,0,0,1.026,1.163,1.163,0,0,0,.912.57H21.11a1.408,1.408,0,0,0,.912-.456A1.135,1.135,0,0,0,22.137,18.766ZM6.853,18.2l.912-1.6a5.192,5.192,0,0,0,.57-2.281V10.212c0-1.939,1.939-3.422,4.334-3.422H13.7c2.4,0,4.334,1.6,4.334,3.422V14.2a5.192,5.192,0,0,0,.57,2.281l.912,1.825H6.853Zm9.58,2.965H15.407c-.228,0-.456.114-.456.342a1.95,1.95,0,0,1-1.825,1.483A1.748,1.748,0,0,1,11.3,21.5c0-.228-.228-.342-.456-.342H9.819c-.342,0-.57.228-.456.57a3.722,3.722,0,0,0,3.764,3.079,3.722,3.722,0,0,0,3.764-3.079A.522.522,0,0,0,16.434,21.161Z" data-name="Path 33595" fill="#5b5b5b" id="Path_33595" transform="translate(1654.893 33.595)"/>
    <circle cx="3.5" cy="3.5" data-name="Ellipse 580" fill="#fe5c58" id="Ellipse_580" r="3.5" transform="translate(1670 37)"/>
  </g>
</svg>
