<svg height="23.244" viewBox="0 0 25.204 23.244" width="25.204" xmlns="http://www.w3.org/2000/svg">
  <g id="noun_Project_2998626" transform="translate(-2.5 -6.4)">
    <g data-name="Group 8439" id="Group_8439" transform="translate(2.5 6.4)">
      <path d="M27.9,70.43a.956.956,0,0,0,.96.96H34a2.146,2.146,0,0,1,.133-.906l.427-.986h-5.7A.933.933,0,0,0,27.9,70.43Z" data-name="Path 33518" fill="#5b5b5b" id="Path_33518" transform="translate(-21.176 -52.677)"/>
      <path d="M21.842,26.792a.953.953,0,0,1-.954.96H7.481a.953.953,0,0,1-.954-.96V9.252a.953.953,0,0,1,.954-.96H20.915a.953.953,0,0,1,.954.96v7.57L23.776,15.2V9.252A2.847,2.847,0,0,0,20.941,6.4H7.481A2.847,2.847,0,0,0,4.646,9.252v1.013H3.454a.953.953,0,0,0-.954.96v1.306a.953.953,0,0,0,.954.96H4.646v2.932H3.454a.953.953,0,0,0-.954.96v1.306a.953.953,0,0,0,.954.96H4.646v2.906H3.454a.953.953,0,0,0-.954.96V24.82a.953.953,0,0,0,.954.96H4.646v1.013a2.847,2.847,0,0,0,2.835,2.852H20.915a2.847,2.847,0,0,0,2.835-2.852v-3.2l-1.908,1.626Z" data-name="Path 33519" fill="#5b5b5b" id="Path_33519" transform="translate(-2.5 -6.4)"/>
      <path d="M57.284,65.76l-.8,1.866a.467.467,0,0,0,.533.64l1.973-.48a3.14,3.14,0,0,0,1.04-.506L57.923,64.8A3.182,3.182,0,0,0,57.284,65.76Z" data-name="Path 33520" fill="#5b5b5b" id="Path_33520" transform="translate(-42.148 -49.233)"/>
      <path d="M74.377,42.7l-.8-.933a1.032,1.032,0,0,0-1.493-.107L66.3,46.617l2.159,2.532,5.811-4.958A1.08,1.08,0,0,0,74.377,42.7Z" data-name="Path 33521" fill="#5b5b5b" id="Path_33521" transform="translate(-49.422 -32.063)"/>
      <path d="M37.6,27.325l-1.226-.133c-.053,0-.08-.027-.107-.08l-.16-.4a.121.121,0,0,1,0-.133l.8-.96a.407.407,0,0,0-.027-.533l-.746-.746a.405.405,0,0,0-.533-.027l-.96.8a.2.2,0,0,1-.133.027,2.5,2.5,0,0,0-.4-.16c-.053-.027-.08-.053-.08-.107l-.133-1.226a.4.4,0,0,0-.4-.347H32.425a.426.426,0,0,0-.4.347l-.133,1.226c0,.053-.027.08-.08.107l-.4.16c-.053.027-.08.027-.133-.027l-.96-.8a.407.407,0,0,0-.533.027l-.72.773a.405.405,0,0,0-.027.533l.8.96a.119.119,0,0,1,0,.133,2.5,2.5,0,0,0-.16.4c-.027.053-.053.08-.107.08l-1.226.133a.4.4,0,0,0-.347.4v1.066a.426.426,0,0,0,.347.4l1.226.133c.053,0,.08.027.107.08l.16.4a.121.121,0,0,1,0,.133l-.8.96a.407.407,0,0,0,.027.533l.746.746a.405.405,0,0,0,.533.027l.96-.8a.2.2,0,0,1,.133-.027,2.5,2.5,0,0,0,.4.16c.053.027.08.053.08.107l.133,1.226a.4.4,0,0,0,.4.347h1.066a.426.426,0,0,0,.4-.347l.133-1.226c0-.053.027-.08.08-.107l.4-.16c.053-.027.08-.027.133.027l.96.8a.407.407,0,0,0,.533-.027l.746-.746a.405.405,0,0,0,.027-.533l-.8-.96a.119.119,0,0,1,0-.133,2.5,2.5,0,0,0,.16-.4c.027-.053.053-.08.107-.08l1.226-.133a.4.4,0,0,0,.347-.4V27.752A.433.433,0,0,0,37.6,27.325Zm-4.612,2.826A1.919,1.919,0,1,1,34.9,28.231,1.911,1.911,0,0,1,32.985,30.151Z" data-name="Path 33522" fill="#5b5b5b" id="Path_33522" transform="translate(-21.26 -18.795)"/>
    </g>
  </g>
</svg>
