<svg fill="none" height="75" viewBox="0 0 75 75" width="75" xmlns="http://www.w3.org/2000/svg">
<rect height="75" width="75"/>
<path d="M37.5 0C16.8754 0 0 16.8754 0 37.5C0 58.1246 16.8754 75 37.5 75C58.1246 75 75 58.1246 75 37.5C75 16.8754 58.1246 0 37.5 0ZM37.5 72.75C18.1248 72.75 2.25 57.0002 2.25 37.5C2.25 18.0002 18.1252 2.25 37.5 2.25C56.8748 2.25 72.75 18.1252 72.75 37.5C72.75 56.8748 56.8748 72.75 37.5 72.75V72.75ZM31.8752 39.75H29.6257V14.75H31.8752V39.75ZM38.6248 37.5004H36.3752V12.5004H38.6248V37.5004ZM45.5 39.75H43.2504V14.75H45.5V39.75ZM52.2496 28.3757V44.2509C52.2496 44.3756 52.1249 61.25 37.5 61.25C22.8751 61.25 22.7504 44.3754 22.7504 44.3754V21.6254H25V44.3754C25 45.0006 25.1247 59.125 37.5 59.125C49.8753 59.125 50 45.0007 50 44.3754V28.5002H52.2496V28.3757Z" fill="white"/>
</svg>
