<svg height="21.089" viewBox="0 0 18.98 21.089" width="18.98" xmlns="http://www.w3.org/2000/svg">
  <path d="M16.708,14.653H8.272a1.054,1.054,0,1,0,0,2.109h8.435a1.054,1.054,0,0,0,0-2.109Zm0-4.218H10.381a1.054,1.054,0,1,0,0,2.109h6.327a1.054,1.054,0,0,0,0-2.109Zm4.218-6.327H17.762V3.054a1.054,1.054,0,1,0-2.109,0V4.109H13.544V3.054a1.054,1.054,0,1,0-2.109,0V4.109H9.327V3.054a1.054,1.054,0,1,0-2.109,0V4.109H4.054A1.054,1.054,0,0,0,3,5.163V19.925a3.163,3.163,0,0,0,3.163,3.163H18.816a3.163,3.163,0,0,0,3.163-3.163V5.163A1.054,1.054,0,0,0,20.925,4.109ZM19.871,19.925a1.054,1.054,0,0,1-1.054,1.054H6.163a1.054,1.054,0,0,1-1.054-1.054V6.218H7.218V7.272a1.054,1.054,0,1,0,2.109,0V6.218h2.109V7.272a1.054,1.054,0,1,0,2.109,0V6.218h2.109V7.272a1.054,1.054,0,1,0,2.109,0V6.218h2.109Z" data-name="Path 33571" fill="#5b5b5b" id="Path_33571" transform="translate(-3 -2)"/>
</svg>
