<svg height="33" viewBox="0 0 32.993 33" width="32.993" xmlns="http://www.w3.org/2000/svg">
  <g id="pie-chart" transform="translate(-0.05)">
    <g data-name="Group 928" id="Group_928" transform="translate(0.05)">
      <path d="M28.574,64.894H15.715V52.035a.931.931,0,0,0-.935-.935A14.73,14.73,0,1,0,29.51,65.83.94.94,0,0,0,28.574,64.894ZM14.78,78.689a12.859,12.859,0,0,1-.935-25.684V65.83a.931.931,0,0,0,.935.935H27.6A12.872,12.872,0,0,1,14.78,78.689Z" data-name="Path 33499" fill="#007bff" id="Path_33499" transform="translate(-0.05 -47.56)"/>
      <path d="M265.815,14.681A14.728,14.728,0,0,0,251.085,0a.931.931,0,0,0-.935.935V14.73a.931.931,0,0,0,.935.935H264.88a.931.931,0,0,0,.935-.935Zm-13.794-.88V1.912A12.868,12.868,0,0,1,263.91,13.8H252.021Z" data-name="Path 33500" fill="#007bff" id="Path_33500" transform="translate(-232.822)"/>
    </g>
  </g>
</svg>
