<svg height="67.372" viewBox="0 0 67.372 67.372" width="67.372" xmlns="http://www.w3.org/2000/svg">
  <g data-name="Group 9030" id="Group_9030" transform="translate(-1802.8 -792.8)">
    <path d="M793.6-1524.457a13.392,13.392,0,0,1,1.206-2.844,5.752,5.752,0,0,1,7.454-1.747c2.8,1.368,5.569,2.78,8.355,4.169a4.743,4.743,0,0,0,.781.326,1.324,1.324,0,0,0,1.691-1.081,6.251,6.251,0,0,0,.036-.913q0-18.08,0-36.161a5.573,5.573,0,0,1,2.335-4.98,14.383,14.383,0,0,1,2.605-1.111h1.308a6.29,6.29,0,0,1,3.407,1.773,5.975,5.975,0,0,1,1.531,4.25q-.005,8.5,0,16.994v.878a8.6,8.6,0,0,1,5.625-1.512c.079-.541.124-1.016.219-1.481a15.327,15.327,0,0,1,12.7-12.328,15.293,15.293,0,0,1,16.657,9.64c.483,1.338.715,2.767,1.063,4.154v2.747a3.424,3.424,0,0,0-.122.429,15.075,15.075,0,0,1-10.314,12.663.93.93,0,0,0-.731,1.061c0,4.881.174,9.773-.1,14.639-.335,5.874-3.521,9.923-8.957,12.135a26.965,26.965,0,0,1-3.581.931H821.2a4.907,4.907,0,0,0-.508-.106,18.242,18.242,0,0,1-10.813-5.02q-7.713-7.209-15.43-14.414a7.969,7.969,0,0,1-.848-1.127Zm36.3-19.111a5.259,5.259,0,0,0-3.951.926c-.745.492-1.476,1.008-2.237,1.474a1.384,1.384,0,0,1-2.2-1.094,5.92,5.92,0,0,1-.014-.653q0-8.631,0-17.263c0-1.068.023-2.137-.023-3.2a2.707,2.707,0,0,0-2.54-2.6,2.729,2.729,0,0,0-2.89,2.046,5.351,5.351,0,0,0-.1,1.3q-.008,12.849,0,25.7,0,5.362,0,10.724a4.392,4.392,0,0,1-1.264,3.321,4.143,4.143,0,0,1-4.95.687c-2.869-1.416-5.72-2.868-8.59-4.282a3.1,3.1,0,0,0-4.714,2.561,1.254,1.254,0,0,0,.349.892q7.528,7.075,15.092,14.112a15.041,15.041,0,0,0,9.987,4.26c2.025.07,4.053.059,6.079.053,2.833-.007,5.671.059,8.5-.088a10.991,10.991,0,0,0,10.145-10.465c.092-4.728.035-9.459.04-14.189a2.547,2.547,0,0,0-.07-.425A15.526,15.526,0,0,1,829.9-1543.568Zm27.885-1.415a12.54,12.54,0,0,0-12.475-12.643,12.548,12.548,0,0,0-12.631,12.347,12.568,12.568,0,0,0,12.3,12.733A12.565,12.565,0,0,0,857.782-1544.982Z" data-name="Path 33635" fill="#fff" id="Path_33635" stroke="#fff" stroke-width="0.4" transform="translate(1009.4 2361.8)"/>
    <path d="M1100.763-1477.733c0-1.373-.015-2.747.007-4.12a1.385,1.385,0,0,1,1.1-1.43,1.334,1.334,0,0,1,1.543.807,2.917,2.917,0,0,1,.124.962c.01,2.245.017,4.49,0,6.735a1.358,1.358,0,0,0,.459,1.08c1.064,1.031,2.1,2.093,3.151,3.137a1.485,1.485,0,0,1,.467,1.709,1.381,1.381,0,0,1-2.28.412c-.582-.525-1.117-1.1-1.672-1.657-.74-.74-1.469-1.49-2.223-2.216a2.078,2.078,0,0,1-.68-1.627C1100.779-1475.2,1100.763-1476.468,1100.763-1477.733Z" data-name="Path 33636" fill="#fff" id="Path_33636" stroke="#fff" stroke-width="0.4" transform="translate(752.467 2290.288)"/>
  </g>
</svg>
