<svg height="73.037" viewBox="0 0 73.054 73.037" width="73.054" xmlns="http://www.w3.org/2000/svg">
  <g data-name="Group 9028" id="Group_9028" transform="translate(-1013 -791)">
    <path d="M1503.2-363.307c.589-1.237,1.749-.976,2.854-1.014v-.808q0-5.921,0-11.842c0-1.354.491-1.847,1.85-1.85q3.567-.007,7.134,0c1.363,0,1.858.495,1.858,1.843q0,5.921,0,11.842v.8h3.281v-.828q0-12.377,0-24.755c0-1.472.446-1.92,1.911-1.921q3.6,0,7.205,0c1.214,0,1.726.52,1.726,1.747q0,12.413,0,24.826v.907h3.282v-.818q0-8.6,0-17.193c0-1.462.45-1.908,1.923-1.909h6.991c1.474,0,1.929.448,1.929,1.9q0,8.6,0,17.193v.828h3.282v-.834q0-12.342,0-24.683c0-1.527.433-1.968,1.934-1.968q3.567,0,7.134,0c1.276,0,1.774.5,1.774,1.771q0,12.413,0,24.826v.892h3.282v-.85q0-20.831,0-41.662c0-1.581.406-1.992,1.972-1.992q3.5,0,6.991,0c1.434,0,1.88.446,1.88,1.87q0,20.867,0,41.733v.947h.933c1.106,0,1.657.315,1.868,1.061.188.668-.1,1.213-.946,1.793H1503.2Zm67.3-1.027v-41.615h-5.053v41.615Zm-47.419-24.624v24.618h5.047v-24.618Zm28.248,0v24.593h5.053v-24.593Zm-9.087,24.618v-17.031H1537.2v17.031Zm-33.286-11.595v11.57h5.034v-11.57Z" data-name="Path 33630" fill="#fff" id="Path_33630" transform="translate(-490.2 1225.489)"/>
    <path d="M1503.2-550.212a12.77,12.77,0,0,1,.847-1.041q13.561-13.577,27.134-27.143c1.11-1.11,1.7-1.109,2.815,0q6.029,6.027,12.054,12.058c.184.185.34.4.459.539l15.284-15.307c-.3-.274-.714-.622-1.088-1.012a1.418,1.418,0,0,1,.668-2.488q6.494-1.765,13-3.487a1.412,1.412,0,0,1,1.805,1.786q-1.722,6.506-3.487,13a1.43,1.43,0,0,1-2.536.645c-.288-.277-.555-.576-.9-.934-.975.989-1.886,1.918-2.8,2.841q-1.458,1.468-2.927,2.925a1.449,1.449,0,0,1-2.2.192,1.446,1.446,0,0,1,.174-2.2q3.171-3.185,6.353-6.358c1.03-1.031,1.484-1.072,2.711-.183l2.234-8.341-8.382,2.24c.223.247.381.41.527.584a1.416,1.416,0,0,1,.018,1.889c-.321.381-.691.719-1.044,1.072q-7.918,7.921-15.838,15.84c-1.1,1.1-1.717,1.1-2.816,0q-6.028-6.027-12.053-12.058a5.7,5.7,0,0,1-.442-.549l-25.859,25.881,3.318,3.319a2.348,2.348,0,0,1,.357-.581q10.279-10.3,20.574-20.587c1.142-1.142,1.715-1.139,2.866.011q6.028,6.028,12.052,12.06a9.128,9.128,0,0,1,.639.863,5.662,5.662,0,0,1,.541-.844q2.887-2.914,5.8-5.806a1.457,1.457,0,0,1,2.2-.195,1.441,1.441,0,0,1-.172,2.2q-3.574,3.589-7.162,7.163a1.52,1.52,0,0,1-2.512-.022q-6.106-6.1-12.205-12.209a4.2,4.2,0,0,0-.8-.726,3.529,3.529,0,0,1-.441.733q-10.279,10.3-20.58,20.581a2.257,2.257,0,0,1-1.021.719,1.717,1.717,0,0,1-1.3-.3c-1.875-1.789-3.686-3.643-5.515-5.48a4.393,4.393,0,0,1-.342-.441Z" data-name="Path 33631" fill="#fff" id="Path_33631" transform="translate(-490.2 1379.15)"/>
    <path d="M1879.984-430.6a1.434,1.434,0,0,1-1.414-1.391,1.459,1.459,0,0,1,1.438-1.449,1.432,1.432,0,0,1,1.4,1.473A1.409,1.409,0,0,1,1879.984-430.6Z" data-name="Path 33632" fill="#fff" id="Path_33632" transform="translate(-811.908 1246.557)"/>
  </g>
</svg>
