<svg height="58.452" viewBox="0 0 47.764 58.452" width="47.764" xmlns="http://www.w3.org/2000/svg"><defs><style>.a{fill:#fe5c58;}.b{fill:none;stroke:#fe5c58;stroke-linecap:round;}</style></defs><g transform="translate(-1805.562 -160.548)"><g transform="translate(800.004 9)"><g transform="translate(-792.838 42.66)"><path class="a" d="M4.946,39.267a17.186,17.186,0,0,1-1.926-.124A3.63,3.63,0,0,1,.006,35.579C-.013,33.9,0,32.23,0,30.556Q0,14.586,0-1.388a3.667,3.667,0,0,1,3.13-3.817,4.667,4.667,0,0,1,.777-.045q10.509,0,21.021-.01a1.367,1.367,0,0,1,1.03.431Q29.177-1.7,32.425,1.389a1.491,1.491,0,0,1,.552,1.318,10.209,10.209,0,0,0-.007,1.062c.386.068.742.1,1.08.2a3.58,3.58,0,0,1,2.622,3.477c.013,2.617,0,5.234,0,7.852V38.751a3.664,3.664,0,0,1-4.007,3.99H8.92A3.687,3.687,0,0,1,4.946,39.267ZM24.68-4.081H3.956A2.53,2.53,0,0,0,1.172-1.305V35.268a2.549,2.549,0,0,0,2.78,2.79H29.016A2.56,2.56,0,0,0,31.8,35.264V2.747H25.583c-.769,0-.9-.134-.9-.909C24.679-.112,24.68-2.061,24.68-4.081ZM6.158,39.229a2.48,2.48,0,0,0,2.624,2.34q11.945,0,23.89,0a2.517,2.517,0,0,0,2.833-2.855V7.8c0-.179.005-.358-.007-.537a2.35,2.35,0,0,0-2.529-2.217V35.218a3.731,3.731,0,0,1-4.02,4.01H6.158ZM25.865,1.554H30.9L25.865-3.273Z" transform="translate(1798.4 124.6)"/><path class="a" d="M79.5,108.092c-.314-.107-.6-.209-.9-.3a.712.712,0,0,1-.539-.765A7.343,7.343,0,0,1,85.135,99.9a.749.749,0,0,1,.85.616c.062.232.155.453.244.708a9.388,9.388,0,0,1,8.81,2.181,9,9,0,0,1,3.065,6.919,9.435,9.435,0,1,1-18.6-2.229Zm1.179.384a8.181,8.181,0,0,0,3.943,9.06,8.252,8.252,0,0,0,10.682-12.1,8.054,8.054,0,0,0-8.687-3.012l1.5,4.522c.355,1.06.728,2.119,1.047,3.191a.936.936,0,0,1-.093.785c-.15.146-.519.075-.793.088a.591.591,0,0,1-.183-.063Zm4.259-7.384c-.215.026-.375.042-.534.063a6.128,6.128,0,0,0-5.09,5.089c-.039.287-.1.533.324.667,2.609.843,5.207,1.721,7.81,2.584a1.949,1.949,0,0,0,.306.042C86.812,106.7,85.885,103.914,84.942,101.092Z" transform="translate(1724.75 25.402)"/><path class="a" d="M121.952,579.843h9.215c.146,0,.337-.052.43.019.2.151.469.368.471.559s-.266.414-.46.567c-.09.073-.283.022-.428.022H112.7a2.4,2.4,0,0,1-.389-.008c-.331-.057-.581-.262-.5-.59a1.247,1.247,0,0,1,.5-.554c.1-.071.283-.018.43-.018Z" transform="translate(1692.935 -427.329)"/><path class="a" d="M121.04,643.614h7.842c.146,0,.337-.052.428.021.2.154.469.374.467.567s-.283.4-.471.567c-.065.057-.219.017-.333.017H113.1c-.13,0-.308.043-.38-.023-.183-.17-.428-.384-.439-.59-.009-.174.257-.39.444-.532.095-.072.283-.023.429-.023Q117.095,643.613,121.04,643.614Z" transform="translate(1692.481 -487.491)"/><path class="a" d="M118.408,514.521h5.8c.13,0,.3-.046.381.018.194.159.475.368.477.56s-.27.414-.464.57c-.091.073-.283.022-.428.022h-11.5c-.1,0-.195,0-.292,0-.38-.02-.623-.2-.614-.6.007-.373.243-.546.6-.567.113-.006.227,0,.34,0Z" transform="translate(1692.964 -365.714)"/><path class="a" d="M44.746,95.36V92.046c0-.528.2-.786.584-.786s.585.258.585.785q0,3.314,0,6.629c0,.5-.237.805-.607.764-.445-.049-.567-.355-.567-.764C44.755,97.569,44.746,96.464,44.746,95.36Z" transform="translate(1756.191 33.549)"/><path class="a" d="M44.85,48.593c0-.514.2-.778.592-.774s.58.268.578.788c0,.5-.217.789-.593.784S44.849,49.1,44.85,48.593Z" transform="translate(1756.087 74.528)"/></g></g><g transform="translate(-2 5)"><g transform="translate(-3.867 1.089)"><g transform="translate(1850.039 159.219)"><g transform="translate(0 0)"><line class="b" y2="4.968"/><line class="b" transform="translate(3.559)" y2="4.968"/></g></g></g><path class="a" d="M10.173,2A7.172,7.172,0,0,0,3,9.172v.6a.554.554,0,0,0,1.1-.094q0-.248,0-.508a6.069,6.069,0,1,1,4.353,5.821.552.552,0,0,0-.381,0l-2.014.927.425-1.484a.552.552,0,0,0-.177-.552,6.135,6.135,0,0,1-1.578-2,.552.552,0,1,0-.988.491,7.255,7.255,0,0,0,1.589,2.119l-.679,2.257a.552.552,0,0,0,.756.657l2.913-1.3A7.172,7.172,0,1,0,10.173,2Z" transform="translate(1838 153.548)"/></g></g></svg>
