<svg height="68.028" viewBox="0 0 68.03 68.028" width="68.03" xmlns="http://www.w3.org/2000/svg">
  <g data-name="Group 9026" id="Group_9026" transform="translate(-1803 -284)">
    <path d="M2019.328,154h2.524c.5.089.995.181,1.494.265a15.969,15.969,0,0,1,12.985,13.8c.19,1.888.146,3.8.185,5.7a11.209,11.209,0,0,1-.919,4.651,4.015,4.015,0,0,1-2.1,2.2,1.017,1.017,0,0,0-.6.834,27.446,27.446,0,0,1-1.137,3.927,11.548,11.548,0,0,1-3.961,4.812,1.011,1.011,0,0,0,.1,1.683c.737.429,1.411.967,2.116,1.453.19.131.393.345.591.345a13.87,13.87,0,0,1,4.905.93c.51-.573.956-1.121,1.45-1.621,1.688-1.706,2.054-1.8,4.233-.809a2.311,2.311,0,0,0,1.845,0,3.644,3.644,0,0,0,2.771-2.8,1.676,1.676,0,0,1,1.627-1.265,29.5,29.5,0,0,1,3.11.012,1.784,1.784,0,0,1,1.525,1.13,6.625,6.625,0,0,1,.451,1.1c.2.744.694,1.056,1.371,1.41a3.671,3.671,0,0,0,3.878-.024,1.819,1.819,0,0,1,2.215.342c.651.6,1.275,1.228,1.879,1.874a1.85,1.85,0,0,1,.363,2.271,3.566,3.566,0,0,0-.031,3.813c.367.682.664,1.206,1.447,1.42a2.8,2.8,0,0,1,2.322,2.091v2.923a2.241,2.241,0,0,1-1.524,1.763,3.316,3.316,0,0,0-2.532,2.426,2.61,2.61,0,0,0,.022,2.393,2.6,2.6,0,0,1-.643,3.659c-.117.1-.215.223-.325.333-1.706,1.7-2.074,1.8-4.238.809a2.3,2.3,0,0,0-1.844,0,3.656,3.656,0,0,0-2.771,2.8,1.686,1.686,0,0,1-1.627,1.269,27.352,27.352,0,0,1-3.045,0,1.887,1.887,0,0,1-1.652-1.261,3.745,3.745,0,0,1-.338-.862c-.195-1.227-1.139-1.471-2.169-1.729,0,.488,0,.927,0,1.366a2.291,2.291,0,0,1-2.569,2.58q-20.09,0-40.179,0a2.3,2.3,0,0,1-2.59-2.568c0-4.538-.01-9.076.008-13.614a11.737,11.737,0,0,1,.2-2.242,12.409,12.409,0,0,1,11.972-9.889,1.7,1.7,0,0,0,1.271-.519,7.674,7.674,0,0,1,1.717-1.218c.908-.489,1-1.254.183-1.886a12.626,12.626,0,0,1-5.015-8.8.937.937,0,0,0-.465-.594,4.008,4.008,0,0,1-2.069-2.064,10.857,10.857,0,0,1-.863-2.974,58.027,58.027,0,0,1-.124-6.164,15.921,15.921,0,0,1,10.787-14.592C2016.765,154.49,2018.063,154.3,2019.328,154Zm15.089,19.969-.142-.039a5.334,5.334,0,0,0-.087-1.187,2.686,2.686,0,0,0-.549-.744c-.211.179-.491.318-.619.544a1.151,1.151,0,0,1-1.23.706,1.089,1.089,0,0,1-.967-1.1c-.013-.154-.013-.31-.013-.465a5.521,5.521,0,0,0-2.08-4.342,9,9,0,0,0-3.495-1.838,1.449,1.449,0,0,0-.868.121c-1.625.683-3.2,1.507-4.862,2.072a30.874,30.874,0,0,1-8,1.465c-.974.062-1.082.182-1.084,1.164,0,.6.019,1.2-.01,1.793a1.092,1.092,0,0,1-.961,1.106,1.142,1.142,0,0,1-1.2-.637,3.3,3.3,0,0,0-.656-.592c-.2.292-.534.568-.568.878a8.453,8.453,0,0,0,.732,4.659,2.237,2.237,0,0,0,1.087,1.069,2.467,2.467,0,0,1,1.715,2.41,10.11,10.11,0,0,0,20.168-.273,2.127,2.127,0,0,1,1.511-2.034,1.94,1.94,0,0,0,1.346-1.355C2033.88,176.234,2034.139,175.1,2034.417,173.969Zm-34.217,45.75h19.271c0-.794.02-1.544-.015-2.292a.706.706,0,0,0-.323-.494,12.31,12.31,0,0,1-4.863-5.04,31.631,31.631,0,0,1-3.444-11.554c-.19-1.438-.3-2.888-.445-4.364h-.428a10.073,10.073,0,0,0-9.747,9.882c-.023,3.474,0,6.949,0,10.423Zm59.891-24.192c0-.043.014-.1-.009-.127a13.406,13.406,0,0,0-1.454-1.441c-.151-.115-.6.129-.895.243-.454.174-.9.369-1.341.573a1.587,1.587,0,0,1-1.516-.083,9.2,9.2,0,0,0-2.176-.955,2.63,2.63,0,0,1-2.066-1.959c-.568-1.654-.629-1.645-2.358-1.474a.844.844,0,0,0-.568.4,11,11,0,0,0-.674,1.656,1.77,1.77,0,0,1-1.35,1.22,7.881,7.881,0,0,0-2.086.824,2.566,2.566,0,0,1-2.788.08c-1.6-.765-1.628-.725-2.749.636a.822.822,0,0,0-.1.677c.227.645.584,1.248.769,1.9a2.2,2.2,0,0,1-.053,1.257c-.377,1.057-.812,2.1-1.291,3.112a2.622,2.622,0,0,1-.807.89,3.916,3.916,0,0,1-.914.382c-1.526.614-1.543.616-1.422,2.276a.962.962,0,0,0,.451.665c.588.3,1.258.448,1.825.778a2.378,2.378,0,0,1,.88.977,21.019,21.019,0,0,0,.944,2.323,2.619,2.619,0,0,1,.058,2.849c-.725,1.509-.671,1.523.584,2.669a.628.628,0,0,0,.813.144,9.436,9.436,0,0,1,1.768-.744,2.531,2.531,0,0,1,1.377.05c1.019.352,1.989.843,3,1.214a1.549,1.549,0,0,1,1.016.954q.338.9.711,1.786c.065.156.179.405.282.412a7.924,7.924,0,0,0,1.978-.02c.227-.045.368-.593.519-.925.183-.4.349-.813.5-1.229a1.575,1.575,0,0,1,1.063-.992c.994-.358,1.943-.844,2.94-1.19a3.127,3.127,0,0,1,1.379-.074,4.187,4.187,0,0,1,1.041.419c1.249.541,1.223.516,2.21-.433a.972.972,0,0,0,.26-1.361c-.258-.46-.421-.973-.644-1.454a1.55,1.55,0,0,1,.064-1.456,9.863,9.863,0,0,0,.983-2.236,2.628,2.628,0,0,1,1.971-2.054c1.6-.55,1.583-.607,1.478-2.305,0-.022.007-.05,0-.065-.139-.193-.241-.467-.431-.559-.6-.288-1.222-.512-1.841-.749a1.535,1.535,0,0,1-.939-1.031,19.454,19.454,0,0,0-1.1-2.693,1.912,1.912,0,0,1-.077-1.938C2059.6,196.765,2059.829,196.138,2060.091,195.528Zm-25.866-25.795c-.307-5.048-2.467-9.04-6.865-11.569-5.014-2.883-10.036-2.558-14.719.8a13.255,13.255,0,0,0-5.612,10.772l1.068-.061a3.051,3.051,0,0,1,3.225-2.772c.573-.039,1.149-.077,1.718-.155,3.632-.5,7.2-1.213,10.376-3.2a2.768,2.768,0,0,1,2.237-.3,11.383,11.383,0,0,1,3.877,1.828,8.393,8.393,0,0,1,3.323,4.647Zm6.748,48.291a4.36,4.36,0,0,0-.528.173,2.22,2.22,0,0,1-2.784-.476c-.512-.52-1.034-1.031-1.539-1.558a2.124,2.124,0,0,1-.4-2.512,7.176,7.176,0,0,1,.371-.85,2.09,2.09,0,0,0,.009-1.9,3.6,3.6,0,0,0-2.76-2.718,1.8,1.8,0,0,1-1.322-1.74c-.056-.66-.035-1.326-.064-1.989a2.484,2.484,0,0,1,1.945-2.838,2.3,2.3,0,0,0,1.913-1.889,4.747,4.747,0,0,1,.483-1.086.9.9,0,0,0-.424-1.317,12.841,12.841,0,0,0-1.754-.777,8.481,8.481,0,0,0-3.292-.539c-.116,1.268-.2,2.479-.343,3.683a36.007,36.007,0,0,1-2.453,10.013c-1.283,3.009-3.016,5.662-6.009,7.268-.118.063-.265.214-.268.327-.023.809-.012,1.619-.012,2.435h19.232Zm-21.6-14.1c-.32,2.9-.637,5.753-.952,8.61a3.011,3.011,0,0,0-.05.726,1.018,1.018,0,0,0,.261.553c1.509,1.482,2.242,1.5,3.838.131.033-.029.083-.052.1-.089.1-.264.3-.54.278-.8-.176-1.917-.393-3.83-.6-5.743-.125-1.135-.26-2.268-.389-3.393Zm8.694-3.219a8.534,8.534,0,0,1-1.62.853c-.745.211-1.116-.382-1.439-1.17-.326,1.261-1.09,2.163-.894,3.391.209,1.308.3,2.636.445,3.954.11.992.229,1.984.343,2.976A27.081,27.081,0,0,0,2028.061,200.707Zm-14.884,0a27.454,27.454,0,0,0,3.095,9.943c.354-2.536.633-5.057.9-7.578a.864.864,0,0,0-.082-.381c-.281-.718-.57-1.432-.864-2.167C2015.367,201.85,2015.367,201.85,2013.177,200.708Zm3.024-8.982-.205.136a4.955,4.955,0,0,0,.5,1.053,6.29,6.29,0,0,0,3.269,2.03,2.158,2.158,0,0,0,.957.192,6.707,6.707,0,0,0,4.105-2.356,4.09,4.09,0,0,0,.4-.957l-.147-.116A12.3,12.3,0,0,1,2016.2,191.726Zm7.154,6.765c-2.018-1.267-3.423-1.255-5.493,0,.371.93.731,1.874,1.133,2.8a.658.658,0,0,0,.487.307c.749.034,1.5.034,2.25,0a.662.662,0,0,0,.493-.3C2022.628,200.366,2022.986,199.42,2023.355,198.491Zm3.527.074a5.18,5.18,0,0,0,1.592-3.036.841.841,0,0,0-.152-.659,15.634,15.634,0,0,0-1.3-.978l-2.612,2.358Zm-10.106-2.3c-.718-.7-1.485-1.45-2.253-2.2a.461.461,0,0,0-.209-.144c-.437-.068-1.659.965-1.6,1.393a5.092,5.092,0,0,0,1.637,3.236Z" data-name="Path 33616" fill="#fff" id="Path_33616" transform="translate(-194.934 130)"/>
    <path d="M2255.008,213.291q-.112.344-.224.687a4.445,4.445,0,0,1-4.171,3.146q-9.166.041-18.332,0a4.548,4.548,0,0,1-4.483-4.524q-.046-7.937,0-15.874a4.513,4.513,0,0,1,4.517-4.537c.73-.019,1.461-.018,2.192,0a2.25,2.25,0,0,1,2.348,2.343c.028,1.217.007,2.435.008,3.653v.761h9.086c0-1.3,0-2.579,0-3.857a7.233,7.233,0,0,1,.038-1.06,2.153,2.153,0,0,1,1.953-1.8,15.89,15.89,0,0,1,3.114.036,4.359,4.359,0,0,1,3.821,3.39c.036.126.089.248.133.371Zm-18.145-12v.79c0,1.9.008,3.806,0,5.709a2.3,2.3,0,0,1-2.542,2.555c-.619,0-1.239-.005-1.858,0a2.281,2.281,0,0,0-2.4,2.218,2.358,2.358,0,0,0,2.306,2.3q9.093.037,18.188,0a2.255,2.255,0,0,0-.073-4.51c-.685-.017-1.372,0-2.058-.007a2.277,2.277,0,0,1-2.469-2.487c-.008-1.947,0-3.894,0-5.841,0-.233-.019-.465-.031-.724Zm11.4-6.79v13.547c1.519.117,3.052-.223,4.478.628,0-4.1.016-8.082-.011-12.064a2.1,2.1,0,0,0-1.871-2.091A22.346,22.346,0,0,0,2248.26,194.5Zm-13.7-.051c-.659,0-1.231,0-1.8,0a2.366,2.366,0,0,0-2.7,2.674q0,5.408,0,10.815c0,.211.017.422.031.725,1.437-.845,2.979-.48,4.471-.628Z" data-name="Path 33617" fill="#fff" id="Path_33617" transform="translate(-383.978 98.612)"/>
    <path d="M2243.476,390.412a9.055,9.055,0,1,1-9.108,9.021A9.036,9.036,0,0,1,2243.476,390.412Zm-.058,2.266a6.791,6.791,0,1,0,6.795,6.718A6.767,6.767,0,0,0,2243.418,392.678Z" data-name="Path 33618" fill="#fff" id="Path_33618" transform="translate(-389.4 -64.449)"/>
    <path d="M2264.448,415.943a4.525,4.525,0,1,1-4.559,4.457A4.508,4.508,0,0,1,2264.448,415.943Zm-.026,6.786a2.26,2.26,0,1,0-2.267-2.27A2.256,2.256,0,0,0,2264.421,422.728Z" data-name="Path 33619" fill="#fff" id="Path_33619" transform="translate(-410.391 -85.448)"/>
  </g>
</svg>
