<svg height="58.322" viewBox="0 0 58.322 58.322" width="58.322" xmlns="http://www.w3.org/2000/svg">
  <g data-name="Group 9029" id="Group_9029" transform="translate(-1411.227 -800.44)">
    <path d="M2602.416-1501.6a2.3,2.3,0,0,1,1.721,2.091,2.1,2.1,0,0,1-1.877,2.255c-1.243.14-2.5.147-3.74.313a23.824,23.824,0,0,0-12.281,5.4,23.77,23.77,0,0,0-8.208,12.817,24.093,24.093,0,0,0,5.536,22.79,23.493,23.493,0,0,0,14.471,7.93,24.078,24.078,0,0,0,20.159-5.789,23.588,23.588,0,0,0,7.685-12.367,52,52,0,0,0,.809-5.443c.047-.337.022-.684.063-1.021a2.146,2.146,0,0,1,1.879-1.98,2.181,2.181,0,0,1,2.366,1.464,2.735,2.735,0,0,0,.123.247v2.164c-.047.41-.094.819-.14,1.229a28.811,28.811,0,0,1-7.324,16.5,28.6,28.6,0,0,1-16.675,9.266c-1.1.194-2.209.3-3.314.454h-3.417a3.152,3.152,0,0,0-.439-.094,27.746,27.746,0,0,1-12.723-4.012,28.783,28.783,0,0,1-13.836-20.037c-.2-1.093-.305-2.205-.454-3.308v-3.417c.046-.41.094-.819.139-1.229a28.81,28.81,0,0,1,7.324-16.5,28.6,28.6,0,0,1,16.675-9.266c1.1-.194,2.209-.3,3.314-.453Z" data-name="Path 33633" fill="#fff" id="Path_33633" transform="translate(-1161.573 2302.04)"/>
    <path d="M2683.532-1423.052a5.708,5.708,0,0,1,.453-.6q12.777-12.755,25.559-25.505a2.4,2.4,0,0,1,2.224-.868,2.175,2.175,0,0,1,1.336,3.488,5.331,5.331,0,0,1-.464.5q-13.688,13.657-27.378,27.311c-1.32,1.317-2.531,1.29-3.8-.086q-5.287-5.738-10.575-11.474a2.292,2.292,0,0,1-.645-2.342,2.162,2.162,0,0,1,3.621-.89c.917.906,1.765,1.883,2.64,2.832C2678.807-1428.186,2681.107-1425.686,2683.532-1423.052Z" data-name="Path 33634" fill="#fff" id="Path_33634" transform="translate(-1245.053 2257.84)"/>
  </g>
</svg>
