<svg fill="none" height="75" viewBox="0 0 75 75" width="75" xmlns="http://www.w3.org/2000/svg">
<rect fill="" height="75" width="75"/>
<path d="M73.75 0.00094005H23.75C23.0597 0.00094005 22.5 0.560654 22.5 1.25094V17.7567C19.9526 18.5134 18.3522 20.6378 18.8376 22.6384C18.8393 22.6451 18.837 22.6518 18.8387 22.6585L21.1177 31.6277L13.88 32.6886C5.96643 33.8571 0 40.7679 0 48.7629V63.75C0 69.9531 5.04686 75 11.25 75H38.75C40.8181 75 42.5 73.3181 42.5 71.25V70C42.5 68.8756 42.1272 67.8364 41.4978 67C42.1055 66.5441 42.5 65.8175 42.5 65H73.75C74.4403 65 75 64.4403 75 63.75V1.25C75 0.559714 74.4403 0 73.75 0L73.75 0.00094005ZM23.2372 20.1424C23.591 20.043 23.9208 20.0017 24.216 20.0017C24.7154 20.0017 25.1172 20.1184 25.3756 20.2663C25.5966 20.3935 25.7322 20.5447 25.774 20.7071C25.7902 20.7707 25.793 20.8416 25.7829 20.918C25.7762 20.9722 25.755 21.0324 25.735 21.091C25.7271 21.115 25.7255 21.1368 25.7154 21.1619C25.5156 21.6485 24.9018 22.2406 23.9414 22.5587C23.8923 22.5748 23.8493 22.5955 23.798 22.61C22.8454 22.8779 22.0703 22.7205 21.6596 22.4861C21.4408 22.3611 21.3075 22.2104 21.2606 22.0402C21.1389 21.5308 21.8465 20.542 23.2371 20.1424L23.2372 20.1424ZM30.5179 39.3981L30.6373 39.8696C30.6373 39.8702 30.6379 39.8707 30.6384 39.8713L31.3053 42.5007H26.4621L26.2501 41.6653C26.249 41.662 26.2501 41.6586 26.2495 41.6553L23.8868 32.3556C23.8857 32.3506 23.8818 32.3472 23.8807 32.3422L22.066 25.2016C22.076 25.2027 22.0872 25.2011 22.0972 25.2027C22.3305 25.2334 22.5676 25.2524 22.8098 25.2524C22.9086 25.2524 23.0101 25.2362 23.11 25.2312C23.2021 25.2267 23.292 25.2206 23.3846 25.2117C23.7462 25.176 24.1112 25.1196 24.4761 25.0175C24.4784 25.0163 24.4811 25.0158 24.4834 25.0152C24.8545 24.9086 25.1993 24.7658 25.528 24.6056C25.6335 24.5543 25.7278 24.4946 25.8282 24.4382C26.0448 24.3171 26.2501 24.1888 26.4421 24.047C26.4912 24.0108 26.5526 23.984 26.6 23.9466L30.5179 39.3981ZM31.3873 32.6335L32.0447 32.5359C32.1624 32.5113 32.2913 32.5007 32.4744 32.5007C33.7768 32.5007 34.8822 33.5872 34.9911 34.9734V34.9751C35.1032 36.3813 34.2115 37.6268 32.9168 37.8724C32.8532 37.8841 32.7912 37.9008 32.7298 37.9232L32.7243 37.9248L31.3873 32.6335ZM39.9994 65.0007H19.9994C19.3092 65.0007 18.7494 65.5604 18.7494 66.2507C18.7494 66.9409 19.3092 67.5007 19.9994 67.5007H37.4994C38.8783 67.5007 39.9994 68.6218 39.9994 70.0007V71.2507C39.9994 71.9398 39.4386 72.5007 38.7494 72.5007H11.2494C6.42473 72.5007 2.49944 68.5754 2.49944 63.7507V48.7635C2.49944 41.9985 7.54916 36.1519 14.2433 35.1631L21.736 34.0643L23.5407 41.1676L19.5809 42.5727C19.0078 42.7759 18.664 43.3629 18.7673 43.9622C18.8711 44.5632 19.3911 45.0013 19.9994 45.0013H37.4994C38.8783 45.0013 39.9994 46.1224 39.9994 47.5013V50.0013H19.9994C19.3091 50.0013 18.7494 50.561 18.7494 51.2513C18.7494 51.9416 19.3091 52.5013 19.9994 52.5013H39.9994C41.3783 52.5013 42.4994 53.6224 42.4994 55.0013V56.2513C42.4994 56.9405 41.9386 57.5013 41.2494 57.5013H19.9994C19.3091 57.5013 18.7494 58.061 18.7494 58.7513C18.7494 59.4416 19.3091 60.0013 19.9994 60.0013H37.4994C38.8783 60.0013 39.9994 61.1224 39.9994 62.5013L39.9994 65.0007ZM72.4994 62.5007H42.4994C42.4994 61.5738 42.2461 60.7049 41.8041 59.9599C43.61 59.6904 44.9994 58.1301 44.9994 56.2507V55.0007C44.9994 53.1212 43.957 51.4805 42.4201 50.6268C42.472 50.4265 42.4994 50.2166 42.4994 50.0007V47.5007C42.4994 44.744 40.2561 42.5007 37.4994 42.5007H33.8844L33.3408 40.359L33.4837 40.3082C35.9798 39.7814 37.6936 37.4238 37.4831 34.778C37.2727 32.0989 35.0724 30.0008 32.4743 30.0008C32.2315 30.0008 31.904 30.0114 31.6043 30.0767L30.7633 30.2005L28.1998 20.0972C28.1992 20.0967 28.1992 20.0956 28.1992 20.095L28.1987 20.0928C28.1981 20.0911 28.197 20.09 28.1964 20.0889C28.1959 20.0878 28.1964 20.0861 28.1959 20.085C27.981 19.263 27.4207 18.5565 26.6194 18.0973C26.1384 17.821 25.5832 17.6598 24.9994 17.5755V2.50122H72.4994L72.4994 62.5007Z" fill="white"/>
<path d="M56.25 13.75H66.25C66.9403 13.75 67.5 13.1903 67.5 12.5V7.5C67.5 6.80971 66.9403 6.25 66.25 6.25H56.25C55.5597 6.25 55 6.80971 55 7.5V12.5C55 13.1903 55.5597 13.75 56.25 13.75ZM57.5 8.75H65V11.25H57.5V8.75Z" fill="white"/>
<path d="M43.75 21.25H66.25C66.9403 21.25 67.5 20.6903 67.5 20C67.5 19.3097 66.9403 18.75 66.25 18.75H43.75C43.0597 18.75 42.5 19.3097 42.5 20C42.5 20.6903 43.0597 21.25 43.75 21.25Z" fill="white"/>
<path d="M43.75 28.75H66.25C66.9403 28.75 67.5 28.1903 67.5 27.5C67.5 26.8097 66.9403 26.25 66.25 26.25H43.75C43.0597 26.25 42.5 26.8097 42.5 27.5C42.5 28.1903 43.0597 28.75 43.75 28.75Z" fill="white"/>
<path d="M66.25 33.75H48.75C48.0597 33.75 47.5 34.3097 47.5 35C47.5 35.6903 48.0597 36.25 48.75 36.25H66.25C66.9403 36.25 67.5 35.6903 67.5 35C67.5 34.3097 66.9403 33.75 66.25 33.75Z" fill="white"/>
<path d="M66.25 41.25H48.75C48.0597 41.25 47.5 41.8097 47.5 42.5C47.5 43.1903 48.0597 43.75 48.75 43.75H66.25C66.9403 43.75 67.5 43.1903 67.5 42.5C67.5 41.8097 66.9403 41.25 66.25 41.25Z" fill="white"/>
<path d="M66.25 51.25H48.75C48.0597 51.25 47.5 51.8097 47.5 52.5C47.5 53.1903 48.0597 53.75 48.75 53.75H66.25C66.9403 53.75 67.5 53.1903 67.5 52.5C67.5 51.8097 66.9403 51.25 66.25 51.25Z" fill="white"/>
</svg>
