<svg height="70.551" viewBox="0 0 73.102 70.551" width="73.102" xmlns="http://www.w3.org/2000/svg">
  <g data-name="Group 9025" id="Group_9025" transform="translate(-1013 -284)">
    <path d="M2408,435.991a7.556,7.556,0,0,1,1.474-3.414,6.536,6.536,0,0,1,5.6-2.4c.14.007.281,0,.522,0,0-.283,0-.558,0-.834.025-2.825-.077-5.657.1-8.472a10.209,10.209,0,0,1,9.832-9.4c.927-.031,1.855-.031,2.783-.016a1.1,1.1,0,0,1,1.214,1.039c.02.624-.473,1.068-1.228,1.116a29.1,29.1,0,0,0-4.459.33,7.842,7.842,0,0,0-6,7.288c-.106,3.559-.045,7.122-.053,10.684a1.3,1.3,0,1,0,1.875-1.208,13.594,13.594,0,0,0,.479-3.061c.062-1.308.308-1.63,1.643-1.63,6.614,0,13.229.057,19.842-.018a13.214,13.214,0,0,0,12.486-7.952,12.148,12.148,0,0,0,1.181-5.306,3.231,3.231,0,0,0-2.936-3.352,3.164,3.164,0,0,0-3.327,2.854c-.022.141-.034.283-.057.423a1,1,0,0,1-1.017.92,1.027,1.027,0,0,1-1.1-.914c-.073-.347-.081-.71-.18-1.048a3.138,3.138,0,0,0-3.191-2.236,3.175,3.175,0,0,0-2.928,2.746c-.166,1.264-.41,1.48-1.687,1.481-1.9,0-3.807.012-5.709-.011a1.491,1.491,0,0,1-.989-.263,1.6,1.6,0,0,1-.37-1.11c.053-.527.513-.768,1.046-.771,1.689-.007,3.378-.018,5.067,0a.619.619,0,0,0,.7-.51,5.266,5.266,0,0,1,8.944-2.01c.1.1.2.2.2.187a15.519,15.519,0,0,1,2.776-1.606,5.318,5.318,0,0,1,6.946,5.366,15.408,15.408,0,0,1-6.938,12.6,21.806,21.806,0,0,1-2.95,1.561.737.737,0,0,0-.531.791c.035.756.01,1.515.01,2.355a6.713,6.713,0,0,1,6.3,2.6,6.139,6.139,0,0,1,1.282,4.058,6.335,6.335,0,0,1-2.383,4.823,6.577,6.577,0,0,1-5.015,1.445,47.913,47.913,0,0,1-1.755,5.311,15.008,15.008,0,0,1-8.765,7.991c-.633.233-.867.52-.782,1.159a7.811,7.811,0,0,1,.008,1.039,28.938,28.938,0,0,1,2.968.293,8.917,8.917,0,0,1,6.9,5.946c1.4,3.678,2.766,7.369,4.139,11.057.448,1.2,0,1.832-1.285,1.833q-14.2,0-28.407,0c-1.1,0-1.45-.343-1.452-1.447q-.007-5.165,0-10.329a6.868,6.868,0,0,1,7.151-7.271c.213,0,.426,0,.739,0a14.787,14.787,0,0,0-.025-1.718c-.02-.171-.308-.373-.515-.449a15.383,15.383,0,0,1-9.25-8.643,41.8,41.8,0,0,1-1.412-4.665,17.126,17.126,0,0,1-2.81-.374,6.214,6.214,0,0,1-4.592-5.181,1.226,1.226,0,0,0-.11-.252Zm14.441-7.913c-.118.809-.175,1.471-.315,2.116a4.973,4.973,0,0,1-3.885,4.24c-.46.1-.455.387-.454.735.005,2.065-.028,4.131.016,6.2a15.939,15.939,0,0,0,.3,3.108,13.519,13.519,0,0,0,26.731-2c.1-4.7.044-9.4.052-14.1a.921.921,0,0,0-.052-.292Zm25,47.511a1.687,1.687,0,0,0-.04-.336c-1.254-3.351-2.488-6.709-3.779-10.046a6.415,6.415,0,0,0-3.124-3.462c-2.564,2.8-5.1,5.568-7.614,8.352a.788.788,0,0,0-.083.681q.886,2.21,1.851,4.388a.771.771,0,0,0,.544.405c2,.029,3.99.018,5.976.018.019-.093.045-.141.035-.182-.092-.417-.192-.831-.285-1.248-.18-.8.1-1.378.743-1.529s1.139.223,1.359,1.026c.137.5.226,1.021.394,1.512a.665.665,0,0,0,.442.4C2445.043,475.6,2446.228,475.588,2447.44,475.588Zm-26.416,0c2.217,0,4.4.009,6.579-.02.156,0,.372-.257.452-.44.615-1.413,1.186-2.844,1.81-4.253a.739.739,0,0,0-.181-.934c-2.271-2.462-4.526-4.94-6.789-7.411-.12-.131-.264-.24-.406-.367a4.665,4.665,0,0,0-1.5,3.544q-.006,4.665,0,9.33C2420.987,475.195,2421.008,475.355,2421.024,475.586Zm-5.449-43.1a4.308,4.308,0,0,0-4.254,7.087c1.091,1.231,3.153,1.768,4.254,1.168Zm31.591-.029a.607.607,0,0,0-.068.168c-.008,2.605-.023,5.21,0,7.815,0,.169.305.448.5.484a4.314,4.314,0,1,0-.44-8.467Zm-18.192,24.854a21.3,21.3,0,0,0,.022,2.653,2.392,2.392,0,0,0,4.665.114,19.967,19.967,0,0,0,.027-2.767Zm9.188,3.764-.063-.19c-.684,0-1.367-.016-2.05.012a.579.579,0,0,0-.438.257,5.009,5.009,0,0,1-2.443,2.54l1.145,1.6Zm-8.655,2.616a5.041,5.041,0,0,1-2.467-2.6.364.364,0,0,0-.264-.19c-.72-.016-1.441-.009-2.162-.009l-.045.236,3.807,4.168Zm1.834,4.771,1.368-1.635-1.37-1.963-1.368,1.973Zm1.09,7.09-1.093-2.593-1.086,2.593Z" data-name="Path 33607" fill="#fff" id="Path_33607" transform="translate(-1395 -123.209)"/>
    <path d="M2718.609,657.94a1.818,1.818,0,0,1-1.606.7c-1.57-.031-3.141-.008-4.711-.012a3.191,3.191,0,0,1-.638-.045,1,1,0,0,1-.9-1.1.963.963,0,0,1,1-1c1.26-.039,2.522-.025,3.782-.032.279,0,.559,0,.876,0v-13.7h-29.115v13.7h19.363c.262,0,.524,0,.785.016a1.068,1.068,0,0,1,.028,2.136c-.734.052-1.474.018-2.212.026-.186,0-.371.019-.637.033,0,1.611-.01,3.195.017,4.778,0,.147.208.349.367.426a4.347,4.347,0,0,1,2.6,4.229,17.077,17.077,0,0,1-.074,2.2,4.2,4.2,0,0,1-4.048,3.719c-2.068.066-4.14.033-6.21.017a1.065,1.065,0,0,1-1.181-1.151c-.027-2.161-.061-4.324.019-6.482.06-1.63,1.043-2.547,2.912-2.942V658.63h-.771q-5.782,0-11.565,0c-1.271,0-1.616-.345-1.616-1.6q0-7.445,0-14.891c0-1.255.338-1.581,1.624-1.582h12.365c0-.963,0-1.879,0-2.8,0-1.183.348-1.534,1.523-1.545q1.249-.012,2.5,0c1.2.009,1.536.346,1.54,1.521,0,.9,0,1.8,0,2.82h.775c3.879,0,7.758.01,11.636-.009a1.614,1.614,0,0,1,1.579.727Zm-20.314,13.939c1.739,0,3.4.035,5.064-.013a2,2,0,0,0,2.011-1.856,10.828,10.828,0,0,0-.049-2.618,4.793,4.793,0,0,0-.741-1.4c-.514,2.681-1.425,3.473-4.053,3.473h-2.232Zm4.124-13.2h-1.141v4.782h1.141Zm-4.083,8.615c1.008,0,1.979.017,2.948-.007a.787.787,0,0,0,.874-.831c-.014-.541-.4-.782-.913-.8-.546-.018-1.093-.009-1.64-.006C2698.45,665.658,2698.152,666.019,2698.335,667.3Zm4.093-28.868h-1.163V640.5h1.163Z" data-name="Path 33608" fill="#fff" id="Path_33608" transform="translate(-1632.507 -319.508)"/>
    <path d="M2761.858,704.819h-2.738c-.127.428-.264.872-.391,1.319a.711.711,0,0,1-1.029.547c-.486-.162-.766-.422-.583-1.007.757-2.417,1.494-4.841,2.234-7.263a1.216,1.216,0,0,1,2.266.008q1.105,3.635,2.235,7.263c.181.581-.108.843-.6,1a.683.683,0,0,1-.991-.5C2762.131,705.738,2762,705.287,2761.858,704.819Zm-.368-1.373c-.322-1.123-.629-2.2-.936-3.272l-.156.005-.928,3.266Z" data-name="Path 33609" fill="#fff" id="Path_33609" transform="translate(-1694.223 -372.176)"/>
    <path d="M2853.991,699.591v2.378c.527,0,1.043.008,1.558,0,.49-.01.8.2.776.7-.018.463-.329.642-.779.631-.5-.013-.992,0-1.537,0v2.4c.985,0,1.975.013,2.965-.005.538-.01.967.081.967.736s-.421.749-.963.741c-1.236-.018-2.472,0-3.708-.008-.806-.006-.977-.171-.979-.956-.006-2.372.011-4.745-.011-7.117-.006-.654.228-.977.9-.972,1.331.01,2.662.005,3.993,0,.492,0,.771.221.767.721,0,.518-.272.77-.808.763C2856.112,699.581,2855.091,699.591,2853.991,699.591Z" data-name="Path 33610" fill="#fff" id="Path_33610" transform="translate(-1775.846 -372.576)"/>
    <path d="M2717.525,697.41a14.132,14.132,0,0,1,1.489.378.745.745,0,0,1,.461,1.094c-.221.508-.593.457-1.068.309a4.224,4.224,0,0,0-1.654-.216,1.157,1.157,0,0,0-.8.709c-.061.243.247.689.511.878a11.125,11.125,0,0,0,1.46.727,2.992,2.992,0,0,1,1.784,1.9,2.619,2.619,0,0,1-2.194,3.408,4.072,4.072,0,0,1-2.686-.451c-.279-.151-.631-.4-.693-.662a1.5,1.5,0,0,1,.22-1.056c.08-.123.629-.088.848.054.567.369,1.118.812,1.819.622a1.792,1.792,0,0,0,1.019-.718.9.9,0,0,0-.465-1.207c-.546-.331-1.136-.587-1.7-.882a2.63,2.63,0,0,1-1.626-1.848,2.356,2.356,0,0,1,2.117-2.891C2716.713,697.509,2717.066,697.469,2717.525,697.41Z" data-name="Path 33611" fill="#fff" id="Path_33611" transform="translate(-1657.402 -371.975)"/>
    <path d="M2810.735,702.657c0-1.185.026-2.371-.011-3.555-.019-.632.213-.932.848-.933.662,0,.826.363.819.963-.023,1.967.011,3.935-.021,5.9-.009.561.153.757.721.719.686-.045,1.377,0,2.066-.012a.626.626,0,0,1,.707.7c.005.451-.178.774-.715.77-1.211-.01-2.422,0-3.634-.007-.558,0-.8-.279-.787-.849C2810.751,705.123,2810.735,703.89,2810.735,702.657Z" data-name="Path 33612" fill="#fff" id="Path_33612" transform="translate(-1740.223 -372.625)"/>
    <path d="M2544.257,675.777a6.038,6.038,0,0,1-4.027-1.551,1.146,1.146,0,0,1-.29-1.627,1.088,1.088,0,0,1,1.639-.045,3.828,3.828,0,0,0,3.912.828,5.908,5.908,0,0,0,1.4-.829c.634-.44,1.252-.447,1.654.03.417.494.287,1.144-.314,1.675A6.039,6.039,0,0,1,2544.257,675.777Z" data-name="Path 33613" fill="#fff" id="Path_33613" transform="translate(-1507.906 -350.371)"/>
    <path d="M2611.369,604.3c0,.568.025,1.138-.007,1.7a.978.978,0,0,1-1.011.991.955.955,0,0,1-1.079-.915,35.165,35.165,0,0,1-.012-3.548,1.057,1.057,0,0,1,2.106.062c.033.567.007,1.137.007,1.705Z" data-name="Path 33615" fill="#fff" id="Path_33615" transform="translate(-1567.491 -289.834)"/>
  </g>
</svg>
