<svg fill="none" height="75" viewBox="0 0 75 75" width="75" xmlns="http://www.w3.org/2000/svg">
<rect height="75" width="75" />
<path d="M37.5 75C16.8221 75 0 58.1779 0 37.5C0 16.8221 16.8221 0 37.5 0C58.1779 0 75 16.8221 75 37.5C75 58.1779 58.1779 75 37.5 75ZM37.5 1.81382C17.823 1.81382 1.81521 17.8217 1.81521 37.4986C1.81521 57.1756 17.823 73.1834 37.5 73.1834C57.177 73.1834 73.1848 57.1756 73.1848 37.4986C73.1848 17.8217 57.177 1.81382 37.5 1.81382Z" fill="white"/>
<path d="M54.1314 44.1225H20.8701C20.369 44.1225 19.9629 43.7159 19.9629 43.2153V17.0088C19.9629 16.5082 20.369 16.1016 20.8701 16.1016H54.1314C54.6326 16.1016 55.0387 16.5082 55.0387 17.0088V43.2153C55.0398 43.7164 54.6331 44.1231 54.1325 44.1231L54.1314 44.1225ZM21.7771 42.308H53.2231V17.9154H21.7771V42.308Z" fill="white"/>
<path d="M56.8449 65.4288H48.3129C47.9657 65.4288 47.6486 65.2312 47.4969 64.9185L37.9605 45.3259L29.0964 64.3572C28.9468 64.6764 28.6266 64.8811 28.2739 64.8811H17.7022C17.201 64.8811 16.7949 64.4744 16.7949 63.9738C16.7949 63.4732 17.201 63.0665 17.7022 63.0665H27.696L37.1208 42.8324C37.2687 42.5154 37.5857 42.3118 37.9357 42.3086H37.9438C38.291 42.3086 38.6075 42.5062 38.7597 42.8189L48.8816 63.6143H56.846C57.3472 63.6143 57.7533 64.021 57.7533 64.5216C57.7527 65.0222 57.3466 65.4288 56.8449 65.4288H56.8449Z" fill="white"/>
<path d="M57.298 17.9141H17.7022C17.201 17.9141 16.7949 17.5074 16.7949 17.0068V12.5948C16.7949 12.0941 17.201 11.6875 17.7022 11.6875H57.298C57.7992 11.6875 58.2053 12.0941 58.2053 12.5948V17.0068C58.2048 17.508 57.7986 17.9141 57.2975 17.9141H57.298ZM18.6105 16.0996H56.3925V13.502H18.6105V16.0996Z" fill="white"/>
<path d="M37.4991 13.262C36.9979 13.262 36.5918 12.8553 36.5918 12.3547V9.27054C36.5918 8.76993 36.9979 8.36328 37.4991 8.36328C38.0002 8.36328 38.4063 8.76993 38.4063 9.27054V12.3547C38.4063 12.8553 38.0002 13.262 37.4991 13.262Z" fill="white"/>
<path d="M35.8128 39.7999H31.9991C31.4979 39.7999 31.0918 39.3932 31.0918 38.8926L31.0923 21.3682C31.0923 20.8676 31.4984 20.4609 31.9996 20.4609H35.8133C36.3145 20.4609 36.7206 20.8676 36.7206 21.3682V38.8926C36.72 39.3938 36.3145 39.7999 35.8128 39.7999H35.8128ZM32.9068 37.9854H34.906L34.9055 22.2748H32.9063L32.9068 37.9854Z" fill="white"/>
<path d="M28.3382 39.7992H24.5244C24.0233 39.7992 23.6172 39.3926 23.6172 38.8919V33.2784C23.6172 32.7777 24.0233 32.3711 24.5244 32.3711H28.3382C28.8393 32.3711 29.2454 32.7777 29.2454 33.2784V38.8919C29.2454 39.3931 28.8399 39.7992 28.3382 39.7992ZM25.4322 37.9847H27.4314V34.1856H25.4322V37.9847Z" fill="white"/>
<path d="M43.1448 39.8018H39.3311C38.8299 39.8018 38.4238 39.3951 38.4238 38.8945V29.3213C38.4238 28.8207 38.8299 28.4141 39.3311 28.4141H43.1448C43.646 28.4141 44.0521 28.8207 44.0521 29.3213V38.8945C44.0521 39.3957 43.6454 39.8018 43.1448 39.8018ZM40.2379 37.9872H42.2371V30.2286H40.2379V37.9872Z" fill="white"/>
<path d="M50.4768 39.8004H46.6631C46.162 39.8004 45.7559 39.3937 45.7559 38.8931L45.7564 26.3994C45.7564 25.8988 46.1625 25.4922 46.6637 25.4922H50.4774C50.9785 25.4922 51.3847 25.8988 51.3847 26.3994V38.8937C51.3841 39.3943 50.9785 39.8004 50.4769 39.8004L50.4768 39.8004ZM47.5709 37.9859H49.5701L49.5695 27.3067H47.5703L47.5709 37.9859Z" fill="white"/>
</svg>
