<svg fill="none" height="77" viewBox="0 0 75 77" width="75" xmlns="http://www.w3.org/2000/svg">
<rect height="75" width="75" y="1"/>
<path d="M5.00134 39.93C5.00134 44.4881 5.04652 49.0461 4.9923 53.6033C4.85674 64.8955 12.0075 69.6172 22.429 69.2876C25.8665 69.1792 29.2997 68.9344 32.7363 68.8087C34.4017 68.7479 36.2394 68.7931 36.3955 71.0088C36.5532 73.2418 34.7466 73.642 33.0764 73.6271C26.6306 73.5704 20.1294 73.8752 13.7559 73.13C7.1792 72.3611 1.31171 65.975 0.607562 59.3154H0.608384C0.114617 53.6705 -0.079253 48.0043 0.0291876 42.3387C0.0390461 35.155 0.287164 27.9714 0.486799 20.7894C0.800638 9.47988 11.3881 0.791808 21.3831 0.303867H21.3822C32.199 -0.189079 43.0346 -0.082258 53.8387 0.624267C59.0769 0.885526 63.994 3.22697 67.4996 7.12776C71.0052 11.0285 72.8084 16.1673 72.511 21.4032C72.4034 24.424 72.8799 27.4637 72.8314 30.4913C72.8052 32.1163 72.8199 34.3649 70.3692 34.2795C67.8692 34.1925 68.3301 32.0836 68.2726 30.3624C68.1477 26.6243 67.9366 22.8878 67.7 19.1538C67.1561 10.5833 59.9182 5.78214 53.1814 5.35813C43.9003 4.77401 34.5707 4.8997 25.2616 4.86437L25.2624 4.86519C19.0908 4.76907 13.1854 7.37829 9.10061 12.0062C5.72898 15.6472 5.29341 20.2029 5.07826 24.7404C4.83837 29.7929 5.02321 34.8662 5.02321 39.9302L5.00134 39.93ZM74.8862 53.655C74.7046 47.5795 74.4499 47.3661 68.699 45.2358C66.913 44.5752 65.2706 43.5754 63.8642 42.2913C63.2472 41.5461 62.3534 41.0844 61.3896 41.0121C60.4251 40.9398 59.4729 41.2635 58.7516 41.9076C56.7412 43.2615 54.7408 44.9442 52.4847 45.5562C47.1888 46.9923 45.8022 50.5168 46.1454 55.3878C46.2235 56.4969 46.1643 57.6159 46.1471 58.73C46.0214 66.7106 49.6716 72.1986 56.9712 75.3862V75.387C58.5666 76.1725 60.3569 76.4723 62.1206 76.2497C63.8853 76.0279 65.5448 75.2926 66.8955 74.1358C73.1986 69.3123 75.567 62.9035 74.8876 55.1742C74.8876 54.6682 74.9008 54.1613 74.886 53.6552L74.8862 53.655ZM55.0068 49.2991C58.9051 47.2764 61.7074 46.6003 65.7594 49.0962C70.2007 51.832 70.4834 51.298 70.4653 56.7943C70.4472 62.413 68.5412 67.0349 63.8747 70.4173C63.2413 70.9825 62.4542 71.3473 61.6129 71.4656C60.7717 71.5831 59.9148 71.4492 59.1499 71.0803C52.7221 68.3173 50.5474 64.7501 50.6048 55.9226C49.8917 52.8303 51.5759 51.0796 55.0068 49.2992V49.2991ZM35.3683 36.8106C38.2757 36.8015 41.0658 35.6629 43.1476 33.6343C45.2302 31.6059 46.442 28.847 46.5265 25.9404C46.6588 23.2277 45.6516 20.5821 43.7472 18.6443C41.8436 16.707 39.2163 15.6529 36.5011 15.7368C33.5919 15.7039 30.7896 16.8278 28.7102 18.8619C26.6308 20.896 25.4446 23.6738 25.4141 26.5821C25.2596 29.2917 26.2488 31.941 28.1417 33.8859C30.0338 35.8305 32.6562 36.8911 35.3681 36.8106H35.3683ZM35.3658 31.7663C34.0373 31.832 32.741 31.3415 31.7887 30.4115C30.8365 29.4823 30.314 28.199 30.3477 26.8689C30.3592 25.2365 31.014 23.6754 32.1707 22.5237C33.3267 21.3727 34.891 20.7245 36.5233 20.7204C37.8534 20.6596 39.1489 21.1542 40.1004 22.085C41.0517 23.0167 41.5734 24.3016 41.5414 25.6333C41.5365 27.2649 40.8825 28.8283 39.7241 29.9793C38.5665 31.1295 36.9982 31.772 35.3657 31.7662L35.3658 31.7663ZM35.2541 46.4869C36.2284 46.0252 37.1207 45.4058 37.8938 44.6549C37.0476 43.8382 36.2885 42.4612 35.3372 42.3125H35.338C32.7452 41.919 30.117 41.8106 27.5002 41.9888C25.0519 42.0488 22.7112 43.0076 20.9235 44.6811C19.1366 46.3546 18.026 48.6271 17.8049 51.0654C17.6932 52.0751 18.6939 53.2081 19.1819 54.2835C20.1792 53.6616 21.6729 53.2746 22.0944 52.3807C24.8687 46.4975 25.2706 46.1639 31.6401 46.5608H31.6393C32.8429 46.6972 34.058 46.6725 35.2543 46.4868L35.2541 46.4869Z" fill="white"/>
</svg>
