<svg height="70.736" viewBox="0 0 73.007 70.736" width="73.007" xmlns="http://www.w3.org/2000/svg">
  <path d="M66.162,58.072V56.9a1.093,1.093,0,0,0-.052-.265,7.953,7.953,0,0,0-3.37-14.449V27.243a3.422,3.422,0,0,0-3.422-3.422H47.883a7.111,7.111,0,0,0-6.817-6.815v-1.17a1.093,1.093,0,0,0-.052-.265,7.985,7.985,0,1,0-9.019,0,1.093,1.093,0,0,0-.055.265v1.17a7.111,7.111,0,0,0-6.817,6.815H13.689a3.422,3.422,0,0,0-3.422,3.422V42.188A7.953,7.953,0,0,0,6.9,56.637a1.093,1.093,0,0,0-.052.265v1.17A7.125,7.125,0,0,0,0,65.172v3.137a3.422,3.422,0,0,0,3.422,3.422h15.97a3.422,3.422,0,0,0,3.422-3.422V65.172a7.125,7.125,0,0,0-6.844-7.1V56.9a1.093,1.093,0,0,0-.052-.265,7.953,7.953,0,0,0-3.37-14.449V27.243A1.141,1.141,0,0,1,13.689,26.1H25.1v1.141a3.422,3.422,0,0,0,3.422,3.422h6.844V42.188a7.953,7.953,0,0,0-3.37,14.449,1.093,1.093,0,0,0-.052.265v1.17a7.125,7.125,0,0,0-6.844,7.1v3.137a3.422,3.422,0,0,0,3.422,3.422h15.97a3.422,3.422,0,0,0,3.422-3.422V65.172a7.125,7.125,0,0,0-6.844-7.1V56.9a1.093,1.093,0,0,0-.052-.265,7.953,7.953,0,0,0-3.37-14.449V30.665h6.844a3.422,3.422,0,0,0,3.422-3.422V26.1H59.318a1.141,1.141,0,0,1,1.141,1.141V42.188a7.953,7.953,0,0,0-3.37,14.449,1.093,1.093,0,0,0-.052.265v1.17a7.125,7.125,0,0,0-6.844,7.1v3.137a3.422,3.422,0,0,0,3.422,3.422h15.97a3.422,3.422,0,0,0,3.422-3.422V65.172a7.125,7.125,0,0,0-6.844-7.1Zm-45.629,7.1v3.137a1.141,1.141,0,0,1-1.141,1.141H3.422a1.141,1.141,0,0,1-1.141-1.141V65.172A4.853,4.853,0,0,1,7.13,60.324h.349a4.522,4.522,0,0,0,7.892-.064,1.107,1.107,0,0,0,.315.064,4.853,4.853,0,0,1,4.848,4.848ZM9.126,58.042V57.67a7.871,7.871,0,0,0,2.281.372,7.871,7.871,0,0,0,2.281-.372v.372a2.281,2.281,0,1,1-4.563,0Zm7.985-7.962a5.7,5.7,0,1,1-11.407,0,1.12,1.12,0,0,0,.262-.05l3.616-1.456a2.774,2.774,0,0,1,1.8-.1l5.594,1.6a1.069,1.069,0,0,0,.139,0Zm-.593-2.51-4.524-1.287a5.1,5.1,0,0,0-3.274.173l-2.332.94a5.658,5.658,0,0,1,10.123.173ZM36.5,3.287A5.7,5.7,0,0,1,41.612,6.5L37.087,5.217a5.088,5.088,0,0,0-3.274.173l-2.329.94A5.685,5.685,0,0,1,36.5,3.287ZM30.8,9.014a1.12,1.12,0,0,0,.262-.05l3.616-1.456a2.761,2.761,0,0,1,1.8-.1l5.594,1.6a1.088,1.088,0,0,0,.146.011,5.7,5.7,0,1,1-11.407,0Zm7.985,7.59v.372a2.281,2.281,0,0,1-4.563,0V16.6a7.175,7.175,0,0,0,4.563,0Zm6.844,48.568v3.137a1.141,1.141,0,0,1-1.141,1.141H28.518a1.141,1.141,0,0,1-1.141-1.141V65.172a4.853,4.853,0,0,1,4.848-4.848h.349a4.522,4.522,0,0,0,7.892-.064,1.107,1.107,0,0,0,.315.064,4.853,4.853,0,0,1,4.848,4.848Zm-11.407-7.13V57.67a7.175,7.175,0,0,0,4.563,0v.372a2.281,2.281,0,0,1-4.563,0Zm7.985-7.962a5.7,5.7,0,1,1-11.407,0,1.12,1.12,0,0,0,.262-.05l3.616-1.456a2.774,2.774,0,0,1,1.8-.1l5.594,1.6a1.069,1.069,0,0,0,.139,0Zm-.593-2.51L37.09,46.284a5.1,5.1,0,0,0-3.274.173l-2.325.938a5.658,5.658,0,0,1,10.123.173Zm4.015-20.328a1.141,1.141,0,0,1-1.141,1.141H28.518a1.141,1.141,0,0,1-1.141-1.141V24.106a4.853,4.853,0,0,1,4.848-4.848h.349a4.522,4.522,0,0,0,7.892-.064,1.107,1.107,0,0,0,.315.064,4.853,4.853,0,0,1,4.848,4.848ZM61.6,44.354a5.7,5.7,0,0,1,5.108,3.217l-4.524-1.287a5.1,5.1,0,0,0-3.274.173l-2.325.938A5.685,5.685,0,0,1,61.6,44.354ZM55.9,50.08a1.12,1.12,0,0,0,.262-.05l3.616-1.456a2.774,2.774,0,0,1,1.8-.1l5.594,1.6a1.064,1.064,0,0,0,.146.011,5.7,5.7,0,1,1-11.407,0Zm7.985,7.59v.372a2.281,2.281,0,1,1-4.563,0V57.67a7.175,7.175,0,0,0,4.563,0Zm6.844,10.638a1.141,1.141,0,0,1-1.141,1.141H53.614a1.141,1.141,0,0,1-1.141-1.141V65.172a4.853,4.853,0,0,1,4.848-4.848h.349a4.522,4.522,0,0,0,7.892-.064,1.107,1.107,0,0,0,.315.064,4.853,4.853,0,0,1,4.848,4.848Z" data-name="Path 33620" fill="#fff" id="Path_33620" transform="translate(0 -0.995)"/>
</svg>
