<svg height="73.326" viewBox="0 0 73.298 73.326" width="73.298" xmlns="http://www.w3.org/2000/svg">
  <g data-name="Group 13548" id="Group_13548" transform="translate(992.826 -220.652)">
    <path d="M-955.459,220.652a21.184,21.184,0,0,1,1.936,1.818c1.362,1.625,2.65,3.313,4.011,5.03,1.249-.725,2.473-1.45,3.71-2.15a2.4,2.4,0,0,1,2.87.177,2.429,2.429,0,0,1,.816,2.764q-1.128,3.723-2.3,7.43a.906.906,0,0,0,.248,1.054A16.3,16.3,0,0,1-939.7,247.12a29.863,29.863,0,0,1-.74,8.586,2.471,2.471,0,0,0,.01,1.034,4.747,4.747,0,0,1-4.067,5.869.806.806,0,0,0-.569.365,12.326,12.326,0,0,1-4.324,5.485,1.019,1.019,0,0,0-.13.184,14.69,14.69,0,0,1,9.116,5.914l1.932-1.515a7.271,7.271,0,0,1-1.9-6.961,7.075,7.075,0,0,1,2.847-4.16,7.821,7.821,0,0,1,9.922.675,7.4,7.4,0,0,1,.218,10.4c.919.858,1.9,1.653,2.742,2.581a18.451,18.451,0,0,1,4.357,9.411c.429,2.454.557,4.964.747,7.454.093,1.215-.281,1.526-1.49,1.526H-960.47q-15.425,0-30.849.011a1.526,1.526,0,0,1-1.507-.725V290.1c.144-1.108.208-2.233.448-3.319.431-1.947.939-3.878,1.474-5.8a1.054,1.054,0,0,1,1.425-.811,1.1,1.1,0,0,1,.589,1.6,30.449,30.449,0,0,0-1.754,9.659c0,.094.009.188.017.334h16.1c0-.264,0-.517,0-.771q.007-4.3.015-8.591a13.006,13.006,0,0,1,1.187-5.329c.2-.435.16-.709-.209-.964-.859-.595-1.69-1.237-2.588-1.767-1.059-.626-1.152-1.444-.16-2.159a5.114,5.114,0,0,0,1.906-6.418,5.544,5.544,0,0,0-6.33-2.986,5.27,5.27,0,0,0-4.1,5.332,4.665,4.665,0,0,0,2.234,3.949,1.247,1.247,0,0,1-.154,2.345,10.383,10.383,0,0,0-4,3.393c-.556.733-1.135.889-1.692.479s-.626-1.118-.006-1.8c1.081-1.2,2.232-2.327,3.427-3.561a7.2,7.2,0,0,1-1.772-6.828,7.142,7.142,0,0,1,2.962-4.246,7.816,7.816,0,0,1,9.908.863,7.406,7.406,0,0,1,.051,10.36l1.7,1.349c1.413-1.241,2.735-2.54,4.2-3.652a12.635,12.635,0,0,1,5.219-2.125,12.223,12.223,0,0,1-3.616-3.813c-.365-.639-.518-1.471-1.023-1.936-.46-.424-1.29-.42-1.918-.695a4.548,4.548,0,0,1-2.642-5.228c.275-1.118-.193-2.107-.361-3.143-.692-4.258-.708-8.447,1.053-12.5a14.721,14.721,0,0,1,3.055-4.543.9.9,0,0,0,.248-1.056q-1.179-3.707-2.3-7.43a2.426,2.426,0,0,1,1.909-3.242,3.42,3.42,0,0,1,1.894.385c1.212.6,2.354,1.345,3.586,2.066,1.139-1.432,2.263-2.842,3.385-4.255a18.686,18.686,0,0,1,1.208-1.506,13.621,13.621,0,0,1,1.361-1.089Zm33.757,71.123c-.193-4.93-.881-9.67-3.8-13.8a11.435,11.435,0,0,0-4.1-3.6c-1.266-.658-1.32-1.445-.158-2.292a5.022,5.022,0,0,0,2.223-3.974,5.27,5.27,0,0,0-4.1-5.335,5.548,5.548,0,0,0-6.333,2.979,5.109,5.109,0,0,0,1.9,6.42c.993.713.9,1.538-.149,2.16-.9.53-1.73,1.17-2.588,1.766-.362.252-.415.521-.217.962a13.29,13.29,0,0,1,1.2,5.543c0,.8-.432,1.324-1.087,1.31-.629-.013-1.02-.51-1.079-1.272a20.291,20.291,0,0,0-.292-2.479,12.267,12.267,0,0,0-10.69-9.519.8.8,0,0,0-.656.3c-.482,1.113-.913,2.249-1.333,3.387a1.272,1.272,0,0,0,.011.626q.8,4.427,1.619,8.851a1.632,1.632,0,0,1-.365,1.651c-1.2,1.163-2.348,2.376-3.531,3.556-.688.686-1.208.68-1.9-.016-1.163-1.165-2.3-2.354-3.475-3.51a1.445,1.445,0,0,1-.439-1.419c.329-1.73.6-3.471.951-5.2.854-4.244.866-4.242-.5-7.692a.381.381,0,0,1-.02-.069c-.087-.44-.361-.528-.779-.487a12.3,12.3,0,0,0-10.963,12.038c-.013,2.816,0,5.632,0,8.448,0,.209.02.417.032.661h4.595v-.8c0-2.076-.006-4.153,0-6.229,0-.854.462-1.382,1.134-1.361.646.02,1.066.527,1.072,1.352.012,1.718,0,3.437,0,5.155v1.869h18.692c0-2.291,0-4.531,0-6.772,0-.283-.043-.647.107-.83.261-.317.659-.719,1-.718s.724.412,1,.725c.141.162.1.5.1.76.007,2.029,0,4.057.006,6.086,0,.251.022.5.034.751h4.592c0-1.526,0-3,0-4.479,0-.932.405-1.464,1.1-1.457s1.063.526,1.067,1.479c0,1.265,0,2.53,0,3.794,0,.227.022.454.033.672Zm-48.341-37.853c.681-.222,1.3-.391,1.888-.63.3-.12.685-.309.788-.565.945-2.359,1.867-4.729,2.729-7.12.416-1.153.808-1.4,1.962-.94a16.787,16.787,0,0,0,13.012-.006c1.137-.46,1.536-.2,1.953.96.853,2.369,1.776,4.713,2.691,7.059a1.008,1.008,0,0,0,.485.556c.725.258,1.477.443,2.414.711.09-2.147.321-4.289.238-6.419a13.521,13.521,0,0,0-3.948-9.317,1.7,1.7,0,0,0-1.045-.438c-1.262-.052-2.529-.014-3.793-.025a2.1,2.1,0,0,1-.842-.113,1,1,0,0,1-.62-1.167,1.1,1.1,0,0,1,1.2-.906c1.428,0,2.857,0,4.3,0,.8-2.575,1.58-5.095,2.348-7.619a2.7,2.7,0,0,0,.032-.665,2.082,2.082,0,0,0-.71.108c-1.287.725-2.554,1.484-3.832,2.226-1.061.616-1.4.548-2.17-.43q-2.31-2.917-4.618-5.836c-.561-.707-.626-.706-1.2.014q-2.335,2.944-4.667,5.889c-.709.892-1.1.96-2.067.393-1.316-.77-2.628-1.548-3.953-2.3a.9.9,0,0,0-.587-.071c-.06.013-.121.337-.076.486.789,2.591,1.595,5.177,2.41,7.807h1.45c2.887,0,5.775-.005,8.662,0,.932,0,1.486.608,1.269,1.382-.2.716-.785.81-1.419.809-3.245,0-6.49-.013-9.735.017a1.574,1.574,0,0,0-.988.4,12.885,12.885,0,0,0-3.441,5.924A21.685,21.685,0,0,0-970.042,253.922Zm7.358-6.952a2.513,2.513,0,0,0-.173.348,36.056,36.056,0,0,1-2.921,7.117.986.986,0,0,0-.128.47c.029,1.691-.052,3.4.134,5.069a9.657,9.657,0,0,0,8.914,8.4,9.575,9.575,0,0,0,10.1-7.489,39.631,39.631,0,0,0,.311-6.048,1.484,1.484,0,0,0-.221-.588c-.584-1.275-1.212-2.532-1.746-3.828-.46-1.115-.815-2.274-1.23-3.453A18.49,18.49,0,0,1-962.685,246.97Zm5.416,28.553c-.5,2.692-.988,5.306-1.457,7.924-.051.285-.1.7.051.868.8.864,1.674,1.666,2.531,2.5.806-.8,1.609-1.577,2.379-2.385a.827.827,0,0,0,.178-.625c-.478-2.755-.981-5.506-1.482-8.282Zm-.151-2.191c.732,0,1.446.015,2.159-.012a.564.564,0,0,0,.422-.26c.333-.783.629-1.581.97-2.459h-4.587c.077.244.111.381.162.511C-958.017,271.821-957.736,272.528-957.419,273.332Zm-10.641-17.747a2.414,2.414,0,0,0-1.814,2.454,2.313,2.313,0,0,0,1.814,2.217Zm23.713-.017c0,1.575,0,3.075,0,4.575a.377.377,0,0,0,.048.128,2.4,2.4,0,0,0,1.83-2.321A2.433,2.433,0,0,0-944.348,255.568Z" data-name="Path 33662" fill="#fff" id="Path_33662" transform="translate(0)"/>
    <path d="M-815.8,434.781a3.718,3.718,0,0,1-3.167-1.619,1.152,1.152,0,0,1,.212-1.7c.553-.355,1.084-.2,1.57.454a1.784,1.784,0,0,0,2.818-.028c.47-.638,1.031-.783,1.579-.407a1.133,1.133,0,0,1,.248,1.589A3.713,3.713,0,0,1-815.8,434.781Z" data-name="Path 33663" fill="#fff" id="Path_33663" transform="translate(-140.392 -170.344)"/>
    <path d="M-834.178,398.759c0-.428-.031-.86.007-1.284a.963.963,0,0,1,1.041-.95.957.957,0,0,1,1.07.925,19.6,19.6,0,0,1,0,2.71.972.972,0,0,1-1.076.928.984.984,0,0,1-1.034-.973C-834.2,399.665-834.178,399.211-834.178,398.759Z" data-name="Path 33664" fill="#fff" id="Path_33664" transform="translate(-128.298 -142.237)"/>
    <path d="M-777.388,398.778c0,.428.022.858,0,1.285a1.048,1.048,0,0,1-1.058,1.032,1,1,0,0,1-1.06-.955,19.8,19.8,0,0,1,0-2.711.955.955,0,0,1,1.086-.9.967.967,0,0,1,1.024.969C-777.361,397.919-777.389,398.35-777.388,398.778Z" data-name="Path 33665" fill="#fff" id="Path_33665" transform="translate(-172.484 -142.237)"/>
  </g>
</svg>
