<svg fill="none" height="75" viewBox="0 0 75 75" width="75" xmlns="http://www.w3.org/2000/svg">
<rect height="75" width="75"/>
<path d="M3.651 67.9401V73.7425C3.651 74.41 4.19227 74.9513 4.85981 74.9513C5.52735 74.9513 6.06863 74.41 6.06863 73.7425V68.8106C6.34062 68.8527 6.61529 68.877 6.89051 68.8829H7.14414C8.35296 68.9919 10.0696 69.0643 11.8828 69.0643H13.0917L12.3664 70.8288V70.8294C12.3227 70.9411 12.3367 71.0674 12.4047 71.1667C12.4721 71.266 12.5849 71.3253 12.7053 71.3248H18.1568V73.7424C18.1568 74.41 18.6981 74.9512 19.3656 74.9512C20.0332 74.9512 20.5745 74.41 20.5745 73.7424V71.3248H27.1021C27.2413 71.3248 27.3681 71.2449 27.4286 71.1192L29.8462 65.8851H32.1548C32.7857 65.8694 33.3852 65.6077 33.8256 65.156C34.266 64.7043 34.5126 64.0983 34.5121 63.4674V61.0498C34.5142 60.5889 34.3847 60.1367 34.1386 59.7465C33.892 59.3569 33.5396 59.0455 33.1219 58.8496L36.0953 52.5032H36.0959C36.1477 52.3969 36.1444 52.2712 36.0862 52.1676C36.0284 52.064 35.9237 51.9954 35.8055 51.9836H20.2484C20.1016 51.9809 19.9694 52.0737 19.9219 52.2135L17.8669 57.2419L13.8175 53.1924C13.3383 52.7817 12.6232 52.8093 12.1764 53.2555C11.7301 53.7024 11.7026 54.4174 12.1132 54.8966L16.8763 59.7319L16.5622 60.5058H9.6957C9.02816 60.5058 8.48688 59.9645 8.48688 59.2969V55.61C8.48688 55.2894 8.35952 54.9818 8.13287 54.7552C7.90622 54.5285 7.59862 54.4012 7.27807 54.4012C6.61052 54.4012 6.06925 54.9424 6.06925 55.61V59.2364C6.06925 60.1981 6.45132 61.1209 7.13128 61.8008C7.81124 62.4806 8.7341 62.8628 9.69563 62.8628H15.5702L14.0349 66.6345H14.0355C11.818 66.7111 9.5985 66.6631 7.38698 66.4893H7.01193C6.15659 66.5012 5.32125 66.234 4.6316 65.7278C3.94247 65.2216 3.43682 64.5045 3.19235 63.6847C2.19292 59.1781 2.19292 54.5074 3.19235 50.0008C3.351 49.2059 3.77733 48.4887 4.40117 47.9701C5.04227 47.4445 5.84415 47.1542 6.6736 47.1482L11.1949 47.3538H12.8753L17.9037 47.1482C19.4206 47.2179 20.793 48.0689 21.5302 49.3964C21.7482 49.848 22.2501 50.0887 22.739 49.977L23.0531 49.9166C23.3801 49.8416 23.6526 49.6165 23.7886 49.3095C23.924 49.0024 23.9068 48.6495 23.7422 48.357C23.1712 47.2842 22.325 46.383 21.2906 45.7457C20.2555 45.1083 19.0699 44.7576 17.8552 44.7306L12.7663 44.9362H11.3157L6.73407 44.7306C5.30946 44.7214 3.92837 45.2233 2.84154 46.145C1.77628 47.0613 1.04835 48.3084 0.774672 49.6867C-0.258224 54.467 -0.258224 59.4123 0.774672 64.1925C1.18535 65.7802 2.22359 67.1325 3.65152 67.9399L3.651 67.9401ZM32.1183 62.8631C32.1183 63.0234 32.0546 63.1772 31.9413 63.2905C31.828 63.4039 31.6741 63.4675 31.5139 63.4675H28.2014C27.9937 63.4729 27.7978 63.3682 27.6866 63.1923C27.5749 63.0169 27.5641 62.7951 27.6575 62.6095L28.2257 61.4006C28.3218 61.1859 28.5349 61.0488 28.7697 61.0499H31.5138C31.6751 61.0466 31.8305 61.1092 31.9449 61.2231C32.0588 61.3375 32.1214 61.4929 32.1182 61.6543L32.1183 62.8631ZM21.5412 54.6313C21.5957 54.492 21.7301 54.4008 21.8796 54.4014H32.0093C32.134 54.4014 32.25 54.4656 32.3164 54.5714C32.3822 54.6766 32.3898 54.8088 32.3358 54.9211L30.5954 58.6322H26.8599L23.6808 65.3654C23.6268 65.4776 23.6344 65.6098 23.7002 65.7151C23.7666 65.8208 23.8826 65.885 24.0073 65.885H27.2107L25.8929 68.7015C25.8303 68.8251 25.7051 68.9044 25.5664 68.9071H16.2585C16.1403 68.9034 16.0319 68.8429 15.9666 68.7442C15.9018 68.6454 15.8889 68.5213 15.932 68.4117L21.5412 54.6313Z" fill="white"/>
<path d="M12.112 30.2227C8.66678 30.2227 5.76562 33.5468 5.76562 37.4756C5.76562 41.102 8.31602 43.5196 12.112 43.5196C15.9079 43.5196 18.4583 41.102 18.4583 37.4756C18.4583 33.5468 15.5572 30.2227 12.112 30.2227ZM12.112 41.102C11.0937 41.2105 10.078 40.8743 9.32521 40.1792C8.57294 39.4847 8.15687 38.4993 8.18331 37.4756C8.18331 34.9009 10.0209 32.6403 12.112 32.6403C14.2032 32.6403 16.0408 34.9009 16.0408 37.4756C16.0672 38.4993 15.6511 39.4847 14.8989 40.1792C14.1461 40.8743 13.1304 41.2105 12.1121 41.102H12.112Z" fill="white"/>
<path d="M72.1184 46.1207C71.0213 45.2114 69.6382 44.7192 68.2135 44.7307L63.6922 44.9363H62.2298L57.0922 44.7307C55.885 44.7641 54.7086 45.1171 53.6827 45.7544C52.6568 46.3917 51.8187 47.2897 51.2537 48.3571C51.0886 48.6583 51.0789 49.0204 51.2278 49.3296C51.3762 49.6388 51.6655 49.8574 52.0033 49.9167L52.3174 49.9772C52.8063 50.0889 53.3082 49.8482 53.5262 49.3965C54.2612 48.0674 55.6352 47.2153 57.1526 47.1484L62.2178 47.354H63.9101L68.2619 47.1484C69.155 47.1506 70.0157 47.4819 70.6795 48.0793C71.2645 48.6281 71.6622 49.3469 71.816 50.1343C72.7906 54.5865 72.7906 59.1967 71.816 63.6487C71.5672 64.4922 71.0448 65.2289 70.3314 65.7431C69.618 66.2574 68.754 66.5202 67.875 66.4894H67.5971C65.3894 66.6632 63.1735 66.7117 60.9605 66.6346L59.4257 62.8629H65.3003C66.262 62.8629 67.1848 62.4809 67.8647 61.8009C68.5445 61.1209 68.9267 60.1981 68.9267 59.2365V55.6101C68.9267 55.2895 68.7993 54.9819 68.5727 54.7553C68.346 54.5286 68.0384 54.4013 67.7179 54.4013C67.0503 54.4013 66.509 54.9426 66.509 55.6101V59.2365C66.509 59.5571 66.3817 59.8647 66.155 60.0914C65.9284 60.318 65.6208 60.4454 65.3002 60.4454H58.4343L58.1202 59.6715L62.8832 54.8362H62.8827C63.1898 54.3516 63.1137 53.7181 62.7008 53.3198C62.2875 52.9215 61.6518 52.8681 61.1784 53.1924L57.129 57.2419L55.074 52.2135C55.0265 52.0737 54.8943 51.9809 54.7475 51.9836H39.1904C39.0657 51.9836 38.9502 52.0478 38.8838 52.1536C38.8174 52.2588 38.8099 52.391 38.8639 52.5033L41.8373 58.8496H41.8378C41.4201 59.0455 41.0677 59.3569 40.8211 59.7465C40.575 60.1367 40.445 60.5889 40.4477 61.0498V63.4674C40.4477 64.1085 40.7024 64.7237 41.1557 65.177C41.609 65.6303 42.2237 65.885 42.8653 65.885H45.1134L47.5311 71.1191C47.5915 71.2449 47.7183 71.3247 47.8576 71.3247H54.4214V73.7424C54.4214 74.4099 54.9626 74.9512 55.6302 74.9512C56.2977 74.9512 56.839 74.4099 56.839 73.7424V71.3247H62.3273C62.4471 71.3253 62.5599 71.2659 62.6279 71.1666C62.6953 71.0673 62.7094 70.9411 62.6657 70.8293L61.9404 69.0648H63.1492C64.9624 69.0648 66.6666 68.9924 67.8754 68.8834H68.0325V68.8829C68.3487 68.8786 68.6639 68.8505 68.9758 68.7982V73.7424C68.9758 74.41 69.5165 74.9512 70.1846 74.9512C70.8521 74.9512 71.3934 74.41 71.3934 73.7424V67.9282C72.8052 67.1085 73.8256 65.7524 74.2218 64.1685C75.2595 59.3887 75.2595 54.4424 74.2218 49.6627C73.946 48.2769 73.2034 47.027 72.1187 46.1209L72.1184 46.1207ZM42.8775 62.8632V61.6544C42.8743 61.493 42.9369 61.3376 43.0507 61.2232C43.1651 61.1093 43.3206 61.0467 43.4819 61.05H46.226C46.4607 61.0489 46.6739 61.186 46.77 61.4007L47.3382 62.6096C47.4316 62.7952 47.4208 63.017 47.3091 63.1924C47.1979 63.3683 47.002 63.473 46.7942 63.4676H43.5423C43.3718 63.4849 43.2023 63.4288 43.0755 63.3133C42.9487 63.1983 42.8764 63.0348 42.8775 62.8632L42.8775 62.8632ZM58.7372 68.9073H49.4293C49.2906 68.9046 49.1654 68.8252 49.1028 68.7017L47.785 65.8852H50.9884C51.1131 65.8852 51.2291 65.821 51.2955 65.7152C51.3613 65.61 51.3689 65.4777 51.3149 65.3655L48.1358 58.6323H44.4003L42.6594 54.9212H42.6599C42.6059 54.8089 42.6135 54.6767 42.6793 54.5715C42.7457 54.4657 42.8617 54.4015 42.9864 54.4015H53.1161C53.2656 54.401 53.4 54.4922 53.4545 54.6314L59.0637 68.4119C59.1068 68.5215 59.0939 68.6456 59.0291 68.7443C58.9638 68.8431 58.8554 68.9035 58.7372 68.9073L58.7372 68.9073Z" fill="white"/>
<path d="M62.8835 43.5196C66.6794 43.5196 69.2298 41.102 69.2298 37.4756C69.2298 33.5468 66.3287 30.2227 62.8835 30.2227C59.4383 30.2227 56.5371 33.5468 56.5371 37.4756C56.5371 41.102 59.0875 43.5196 62.8835 43.5196ZM62.8835 32.6403C64.9746 32.6403 66.8122 34.9008 66.8122 37.4756C66.8386 38.4993 66.4226 39.4847 65.6703 40.1792C64.9175 40.8742 63.9018 41.2104 62.8835 41.102C61.8652 41.2104 60.8495 40.8742 60.0968 40.1792C59.3445 39.4846 58.9284 38.4992 58.9549 37.4756C58.9549 34.9008 60.7924 32.6403 62.8836 32.6403H62.8835Z" fill="white"/>
<path d="M57.2011 24.1796C57.5492 23.9993 57.7877 23.661 57.8417 23.273C58.1158 21.4457 58.1158 19.5877 57.8417 17.7611C57.7667 17.3995 57.5308 17.0924 57.2011 16.9267L54.9647 15.7179C54.5524 14.2846 53.9637 12.9079 53.2119 11.6198L53.9733 9.2022C54.0926 8.82606 54.0203 8.41539 53.7801 8.1024C52.6636 6.63566 51.3543 5.3264 49.8876 4.20987C49.5746 3.96973 49.1639 3.89742 48.7878 4.01668L46.3702 4.77813C45.0982 4.05176 43.7421 3.4835 42.3324 3.08578L41.1236 0.849404C40.9434 0.501334 40.605 0.262804 40.217 0.208842C38.3902 -0.069614 36.5317 -0.069614 34.7051 0.208842C34.3435 0.283854 34.0365 0.51968 33.8708 0.849404L32.662 3.08578C31.2286 3.49808 29.852 4.08684 28.5639 4.83864L26.1462 4.07719C25.7701 3.95793 25.3594 4.03024 25.0464 4.27038C23.5797 5.38691 22.2704 6.69617 21.1539 8.16291C20.9138 8.4759 20.8414 8.88658 20.9607 9.26271L21.7222 11.6803C20.9958 12.9523 20.4275 14.3084 20.0298 15.7181L17.7934 16.9269C17.4454 17.1071 17.2068 17.4455 17.1529 17.8335C16.8787 19.6608 16.8787 21.5188 17.1529 23.3454C17.2068 23.734 17.4454 24.0718 17.7934 24.252L20.0298 25.4609C20.4475 26.8693 21.0363 28.2211 21.7827 29.4867L21.0212 31.9043C20.902 32.2805 20.9743 32.6911 21.2144 33.0041C22.3309 34.4709 23.6402 35.7801 25.1069 36.8967C25.4199 37.1368 25.8306 37.2091 26.2067 37.0898L28.6244 36.3284C29.8963 37.0548 31.2524 37.623 32.6621 38.0207L33.8709 40.2571C34.0512 40.6052 34.3895 40.8437 34.7775 40.8977C36.6048 41.1718 38.4628 41.1718 40.2895 40.8977C40.651 40.8227 40.9581 40.5868 41.1238 40.2571L42.3326 38.0207C43.7659 37.6084 45.1426 37.0197 46.4307 36.2679L48.8483 37.0293C49.2244 37.1486 49.6351 37.0763 49.9481 36.8361C51.4148 35.7196 52.7241 34.4104 53.8406 32.9436C54.0808 32.6306 54.1531 32.2199 54.0338 31.8438L53.2724 29.4262C53.9987 28.1542 54.567 26.7981 54.9647 25.3885L57.2011 24.1796ZM52.7528 24.1796C52.375 25.751 51.7512 27.2523 50.9034 28.6279C50.7183 28.9285 50.674 29.2954 50.7825 29.6311L51.5196 31.9279C50.7587 32.8706 49.8996 33.7297 48.9568 34.4907L46.6601 33.7654C46.326 33.6537 45.9596 33.6936 45.6569 33.8744C44.2786 34.7173 42.7778 35.3411 41.2086 35.7238C40.8697 35.8118 40.5809 36.0347 40.4104 36.3401L39.3106 38.4916V38.4922C38.1061 38.6374 36.8887 38.6374 35.6842 38.4922L34.5844 36.3406V36.3401C34.4138 36.0347 34.1251 35.8118 33.7862 35.7238C32.217 35.3412 30.7161 34.7174 29.3379 33.8744C29.0352 33.6936 28.6688 33.6537 28.3347 33.7654L26.038 34.4907C25.0952 33.7298 24.2361 32.8706 23.4751 31.9279L24.2123 29.6311C24.3208 29.2954 24.2765 28.9285 24.0914 28.6279C23.2436 27.2523 22.6198 25.751 22.242 24.1796C22.1594 23.8412 21.9349 23.5547 21.6257 23.3939L19.4742 22.2816C19.329 21.0771 19.329 19.8597 19.4742 18.6552L21.6257 17.543C21.9349 17.3821 22.1594 17.0961 22.242 16.7572C22.6214 15.1869 23.2457 13.6856 24.0914 12.3089C24.2765 12.0083 24.3208 11.6419 24.2123 11.3057L23.4751 9.00897C24.2409 8.09588 25.0995 7.26537 26.038 6.53083L28.3347 7.25612C28.6688 7.36782 29.0352 7.32789 29.3379 7.14711C30.7162 6.30471 32.217 5.68036 33.7862 5.29769C34.1251 5.20972 34.4138 4.98739 34.5844 4.68141L35.6842 2.52986C36.8887 2.38469 38.1061 2.38469 39.3106 2.52986L40.4104 4.68141C40.581 4.98739 40.8697 5.20973 41.2086 5.29769C42.7778 5.6803 44.2787 6.30468 45.6569 7.14711C45.9596 7.32789 46.326 7.36783 46.6601 7.25612L48.9568 6.53083C49.8996 7.29173 50.7587 8.15092 51.5196 9.09366L50.7944 11.3904C50.6864 11.7266 50.7301 12.093 50.9152 12.3936C51.763 13.7692 52.3874 15.271 52.7647 16.8419C52.8472 17.1808 53.0723 17.4668 53.3815 17.6277L55.533 18.7399C55.6782 19.9444 55.6782 21.1618 55.533 22.3663L53.3815 23.4785C53.0674 23.6367 52.838 23.9232 52.7528 24.2643L52.7528 24.1796Z" fill="white"/>
<path d="M37.4982 7.25781C33.9716 7.25781 30.5895 8.6588 28.0958 11.1524C25.602 13.6462 24.2012 17.0281 24.2012 20.5548C24.2012 24.0815 25.6022 27.4634 28.0958 29.9572C30.5895 32.4509 33.9714 33.8518 37.4982 33.8518C41.0249 33.8518 44.4068 32.4508 46.9005 29.9572C49.3943 27.4634 50.7951 24.0815 50.7951 20.5548C50.7951 17.0281 49.3941 13.6462 46.9005 11.1524C44.4068 8.65866 41.0249 7.25781 37.4982 7.25781ZM37.4982 31.4341C34.6126 31.4341 31.8453 30.2879 29.8054 28.2476C27.7649 26.2076 26.6188 23.4403 26.6188 20.5548C26.6188 17.6692 27.765 14.902 29.8054 12.862C31.8453 10.8215 34.6126 9.67545 37.4982 9.67545C40.3837 9.67545 43.151 10.8217 45.1909 12.862C47.2314 14.902 48.3775 17.6692 48.3775 20.5548C48.3775 23.4403 47.2313 26.2076 45.1909 28.2476C43.151 30.288 40.3837 31.4341 37.4982 31.4341Z" fill="white"/>
<path d="M38.5867 12.162C38.3849 11.7454 37.9623 11.4805 37.4988 11.4805C37.0352 11.4805 36.6126 11.7454 36.4108 12.162L34.344 16.3686L29.7018 17.0334V17.034C29.2426 17.1009 28.8616 17.4247 28.7229 17.8677C28.5918 18.2957 28.7083 18.7609 29.0251 19.0766L32.3855 22.3522L31.5998 26.9701C31.5247 27.4228 31.712 27.8783 32.0833 28.1476C32.4546 28.4163 32.9462 28.4519 33.3525 28.2393L37.4987 26.0878L41.6449 28.2636C42.0512 28.4763 42.5429 28.4406 42.9141 28.1719C43.2854 27.9026 43.4727 27.4466 43.3977 26.9944L42.6119 22.3766L45.9604 19.1009C46.2772 18.7846 46.3932 18.32 46.2626 17.8921C46.1234 17.449 45.7429 17.1247 45.2837 17.0578L40.6416 16.3929L38.5867 12.162ZM40.4722 21.083V21.0835C40.1845 21.362 40.0534 21.7646 40.1219 22.159L40.6055 24.9879L38.0669 23.6583C37.7119 23.4688 37.2855 23.4688 36.9304 23.6583L34.3919 24.9879L34.8754 22.159C34.944 21.7646 34.8128 21.362 34.5252 21.0835L32.4702 19.0772L35.3109 18.6659C35.7081 18.6104 36.0524 18.361 36.2294 18.0011L37.4986 15.4258L38.7074 18.0005V18.0011C38.8844 18.361 39.2287 18.6103 39.6259 18.6659L42.4666 19.0771L40.4722 21.083Z" fill="white"/>
</svg>
