<svg fill="none" height="75" viewBox="0 0 75 75" width="75" xmlns="http://www.w3.org/2000/svg">
<rect height="75" width="75"/>
<path clip-rule="evenodd" d="M36.9551 24.2579C36.3706 16.2635 30.9542 10 24.3578 10C17.7421 10 12.3136 16.2996 11.7553 24.3277C8.43302 23.0932 9.35774 33.3604 12.2853 30.3977C13.8961 36.7671 18.6914 41.3878 24.3579 41.3878C29.951 41.3878 34.6954 36.885 36.3664 30.6425C39.0247 32.2874 39.7993 24.1892 36.9551 24.2584L36.9551 24.2579ZM15.6978 19.98C16.9548 22.3372 18.206 23.6598 19.3462 24.3811C23.7541 27.1692 25.3601 22.4526 28.3234 21.4855C29.6757 21.0446 31.36 21.3744 33.7917 23.5445C35.0581 30.0669 31.9245 39.9508 24.1744 39.9508C15.1547 39.9508 12.3897 27.136 15.6978 19.9804V19.98ZM0 64.9236C0.59023 54.6059 5.3242 44.89 13.5923 39.8914C20.099 46.1769 29.2444 45.8824 35.8749 39.5439C44.3326 46.5229 47.9532 54.9062 48.2829 64.9249L0 64.9236Z" fill="white" fill-rule="evenodd"/>
<path clip-rule="evenodd" d="M45.0194 46.564C45.7402 45.9706 46.5029 45.427 47.309 44.94C52.5032 49.9565 59.804 49.7222 65.0961 44.6622C71.8476 50.2338 74.7381 56.9256 75.0007 64.9225H50.8247C50.5998 58.0603 48.8297 51.9656 45.0188 46.5637L45.0194 46.564ZM48.9891 29.0452C46.3477 34.7572 48.5556 44.9872 55.7559 44.9872C61.9424 44.9872 64.4437 37.0977 63.4331 31.8904C61.492 30.158 60.147 29.8953 59.0682 30.2471C56.7037 31.0181 55.4198 34.784 51.9021 32.5582C50.9921 31.9837 49.9926 30.9275 48.9892 29.0456L48.9891 29.0452ZM65.959 32.4597C65.4919 26.0782 61.1763 21.0781 55.9029 21.0781C50.6291 21.0781 46.2887 26.1072 45.8427 32.5149C43.1903 31.53 43.9288 39.7256 46.2657 37.3599C47.5521 42.4446 51.409 46.1327 55.9028 46.1327C60.3967 46.1327 64.1551 42.5378 65.4887 37.5549C67.6101 38.869 68.2292 32.4047 65.9589 32.4597H65.959Z" fill="white" fill-rule="evenodd"/>
</svg>
