<svg height="100" viewBox="0 0 100 100" width="100" xmlns="http://www.w3.org/2000/svg" xmlns:xlink="http://www.w3.org/1999/xlink">
  <defs>
    <clipPath id="clip-twitter">
      <rect height="100" width="100"/>
    </clipPath>
  </defs>
  <g clip-path="url(#clip-twitter)" id="twitter">
    <g data-name="twitter" id="twitter-2" transform="translate(-527 -12909)">
      <g data-name="Group 8412" id="Group_8412" transform="translate(527 12909)">
        <g data-name="Rectangle 330" fill="none" id="Rectangle_330" stroke="#010101" stroke-width="5">
          <rect height="100" rx="26" stroke="none" width="100"/>
          <rect fill="none" height="95" rx="23.5" width="95" x="2.5" y="2.5"/>
        </g>
      </g>
      <g data-name="Group 8415" id="Group_8415" transform="translate(541.583 12921.5)">
        <rect data-name="Rectangle 333" fill="none" height="75" id="Rectangle_333" transform="translate(0.417 0.5)" width="72"/>
        <path d="M27.443,15.931A14.1,14.1,0,0,1,41.238,1.682a13.536,13.536,0,0,1,9.146,3.59A24.278,24.278,0,0,0,56.024,2.2a2.531,2.531,0,0,1,2.965-.023A2.739,2.739,0,0,1,60.056,5.04,22.9,22.9,0,0,1,55.077,14.8c.035.408.055.817.055,1.228,0,12.8-4.794,22.683-12.023,29.072C32.267,54.685,15.822,56.456,1.3,48.11A2.728,2.728,0,0,1,.061,45.029a2.611,2.611,0,0,1,2.608-1.964,25.716,25.716,0,0,0,12-2.43C1.325,31.76-.536,15.4,1.233,8.291a9.306,9.306,0,0,1,1.6-3.546A4.135,4.135,0,0,1,5.345,3.169c1.294-.225,2.93.178,4.349,2.269A23.893,23.893,0,0,0,27.443,15.931Zm24.369-5.466c-.457.171-.917.326-1.381.47a2.548,2.548,0,0,1-2.713-.812,8.479,8.479,0,0,0-6.48-3.055,8.783,8.783,0,0,0-8.589,8.886v2.74a2.653,2.653,0,0,1-2.536,2.693A28.889,28.889,0,0,1,6.349,9.808,14.8,14.8,0,0,0,5.872,12.7c-.317,7.477,2.99,19.8,15.239,25.43a2.686,2.686,0,0,1,1.536,2.22,2.726,2.726,0,0,1-1.132,2.468,31.149,31.149,0,0,1-8.651,4.262c9.84,2.473,19.758.212,26.862-6.066,6.2-5.479,10.2-14,10.2-24.97a9.093,9.093,0,0,0-.155-1.646,2.761,2.761,0,0,1,.729-2.424A16.786,16.786,0,0,0,51.812,10.465Z" data-name="Path 33505" fill="#010101" fill-rule="evenodd" id="Path_33505" transform="translate(6.411 12.176)"/>
      </g>
    </g>
  </g>
</svg>
