<svg data-name="Component 9 – 8" height="14" id="Component_9_8" viewBox="0 0 11.496 14" width="11.496" xmlns="http://www.w3.org/2000/svg" xmlns:xlink="http://www.w3.org/1999/xlink">
  <defs>
    <clipPath id="clip-path">
      <rect data-name="Rectangle 5283" fill="none" height="14" id="Rectangle_5283" width="11.496"/>
    </clipPath>
  </defs>
  <g clip-path="url(#clip-path)" data-name="Group 15112" id="Group_15112">
    <path d="M5.611,14a2.322,2.322,0,0,1-.343-.16.856.856,0,0,1-.359-.77q0-1.253,0-2.505,0-3.4,0-6.8c0-.179,0-.356-.2-.439s-.326.038-.453.164Q2.876,4.87,1.489,6.251a.86.86,0,0,1-1.186.1A.829.829,0,0,1,.161,5.221a1.681,1.681,0,0,1,.153-.175C1.9,3.452,3.5,1.867,5.069.258a1,1,0,0,1,1.343,0C8,1.87,9.6,3.461,11.2,5.06a.84.84,0,0,1-.028,1.313.853.853,0,0,1-1.02.007,1.669,1.669,0,0,1-.173-.155Q8.591,4.84,7.208,3.455a.63.63,0,0,0-.185-.136.307.307,0,0,0-.419.229.99.99,0,0,0-.01.191q0,4.661,0,9.322a.87.87,0,0,1-.481.853A2.134,2.134,0,0,1,5.885,14Z" data-name="Path 104137" id="Path_104137" transform="translate(0 0.001)"/>
  </g>
</svg>
