<svg height="12.908" viewBox="0 0 12.908 12.908" width="12.908" xmlns="http://www.w3.org/2000/svg">
  <g id="Solid" opacity="0.7" transform="translate(-24 -23.999)">
    <path d="M142.63,27.657l1.378-1.378v7.29a.668.668,0,1,0,1.335,0v-7.29l1.378,1.378a.668.668,0,1,0,.944-.944l-2.518-2.518a.668.668,0,0,0-.944,0l-2.518,2.518a.668.668,0,0,0,.944.944Z" data-name="Path 33525" id="Path_33525" transform="translate(-114.222)"/>
    <path d="M36.24,232a.668.668,0,0,0-.668.668v5.119H25.335v-5.119a.668.668,0,0,0-1.335,0v5.341a1.113,1.113,0,0,0,1.113,1.113H35.795a1.113,1.113,0,0,0,1.113-1.113v-5.341A.668.668,0,0,0,36.24,232Z" data-name="Path 33526" id="Path_33526" transform="translate(0 -202.215)"/>
  </g>
</svg>
