<svg fill="none" height="75" viewBox="0 0 87 75" width="87" xmlns="http://www.w3.org/2000/svg">
<rect height="75" width="75" x="6"/>
<path d="M70.6297 47.8365V46.4066C70.6297 45.5493 69.9352 44.8555 69.0786 44.8555C68.222 44.8555 67.5275 45.5493 67.5275 46.4066V47.8365C65.3393 48.0082 63.6061 49.817 63.6061 52.0419V54.4974C63.6061 56.8345 65.5139 58.7359 67.8585 58.7359H70.2995C70.9344 58.7359 71.4496 59.2463 71.4496 59.8736V62.3277C71.4095 63.6593 70.0211 63.4731 69.078 63.4655C66.9043 63.5853 66.6052 63.2543 66.7077 61.1069C66.7001 59.0766 63.6124 59.08 63.6055 61.1069V62.3277C63.6055 64.5519 65.3394 66.3627 67.5268 66.5343C67.486 67.7973 67.3704 69.4433 69.078 69.5126C70.7925 69.4357 70.6671 67.7994 70.6291 66.5343C72.818 66.3633 74.5519 64.5524 74.5519 62.3277V59.8736C74.5519 57.5365 72.6441 55.6336 70.2995 55.6336H67.8585C67.2235 55.6336 66.7083 55.1247 66.7083 54.4973V52.0418C66.7083 51.404 67.2138 50.9054 67.8585 50.9054H70.2995C70.9449 50.9054 71.4497 51.404 71.4497 52.0418V53.2626C71.4573 55.2928 74.545 55.2895 74.5519 53.2626V52.0418C74.5519 49.8176 72.818 48.0082 70.6291 47.8364L70.6297 47.8365Z" fill="white"/>
<path d="M70.6291 39.4793V34.6113C72.1733 33.9839 73.2271 32.4688 73.2271 30.7786V19.7331C73.2271 17.446 71.3665 15.5839 69.078 15.5839H53.7477V6.7467C53.7477 3.02617 50.721 0 47.0017 0H26.224C22.5049 0 19.4787 3.0267 19.4787 6.7467V15.5839H4.14775C1.86062 15.5839 0 17.4453 0 19.7331V30.7786C0 32.4689 1.05392 33.9847 2.59664 34.6113V58.2732C2.59664 59.1305 3.29118 59.8244 4.14775 59.8244C5.00431 59.8244 5.69886 59.1305 5.69886 58.2732V35.5633L31.816 43.3021V46.7484C31.816 48.4588 33.2071 49.8506 34.9182 49.8506H38.3092C40.0202 49.8506 41.4114 48.4588 41.4114 46.7484V43.3021L46.5424 41.7815C48.4807 41.1964 47.6102 38.2389 45.6609 38.8067L41.4112 40.0656C41.6398 38.1641 40.295 36.3437 38.309 36.3603H34.918C32.9328 36.3451 31.5866 38.1642 31.8158 40.0656L3.84981 31.7797C3.4101 31.6495 3.10195 31.2375 3.10195 30.777V19.7316C3.10195 19.1547 3.57143 18.6846 4.14755 18.6846H69.0778C69.6546 18.6846 70.1248 19.154 70.1248 19.7316V30.777C70.1248 31.2375 69.8173 31.6495 69.3755 31.7797L51.7434 37.0044C49.7913 37.5916 50.6888 40.5505 52.6249 39.9791L67.526 35.5633V39.4778C50.9859 40.9098 45.3603 62.5672 59.0483 71.8649H10.6413C7.91653 71.8649 5.69925 69.6469 5.69925 66.9221V63.8836C5.69925 63.0263 5.00471 62.3324 4.14814 62.3324C3.29158 62.3324 2.59703 63.0263 2.59703 63.8836V66.9221C2.59703 71.3574 6.20606 74.9671 10.6413 74.9671C14.1036 75.1063 67.6973 74.7442 69.0782 74.9671C91.7226 74.1681 93.0486 42.2007 70.6293 39.4778L70.6291 39.4793ZM34.9182 39.4641H38.3092L38.3112 46.7502H34.9181L34.9182 39.4641ZM22.5813 6.74724C22.5813 4.737 24.2155 3.10276 26.2243 3.10276H47.0021C49.0116 3.10276 50.6459 4.73697 50.6459 6.74724V15.5845H22.5806V6.74724H22.5813ZM69.0773 71.8672C61.0849 71.9606 54.3051 65.1669 54.3965 57.1843C55.188 37.7148 82.9688 37.7183 83.7594 57.1843C83.7594 65.2805 77.1735 71.8665 69.078 71.8665L69.0773 71.8672Z" fill="white"/>
</svg>
